# Blender 5.0.0
# www.blender.org
o ground.005
v 0.356341 0.000000 0.185330
v 0.320851 0.632434 0.224507
v 0.370226 0.000000 0.229362
v 0.334736 0.632434 0.268538
v 0.326195 0.000000 0.243247
v 0.290705 0.632434 0.282424
v 0.312309 0.000000 0.199215
v 0.276819 0.632434 0.238392
v 0.316496 0.518570 0.246629
v 0.355341 0.581238 0.339870
v 0.239244 0.581238 0.320449
v 0.221839 0.581238 0.204032
v 0.327180 0.581238 0.151506
v 0.409688 0.581238 0.235459
v 0.284444 0.684077 0.355777
v 0.201936 0.684077 0.271824
v 0.256283 0.684077 0.167412
v 0.372379 0.684077 0.186834
v 0.389785 0.684077 0.303251
v 0.295343 0.748473 0.262092
v 0.341748 0.000000 -0.472331
v 0.309180 0.588705 -0.437584
v 0.376019 0.000000 -0.498615
v 0.343451 0.588705 -0.463869
v 0.402303 0.000000 -0.464344
v 0.369736 0.588705 -0.429598
v 0.368032 0.000000 -0.438060
v 0.335465 0.588705 -0.403313
v 0.349353 0.482865 -0.439423
v 0.408516 0.541128 -0.504221
v 0.428558 0.541128 -0.395946
v 0.331776 0.541128 -0.343425
v 0.251919 0.541128 -0.419243
v 0.299348 0.541128 -0.518619
v 0.426950 0.636694 -0.447706
v 0.379521 0.636694 -0.348330
v 0.270353 0.636694 -0.362727
v 0.250311 0.636694 -0.471002
v 0.347093 0.636694 -0.523523
v 0.329332 0.696559 -0.426571
v -0.146306 0.000000 -0.217414
v -0.172527 0.693697 -0.155165
v -0.195967 0.000000 -0.218344
v -0.222189 0.693697 -0.156095
v -0.195038 0.000000 -0.268006
v -0.221259 0.693697 -0.205756
v -0.145376 0.000000 -0.267076
v -0.171597 0.693697 -0.204827
v -0.190813 0.575532 -0.187917
v -0.300456 0.640734 -0.168887
v -0.240863 0.640734 -0.280625
v -0.116178 0.640734 -0.258478
v -0.098714 0.640734 -0.133051
v -0.212604 0.640734 -0.077682
v -0.295736 0.747195 -0.227664
v -0.181846 0.747195 -0.283033
v -0.093993 0.747195 -0.191828
v -0.153586 0.747195 -0.080090
v -0.278272 0.747195 -0.102237
v -0.206037 0.814377 -0.171906
v -0.194788 0.000000 0.411861
v -0.216371 0.663807 0.470793
v -0.239099 0.000000 0.429085
v -0.260682 0.663807 0.488017
v -0.256323 0.000000 0.384774
v -0.277906 0.663807 0.443705
v -0.212012 0.000000 0.367550
v -0.233595 0.663807 0.426482
v -0.243501 0.551473 0.450214
v -0.334207 0.613601 0.506114
v -0.322046 0.613601 0.385519
v -0.203594 0.613601 0.359818
v -0.142550 0.613601 0.464532
v -0.223273 0.613601 0.554946
v -0.352441 0.714277 0.450058
v -0.271717 0.714277 0.359643
v -0.160783 0.714277 0.408476
v -0.172945 0.714277 0.529071
v -0.291396 0.714277 0.554772
v -0.254116 0.777410 0.464817
vn 0.9512 0.0720 -0.3000
vn 0.3005 -0.0422 0.9529
vn -0.9512 -0.0720 0.3000
vn -0.3005 0.0422 -0.9529
vn -0.0975 -0.8067 0.5828
vn 0.5577 -0.7776 0.2903
vn -0.5767 -0.8124 0.0862
vn -0.2744 -0.7886 -0.5503
vn 0.4599 -0.7644 -0.4519
vn 0.8793 -0.1315 0.4577
vn -0.1594 -0.2573 0.9531
vn -0.9502 -0.2775 0.1421
vn -0.4400 -0.1668 -0.8824
vn 0.7113 -0.0725 -0.6991
vn 0.4400 0.1668 0.8824
vn -0.7113 0.0725 0.6991
vn -0.8793 0.1315 -0.4577
vn 0.1594 0.2573 -0.9531
vn 0.9502 0.2775 -0.1421
vn 0.2820 0.7750 0.5655
vn -0.4702 0.7519 0.4621
vn -0.5632 0.7726 -0.2931
vn 0.0982 0.8036 -0.5871
vn 0.5870 0.8048 -0.0878
vn -0.6085 0.0132 -0.7934
vn 0.7910 0.0796 -0.6066
vn 0.6085 -0.0132 0.7934
vn -0.7910 -0.0796 0.6067
vn -0.7910 -0.0796 0.6066
vn 0.6292 -0.7685 -0.1165
vn 0.0823 -0.7773 -0.6238
vn 0.2902 -0.7936 0.5348
vn -0.3997 -0.8142 0.4210
vn -0.5346 -0.8057 -0.2552
vn 0.1299 -0.1154 -0.9848
vn 0.9800 -0.0818 -0.1814
vn 0.4683 -0.1897 0.8630
vn -0.6602 -0.2839 0.6954
vn -0.8759 -0.2411 -0.4180
vn 0.6602 0.2839 -0.6954
vn 0.8759 0.2411 0.4180
vn -0.1299 0.1154 0.9848
vn -0.9800 0.0818 0.1814
vn -0.4683 0.1897 -0.8630
vn 0.4042 0.8095 -0.4258
vn 0.5451 0.7970 0.2601
vn -0.0843 0.7645 0.6390
vn -0.6411 0.7582 0.1187
vn -0.2934 0.7885 -0.5406
vn -0.0186 -0.0901 0.9958
vn -0.9992 -0.0361 -0.0187
vn 0.0186 0.0901 -0.9958
vn 0.9992 0.0361 0.0187
vn -0.5261 -0.8028 -0.2806
vn -0.4159 -0.8164 0.4006
vn 0.1084 -0.7847 -0.6104
vn 0.6089 -0.7887 -0.0848
vn 0.2572 -0.8086 0.5291
vn -0.6928 -0.2734 0.6673
vn -0.8616 -0.2155 -0.4595
vn 0.1737 -0.1184 -0.9777
vn 0.9834 -0.1192 -0.1369
vn 0.4268 -0.2168 0.8780
vn -0.9834 0.1192 0.1369
vn -0.4268 0.2168 -0.8780
vn 0.6928 0.2734 -0.6673
vn 0.8616 0.2155 0.4595
vn -0.1737 0.1184 0.9777
vn -0.6316 0.7703 0.0879
vn -0.2627 0.7993 -0.5404
vn 0.4173 0.8151 -0.4019
vn 0.5298 0.7997 0.2825
vn -0.1115 0.7706 0.6275
vn 0.3614 -0.0708 0.9297
vn -0.9302 -0.0623 0.3616
vn -0.3614 0.0708 -0.9297
vn 0.9303 0.0623 -0.3616
vn 0.9302 0.0623 -0.3616
vn -0.5887 -0.8061 -0.0594
vn -0.2329 -0.8160 0.5290
vn -0.1302 -0.7893 -0.6000
vn 0.5299 -0.7898 -0.3089
vn 0.4407 -0.8068 0.3935
vn -0.3889 -0.2616 0.8834
vn -0.9683 -0.2298 -0.0977
vn -0.2098 -0.1437 -0.9671
vn 0.8574 -0.1230 -0.4998
vn 0.7312 -0.1978 0.6528
vn -0.8574 0.1230 0.4998
vn -0.7312 0.1978 -0.6528
vn 0.3889 0.2616 -0.8834
vn 0.9683 0.2298 0.0977
vn 0.2098 0.1437 0.9671
vn -0.5456 0.7754 0.3181
vn -0.4510 0.7965 -0.4027
vn 0.2328 0.8161 -0.5289
vn 0.5834 0.8100 0.0588
vn 0.1314 0.7850 0.6054
vt 1.000000 1.000000
vt 0.750000 0.500000
vt 1.000000 0.500000
vt 0.750000 1.000000
vt 0.500000 0.500000
vt 0.250000 1.000000
vt 0.250000 0.500000
vt 0.000000 1.000000
vt 0.000000 0.500000
vt 0.181819 0.000000
vt 0.272728 0.157461
vt 0.090910 0.157461
vt 0.363637 0.000000
vt 0.454546 0.157461
vt 0.909091 0.000000
vt 1.000000 0.157461
vt 0.818182 0.157461
vt 0.727273 0.000000
vt 0.636364 0.157461
vt 0.545455 0.000000
vt 0.363637 0.314921
vt 0.181819 0.314921
vt 0.909091 0.314921
vt 0.727273 0.314921
vt 0.545455 0.314921
vt 0.000000 0.314921
vt 0.272728 0.472382
vt 0.090910 0.472382
vt 0.818182 0.472382
vt 0.636364 0.472382
vt 0.454546 0.472382
vt 0.500000 1.000000
s 1
f 2/1/1 3/2/1 1/3/1
f 4/4/2 5/5/2 3/2/2
f 5/5/3 8/6/3 7/7/3
f 7/7/4 2/8/4 1/9/4
f 9/10/5 10/11/5 11/12/5
f 10/11/6 9/13/6 14/14/6
f 9/15/7 11/16/7 12/17/7
f 9/18/8 12/17/8 13/19/8
f 9/20/9 13/19/9 14/14/9
f 10/11/10 14/14/10 19/21/10
f 11/12/11 10/11/11 15/22/11
f 12/17/12 11/16/12 16/23/12
f 13/19/13 12/17/13 17/24/13
f 14/14/14 13/19/14 18/25/14
f 10/11/15 19/21/15 15/22/15
f 11/12/16 15/22/16 16/26/16
f 12/17/17 16/23/17 17/24/17
f 13/19/18 17/24/18 18/25/18
f 14/14/19 18/25/19 19/21/19
f 15/22/20 19/21/20 20/27/20
f 16/26/21 15/22/21 20/28/21
f 17/24/22 16/23/22 20/29/22
f 18/25/23 17/24/23 20/30/23
f 19/21/24 18/25/24 20/31/24
f 21/3/25 24/4/25 23/2/25
f 24/4/26 25/5/26 23/2/26
f 26/32/27 27/7/27 25/5/27
f 27/7/28 22/8/29 21/9/28
f 29/10/30 30/11/30 31/12/30
f 30/11/31 29/13/31 34/14/31
f 29/15/32 31/16/32 32/17/32
f 29/18/33 32/17/33 33/19/33
f 29/20/34 33/19/34 34/14/34
f 30/11/35 34/14/35 39/21/35
f 31/12/36 30/11/36 35/22/36
f 32/17/37 31/16/37 36/23/37
f 33/19/38 32/17/38 37/24/38
f 34/14/39 33/19/39 38/25/39
f 30/11/40 39/21/40 35/22/40
f 31/12/41 35/22/41 36/26/41
f 32/17/42 36/23/42 37/24/42
f 33/19/43 37/24/43 38/25/43
f 34/14/44 38/25/44 39/21/44
f 35/22/45 39/21/45 40/27/45
f 36/26/46 35/22/46 40/28/46
f 37/24/47 36/23/47 40/29/47
f 38/25/48 37/24/48 40/30/48
f 39/21/49 38/25/49 40/31/49
f 42/1/50 43/2/50 41/3/50
f 43/2/51 46/32/51 45/5/51
f 45/5/52 48/6/52 47/7/52
f 48/6/53 41/9/53 47/7/53
f 49/10/54 50/11/54 51/12/54
f 50/11/55 49/13/55 54/14/55
f 49/15/56 51/16/56 52/17/56
f 49/18/57 52/17/57 53/19/57
f 49/20/58 53/19/58 54/14/58
f 50/11/59 54/14/59 59/21/59
f 51/12/60 50/11/60 55/22/60
f 52/17/61 51/16/61 56/23/61
f 53/19/62 52/17/62 57/24/62
f 54/14/63 53/19/63 58/25/63
f 50/11/64 59/21/64 55/22/64
f 51/12/65 55/22/65 56/26/65
f 52/17/66 56/23/66 57/24/66
f 53/19/67 57/24/67 58/25/67
f 54/14/68 58/25/68 59/21/68
f 55/22/69 59/21/69 60/27/69
f 56/26/70 55/22/70 60/28/70
f 57/24/71 56/23/71 60/29/71
f 58/25/72 57/24/72 60/30/72
f 59/21/73 58/25/73 60/31/73
f 62/1/74 63/2/74 61/3/74
f 63/2/75 66/32/75 65/5/75
f 65/5/76 68/6/76 67/7/76
f 68/6/77 61/9/78 67/7/78
f 69/10/79 70/11/79 71/12/79
f 70/11/80 69/13/80 74/14/80
f 69/15/81 71/16/81 72/17/81
f 69/18/82 72/17/82 73/19/82
f 69/20/83 73/19/83 74/14/83
f 70/11/84 74/14/84 79/21/84
f 71/12/85 70/11/85 75/22/85
f 72/17/86 71/16/86 76/23/86
f 73/19/87 72/17/87 77/24/87
f 74/14/88 73/19/88 78/25/88
f 70/11/89 79/21/89 75/22/89
f 71/12/90 75/22/90 76/26/90
f 72/17/91 76/23/91 77/24/91
f 73/19/92 77/24/92 78/25/92
f 74/14/93 78/25/93 79/21/93
f 75/22/94 79/21/94 80/27/94
f 76/26/95 75/22/95 80/28/95
f 77/24/96 76/23/96 80/29/96
f 78/25/97 77/24/97 80/30/97
f 79/21/98 78/25/98 80/31/98
f 2/1/1 4/4/1 3/2/1
f 4/4/2 6/32/2 5/5/2
f 5/5/3 6/32/3 8/6/3
f 7/7/4 8/6/4 2/8/4
f 21/3/25 22/1/25 24/4/25
f 24/4/26 26/32/26 25/5/26
f 26/32/27 28/6/27 27/7/27
f 27/7/28 28/6/29 22/8/29
f 42/1/50 44/4/50 43/2/50
f 43/2/51 44/4/51 46/32/51
f 45/5/52 46/32/52 48/6/52
f 48/6/53 42/8/53 41/9/53
f 62/1/74 64/4/74 63/2/74
f 63/2/75 64/4/75 66/32/75
f 65/5/76 66/32/76 68/6/76
f 68/6/77 62/8/77 61/9/78
