# Blender 5.0.0
# www.blender.org
o animated.001
v 0.000000 3.141890 -0.294891
v 0.000000 2.767012 -0.452116
v 0.208520 3.141890 -0.208520
v 0.319694 2.767012 -0.319694
v 0.294891 3.141890 0.000000
v 0.452116 2.767012 0.000000
v 0.208520 3.141890 0.208520
v 0.319694 2.767012 0.319694
v -0.000000 3.141890 0.294891
v 0.000000 2.767012 0.452116
v -0.208520 3.141890 0.208520
v -0.319694 2.767012 0.319694
v -0.294891 3.141890 -0.000000
v -0.452116 2.767012 0.000000
v -0.208520 3.141890 -0.208520
v -0.319694 2.767012 -0.319694
v 0.000000 2.142596 -0.352738
v 0.000000 2.256115 -0.452116
v 0.319694 2.256115 -0.319694
v 0.249424 2.142596 -0.249424
v 0.452116 2.256115 0.000000
v 0.352738 2.142596 0.000000
v 0.319694 2.256115 0.319694
v 0.249424 2.142596 0.249424
v 0.000000 2.256115 0.452116
v -0.000000 2.142596 0.352738
v -0.319694 2.256115 0.319694
v -0.249424 2.142596 0.249424
v -0.452116 2.256115 0.000000
v -0.352738 2.142596 -0.000000
v -0.319694 2.256115 -0.319694
v -0.249424 2.142596 -0.249424
v 0.000000 2.380075 -0.452116
v 0.319694 2.380075 -0.319694
v -0.319694 2.380075 -0.319694
v 0.452116 2.380075 0.000000
v 0.319694 2.380075 0.319694
v 0.000000 2.380075 0.452116
v -0.319694 2.380075 0.319694
v -0.452116 2.380075 0.000000
v 0.241970 3.029096 -0.241970
v 0.000000 3.029096 -0.342197
v 0.342197 3.029096 0.000000
v 0.241970 3.029096 0.241970
v -0.000000 3.029096 0.342197
v -0.241970 3.029096 0.241970
v -0.342197 3.029096 -0.000000
v -0.241970 3.029096 -0.241970
vn 0.3568 0.3613 -0.8615
vn 0.8615 0.3613 -0.3568
vn 0.8615 0.3613 0.3568
vn 0.3568 0.3613 0.8615
vn -0.3568 0.3613 0.8615
vn -0.8615 0.3613 0.3568
vn -0.8615 0.3613 -0.3568
vn -0.3568 0.3613 -0.8615
vn -0.0000 1.0000 -0.0000
vn 0.2975 -0.6289 -0.7183
vn 0.7183 -0.6289 -0.2975
vn 0.7183 -0.6289 0.2975
vn 0.2975 -0.6289 0.7183
vn -0.2975 -0.6289 0.7183
vn -0.7183 -0.6289 0.2975
vn -0.7183 -0.6289 -0.2975
vn -0.2975 -0.6289 -0.7183
vn 0.3827 -0.0000 -0.9239
vn -0.0000 -1.0000 -0.0000
vn -0.3827 -0.0000 -0.9239
vn 0.9239 -0.0000 -0.3827
vn 0.9239 -0.0000 0.3827
vn 0.3827 -0.0000 0.9239
vn -0.3827 -0.0000 0.9239
vn -0.9239 -0.0000 0.3827
vn -0.9239 -0.0000 -0.3827
vt 0.484532 0.045595
vt 0.557775 0.015962
vt 0.563214 0.045595
vt 0.605720 0.005340
vt 0.618850 0.033270
vt 0.634825 0.327923
vt 0.708068 0.298289
vt 0.713506 0.327923
vt 0.756013 0.287668
vt 0.769143 0.315598
vt 0.634825 0.568766
vt 0.708068 0.539132
vt 0.713506 0.568766
vt 0.756013 0.528510
vt 0.769143 0.556440
vt 0.017977 0.625123
vt 0.091220 0.595489
vt 0.096658 0.625123
vt 0.139165 0.584868
vt 0.152295 0.612798
vt 0.670133 0.769353
vt 0.785882 0.817298
vt 0.737937 0.933047
vt 0.005340 0.078847
vt 0.032922 0.171377
vt 0.005340 0.182802
vt 0.090272 0.032922
vt 0.032922 0.090272
vt 0.182802 0.005340
vt 0.078847 0.005340
vt 0.228727 0.090272
vt 0.171377 0.032922
vt 0.256310 0.182802
vt 0.256310 0.078847
vt 0.171377 0.228727
vt 0.228727 0.171377
vt 0.078847 0.256310
vt 0.182802 0.256310
vt 0.090272 0.228727
vt 0.471896 0.114451
vt 0.575851 0.206131
vt 0.471896 0.206131
vt 0.109295 0.693979
vt 0.182802 0.769375
vt 0.109295 0.785659
vt 0.575851 0.114451
vt 0.649358 0.189847
vt 0.622188 0.396779
vt 0.726143 0.488459
vt 0.622188 0.488459
vt 0.726143 0.396779
vt 0.799650 0.472175
vt 0.622188 0.637622
vt 0.726143 0.729301
vt 0.622188 0.729301
vt 0.726143 0.637622
vt 0.799650 0.713017
vt 0.005340 0.693979
vt 0.005340 0.785659
vt 0.109295 0.815030
vt 0.005340 0.815030
vt 0.799650 0.742388
vt 0.726143 0.758672
vt 0.622188 0.758672
vt 0.799650 0.501546
vt 0.726143 0.517830
vt 0.622188 0.517830
vt 0.649358 0.219218
vt 0.575851 0.235502
vt 0.182802 0.798746
vt 0.471896 0.235502
vt 0.182802 0.677695
vt 0.799650 0.621337
vt 0.799650 0.380495
vt 0.649358 0.098167
vt 0.489971 0.015962
vt 0.640263 0.298289
vt 0.640263 0.539132
vt 0.023415 0.595489
vt 0.670133 0.933047
vt 0.622188 0.885102
vt 0.622188 0.817298
vt 0.737937 0.769353
vt 0.785882 0.885102
s 1
f 42/1/1 3/2/1 41/3/1
f 41/3/2 5/4/2 43/5/2
f 43/6/3 7/7/3 44/8/3
f 44/8/4 9/9/4 45/10/4
f 45/11/5 11/12/5 46/13/5
f 46/13/6 13/14/6 47/15/6
f 47/16/7 15/17/7 48/18/7
f 48/18/8 1/19/8 42/20/8
f 13/21/9 9/22/9 5/23/9
f 19/24/10 17/25/10 18/26/10
f 19/24/11 22/27/11 20/28/11
f 23/29/12 22/27/12 21/30/12
f 23/29/13 26/31/13 24/32/13
f 27/33/14 26/31/14 25/34/14
f 27/33/15 30/35/15 28/36/15
f 31/37/16 30/35/16 29/38/16
f 31/37/17 17/25/17 32/39/17
f 2/40/18 34/41/18 33/42/18
f 24/32/19 28/36/19 32/39/19
f 16/43/20 33/44/20 35/45/20
f 4/46/21 36/47/21 34/41/21
f 6/48/22 37/49/22 36/50/22
f 8/51/23 38/52/23 37/49/23
f 10/53/24 39/54/24 38/55/24
f 12/56/25 40/57/25 39/54/25
f 14/58/26 35/45/26 40/59/26
f 40/59/26 31/60/26 29/61/26
f 39/54/25 29/62/25 27/63/25
f 38/55/24 27/63/24 25/64/24
f 37/49/23 25/65/23 23/66/23
f 36/50/22 23/66/22 21/67/22
f 34/41/21 21/68/21 19/69/21
f 35/45/20 18/70/20 31/60/20
f 33/42/18 19/69/18 18/71/18
f 16/43/8 42/20/8 2/72/8
f 16/43/7 47/16/7 48/18/7
f 12/56/6 47/15/6 14/73/6
f 12/56/5 45/11/5 46/13/5
f 8/51/4 45/10/4 10/74/4
f 8/51/3 43/6/3 44/8/3
f 4/46/2 43/5/2 6/75/2
f 4/46/1 42/1/1 41/3/1
f 42/1/1 1/76/1 3/2/1
f 41/3/2 3/2/2 5/4/2
f 43/6/3 5/77/3 7/7/3
f 44/8/4 7/7/4 9/9/4
f 45/11/5 9/78/5 11/12/5
f 46/13/6 11/12/6 13/14/6
f 47/16/7 13/79/7 15/17/7
f 48/18/8 15/17/8 1/19/8
f 5/23/9 3/80/9 1/81/9
f 1/81/9 15/82/9 13/21/9
f 13/21/9 11/83/9 9/22/9
f 9/22/9 7/84/9 5/23/9
f 5/23/9 1/81/9 13/21/9
f 19/24/10 20/28/10 17/25/10
f 19/24/11 21/30/11 22/27/11
f 23/29/12 24/32/12 22/27/12
f 23/29/13 25/34/13 26/31/13
f 27/33/14 28/36/14 26/31/14
f 27/33/15 29/38/15 30/35/15
f 31/37/16 32/39/16 30/35/16
f 31/37/17 18/26/17 17/25/17
f 2/40/18 4/46/18 34/41/18
f 32/39/19 17/25/19 20/28/19
f 20/28/19 22/27/19 24/32/19
f 24/32/19 26/31/19 28/36/19
f 28/36/19 30/35/19 32/39/19
f 32/39/19 20/28/19 24/32/19
f 16/43/20 2/72/20 33/44/20
f 4/46/21 6/75/21 36/47/21
f 6/48/22 8/51/22 37/49/22
f 8/51/23 10/74/23 38/52/23
f 10/53/24 12/56/24 39/54/24
f 12/56/25 14/73/25 40/57/25
f 14/58/26 16/43/26 35/45/26
f 40/59/26 35/45/26 31/60/26
f 39/54/25 40/57/25 29/62/25
f 38/55/24 39/54/24 27/63/24
f 37/49/23 38/52/23 25/65/23
f 36/50/22 37/49/22 23/66/22
f 34/41/21 36/47/21 21/68/21
f 35/45/20 33/44/20 18/70/20
f 33/42/18 34/41/18 19/69/18
f 16/43/8 48/18/8 42/20/8
f 16/43/7 14/58/7 47/16/7
f 12/56/6 46/13/6 47/15/6
f 12/56/5 10/53/5 45/11/5
f 8/51/4 44/8/4 45/10/4
f 8/51/3 6/48/3 43/6/3
f 4/46/2 41/3/2 43/5/2
f 4/46/1 2/40/1 42/1/1
