# Blender 4.5.3 LTS
# www.blender.org
o ground.008
v 0.391493 0.000000 -0.003065
v 0.411598 0.000000 -0.064354
v 0.472886 0.000000 -0.044249
v 0.452781 0.000000 0.017040
v 0.193898 0.450899 0.119745
v 0.329471 0.450899 -0.293537
v 0.742753 0.450899 -0.157964
v 0.607180 0.450899 0.255318
v 0.484789 0.413125 0.021585
v 0.504894 0.413125 -0.039703
v 0.443606 0.413125 -0.059809
v 0.423501 0.413125 0.001480
v 0.451213 0.657097 -0.102554
v 0.571717 0.657097 -0.063024
v 0.532187 0.657097 0.057480
v 0.411683 0.657097 0.017950
v 0.007514 0.000000 0.244268
v -0.011922 0.000000 0.234067
v -0.001722 0.000000 0.214632
v 0.017714 0.000000 0.224832
v 0.043106 0.155725 0.340223
v -0.087954 0.155725 0.271439
v -0.019170 0.155725 0.140380
v 0.111890 0.155725 0.209164
v 0.025882 0.142510 0.234802
v 0.006447 0.142510 0.224602
v -0.003754 0.142510 0.244038
v 0.015682 0.142510 0.254238
v -0.011321 0.230015 0.254141
v 0.008735 0.230015 0.215927
v 0.046949 0.230015 0.235983
v 0.026893 0.230015 0.274197
v 0.170993 0.000000 -0.423132
v 0.147281 0.000000 -0.442261
v 0.166409 0.000000 -0.465973
v 0.190121 0.000000 -0.446844
v 0.198041 0.212892 -0.289050
v 0.038146 0.212892 -0.418041
v 0.167137 0.212892 -0.577936
v 0.327032 0.212892 -0.448945
v 0.202543 0.194817 -0.436603
v 0.178831 0.194817 -0.455732
v 0.159702 0.194817 -0.432020
v 0.183414 0.194817 -0.412891
v 0.150327 0.314332 -0.424681
v 0.187938 0.314332 -0.471303
v 0.234560 0.314332 -0.433692
v 0.196949 0.314332 -0.387071
v -0.247037 0.000000 -0.195671
v -0.214701 0.000000 -0.225290
v -0.185081 0.000000 -0.192954
v -0.217417 0.000000 -0.163335
v -0.402610 0.314759 -0.180071
v -0.184563 0.314759 -0.379800
v 0.015166 0.314759 -0.161754
v -0.202880 0.314759 0.037976
v -0.198238 0.288442 -0.141751
v -0.165902 0.288442 -0.171371
v -0.195521 0.288442 -0.203707
v -0.227857 0.288442 -0.174087
v -0.166892 0.461168 -0.222557
v -0.108655 0.461168 -0.158979
v -0.172233 0.461168 -0.100743
v -0.230469 0.461168 -0.164320
v -0.405082 0.000000 0.495094
v -0.450467 0.000000 0.506808
v -0.462182 0.000000 0.461424
v -0.416797 0.000000 0.449709
v -0.218479 0.340131 0.614096
v -0.524518 0.340131 0.693091
v -0.603513 0.340131 0.387052
v -0.297474 0.340131 0.308057
v -0.397858 0.311666 0.470184
v -0.443243 0.311666 0.481899
v -0.431528 0.311666 0.527283
v -0.386144 0.311666 0.515569
v -0.415544 0.498322 0.565637
v -0.438577 0.498322 0.476402
v -0.349343 0.498322 0.453369
v -0.326310 0.498322 0.542603
vn -0.0000 1.0000 -0.0000
vn -0.3117 0.0137 0.9501
vn 0.9474 -0.0768 0.3108
vn -0.9474 0.0768 -0.3108
vn 0.3117 -0.0137 -0.9501
vn 0.2558 0.5713 -0.7799
vn -0.2436 0.6239 0.7426
vn -0.7241 0.6475 -0.2375
vn 0.7986 0.5418 0.2620
vn 0.8824 -0.0830 0.4631
vn 0.4644 0.0353 -0.8849
vn -0.4644 -0.0353 0.8849
vn -0.8824 0.0830 -0.4631
vn -0.6897 0.6272 -0.3620
vn 0.7572 0.5184 0.3974
vn -0.3833 0.5654 0.7303
vn 0.3761 0.5874 -0.7166
vn 0.7757 -0.0824 0.6257
vn 0.6279 0.0009 -0.7783
vn -0.6279 -0.0009 0.7783
vn -0.7757 0.0824 -0.6257
vn -0.6020 0.6339 -0.4856
vn 0.6629 0.5239 0.5348
vn -0.5034 0.5976 0.6241
vn 0.5169 0.5676 -0.6408
vn -0.7374 -0.0015 0.6755
vn 0.6721 -0.0996 0.7337
vn -0.6721 0.0996 -0.7337
vn 0.7374 0.0015 -0.6755
vn 0.6221 0.5369 -0.5698
vn -0.5774 0.6220 0.5289
vn -0.5087 0.6579 -0.5554
vn 0.5900 0.4868 0.6441
vn 0.9674 -0.0424 -0.2497
vn -0.2492 0.0786 -0.9653
vn 0.2492 -0.0786 0.9653
vn -0.9674 0.0424 0.2497
vn -0.7311 0.6557 0.1887
vn 0.8495 0.4799 -0.2193
vn 0.2136 0.5195 0.8274
vn -0.1944 0.6282 -0.7533
vt 0.000000 0.000000
s 1
f 16/1/1 14/1/1 13/1/1
f 4/1/2 12/1/2 1/1/2
f 3/1/3 9/1/3 4/1/3
f 12/1/4 2/1/4 1/1/4
f 11/1/5 3/1/5 2/1/5
f 13/1/6 7/1/6 6/1/6
f 16/1/7 8/1/7 15/1/7
f 16/1/8 6/1/8 5/1/8
f 15/1/9 7/1/9 14/1/9
f 29/1/1 31/1/1 30/1/1
f 25/1/10 17/1/10 20/1/10
f 26/1/11 20/1/11 19/1/11
f 17/1/12 27/1/12 18/1/12
f 18/1/13 26/1/13 19/1/13
f 30/1/14 22/1/14 29/1/14
f 31/1/15 21/1/15 24/1/15
f 29/1/16 21/1/16 32/1/16
f 30/1/17 24/1/17 23/1/17
f 48/1/1 46/1/1 45/1/1
f 41/1/18 33/1/18 36/1/18
f 42/1/19 36/1/19 35/1/19
f 33/1/20 43/1/20 34/1/20
f 34/1/21 42/1/21 35/1/21
f 45/1/22 39/1/22 38/1/22
f 48/1/23 40/1/23 47/1/23
f 45/1/24 37/1/24 48/1/24
f 46/1/25 40/1/25 39/1/25
f 64/1/1 62/1/1 61/1/1
f 52/1/26 60/1/26 49/1/26
f 58/1/27 52/1/27 51/1/27
f 49/1/28 59/1/28 50/1/28
f 59/1/29 51/1/29 50/1/29
f 61/1/30 55/1/30 54/1/30
f 64/1/31 56/1/31 63/1/31
f 64/1/32 54/1/32 53/1/32
f 63/1/33 55/1/33 62/1/33
f 80/1/1 78/1/1 77/1/1
f 73/1/34 65/1/34 68/1/34
f 74/1/35 68/1/35 67/1/35
f 65/1/36 75/1/36 66/1/36
f 66/1/37 74/1/37 67/1/37
f 78/1/38 70/1/38 77/1/38
f 79/1/39 69/1/39 72/1/39
f 77/1/40 69/1/40 80/1/40
f 78/1/41 72/1/41 71/1/41
f 16/1/1 15/1/1 14/1/1
f 4/1/2 9/1/2 12/1/2
f 3/1/3 10/1/3 9/1/3
f 12/1/4 11/1/4 2/1/4
f 11/1/5 10/1/5 3/1/5
f 13/1/6 14/1/6 7/1/6
f 16/1/7 5/1/7 8/1/7
f 16/1/8 13/1/8 6/1/8
f 15/1/9 8/1/9 7/1/9
f 29/1/1 32/1/1 31/1/1
f 25/1/10 28/1/10 17/1/10
f 26/1/11 25/1/11 20/1/11
f 17/1/12 28/1/12 27/1/12
f 18/1/13 27/1/13 26/1/13
f 30/1/14 23/1/14 22/1/14
f 31/1/15 32/1/15 21/1/15
f 29/1/16 22/1/16 21/1/16
f 30/1/17 31/1/17 24/1/17
f 48/1/1 47/1/1 46/1/1
f 41/1/18 44/1/18 33/1/18
f 42/1/19 41/1/19 36/1/19
f 33/1/20 44/1/20 43/1/20
f 34/1/21 43/1/21 42/1/21
f 45/1/22 46/1/22 39/1/22
f 48/1/23 37/1/23 40/1/23
f 45/1/24 38/1/24 37/1/24
f 46/1/25 47/1/25 40/1/25
f 64/1/1 63/1/1 62/1/1
f 52/1/26 57/1/26 60/1/26
f 58/1/27 57/1/27 52/1/27
f 49/1/28 60/1/28 59/1/28
f 59/1/29 58/1/29 51/1/29
f 61/1/30 62/1/30 55/1/30
f 64/1/31 53/1/31 56/1/31
f 64/1/32 61/1/32 54/1/32
f 63/1/33 56/1/33 55/1/33
f 80/1/1 79/1/1 78/1/1
f 73/1/34 76/1/34 65/1/34
f 74/1/35 73/1/35 68/1/35
f 65/1/36 76/1/36 75/1/36
f 66/1/37 75/1/37 74/1/37
f 78/1/38 71/1/38 70/1/38
f 79/1/39 80/1/39 69/1/39
f 77/1/40 70/1/40 69/1/40
f 78/1/41 79/1/41 72/1/41
