# Blender 4.5.3 LTS
# www.blender.org
o ground.004
v 0.354190 0.000000 0.189462
v 0.327513 0.539423 0.222986
v 0.366094 0.000000 0.227211
v 0.339417 0.539423 0.260735
v 0.328346 0.000000 0.239115
v 0.301668 0.539423 0.272639
v 0.316441 0.000000 0.201366
v 0.289764 0.539423 0.234890
v 0.322866 0.443120 0.242462
v 0.356789 0.496185 0.322199
v 0.257259 0.496185 0.305549
v 0.242337 0.496185 0.205744
v 0.332647 0.496185 0.160713
v 0.403381 0.496185 0.232687
v 0.296329 0.582971 0.335033
v 0.225595 0.582971 0.263059
v 0.272187 0.582971 0.173546
v 0.371717 0.582971 0.190197
v 0.386639 0.582971 0.290002
v 0.305321 0.637252 0.253781
v 0.080716 0.000000 -0.111142
v 0.063952 0.478088 -0.069407
v 0.107082 0.000000 -0.133211
v 0.090317 0.478088 -0.091476
v 0.129151 0.000000 -0.106846
v 0.112386 0.478088 -0.065110
v 0.102785 0.000000 -0.084777
v 0.086021 0.478088 -0.043042
v 0.092483 0.394624 -0.073609
v 0.139213 0.440789 -0.126253
v 0.158829 0.440789 -0.040816
v 0.083635 0.440789 0.004243
v 0.017547 0.440789 -0.053349
v 0.051897 0.440789 -0.133999
v 0.158573 0.515373 -0.081271
v 0.124223 0.515373 -0.000622
v 0.036906 0.515373 -0.008368
v 0.017290 0.515373 -0.093805
v 0.092485 0.515373 -0.138863
v 0.082777 0.561515 -0.061403
v -0.198756 0.000000 0.410115
v -0.217378 0.581080 0.463946
v -0.237353 0.000000 0.425117
v -0.255975 0.581080 0.478949
v -0.252355 0.000000 0.386520
v -0.270978 0.581080 0.440352
v -0.213758 0.000000 0.371518
v -0.232381 0.581080 0.425349
v -0.242387 0.482510 0.445300
v -0.320814 0.537197 0.494478
v -0.310221 0.537197 0.389435
v -0.207044 0.537197 0.367048
v -0.153872 0.537197 0.458258
v -0.224186 0.537197 0.537013
v -0.334878 0.624800 0.445861
v -0.264564 0.624800 0.367106
v -0.167936 0.624800 0.409641
v -0.178529 0.624800 0.514685
v -0.281705 0.624800 0.537071
v -0.247878 0.678901 0.458175
v 0.347062 0.000000 -0.471630
v 0.324418 0.482544 -0.442732
v 0.375318 0.000000 -0.493301
v 0.352673 0.482544 -0.464403
v 0.396989 0.000000 -0.465045
v 0.374344 0.482544 -0.436147
v 0.368733 0.000000 -0.443374
v 0.346089 0.482544 -0.414476
v 0.356198 0.396606 -0.443933
v 0.405795 0.443985 -0.497466
v 0.422319 0.443985 -0.408197
v 0.342525 0.443985 -0.364894
v 0.276685 0.443985 -0.427404
v 0.315789 0.443985 -0.509337
v 0.421816 0.521340 -0.451426
v 0.382712 0.521340 -0.369493
v 0.292706 0.521340 -0.381364
v 0.276182 0.521340 -0.470633
v 0.355977 0.521340 -0.513936
v 0.341297 0.569657 -0.434692
v -0.198899 0.000000 -0.408142
v -0.216936 0.557441 -0.355884
v -0.222703 0.000000 -0.376416
v -0.240740 0.557441 -0.324159
v -0.254429 0.000000 -0.400220
v -0.272466 0.557441 -0.347962
v -0.230625 0.000000 -0.431946
v -0.248662 0.557441 -0.379688
v -0.243226 0.462672 -0.358760
v -0.284171 0.515271 -0.278786
v -0.328689 0.515271 -0.369581
v -0.256096 0.515271 -0.439978
v -0.166712 0.515271 -0.392689
v -0.184065 0.515271 -0.293068
v -0.322984 0.599378 -0.311364
v -0.305632 0.599378 -0.410986
v -0.205525 0.599378 -0.425267
v -0.161007 0.599378 -0.334473
v -0.233601 0.599378 -0.264076
v -0.247616 0.651123 -0.346062
vn 0.9516 0.0657 -0.3001
vn 0.3005 -0.0444 0.9528
vn -0.9516 -0.0657 0.3001
vn -0.3005 0.0444 -0.9528
vn -0.0970 -0.8091 0.5797
vn 0.5512 -0.7835 0.2869
vn -0.5752 -0.8135 0.0860
vn -0.2725 -0.7918 -0.5466
vn 0.4541 -0.7712 -0.4463
vn 0.8792 -0.1326 0.4576
vn -0.1597 -0.2524 0.9544
vn -0.9503 -0.2771 0.1421
vn -0.4393 -0.1758 -0.8810
vn 0.7108 -0.0827 -0.6985
vn 0.4393 0.1758 0.8810
vn -0.7108 0.0827 0.6985
vn -0.8792 0.1326 -0.4576
vn 0.1597 0.2524 -0.9544
vn 0.9503 0.2771 -0.1421
vn 0.2766 0.7846 0.5548
vn -0.4640 0.7594 0.4560
vn -0.5612 0.7744 -0.2921
vn 0.0979 0.8051 -0.5851
vn 0.5795 0.8103 -0.0866
vn -0.6412 0.0444 -0.7661
vn 0.7642 0.0826 -0.6397
vn 0.6412 -0.0444 0.7661
vn -0.7642 -0.0826 0.6397
vn 0.6113 -0.7788 -0.1404
vn 0.0559 -0.7747 -0.6298
vn 0.3062 -0.8031 0.5111
vn -0.3824 -0.8132 0.4388
vn -0.5552 -0.7974 -0.2365
vn 0.0878 -0.1123 -0.9898
vn 0.9679 -0.1172 -0.2222
vn 0.5016 -0.2184 0.8371
vn -0.6320 -0.2733 0.7252
vn -0.8993 -0.2109 -0.3830
vn 0.6320 0.2733 -0.7252
vn 0.8993 0.2109 0.3830
vn -0.0878 0.1123 0.9898
vn -0.9679 0.1172 0.2222
vn -0.5016 0.2184 -0.8371
vn 0.3812 0.8145 -0.4374
vn 0.5496 0.8020 0.2341
vn -0.0557 0.7766 0.6275
vn -0.6160 0.7749 0.1414
vn -0.3086 0.7997 -0.5150
vn 0.3613 -0.0745 0.9295
vn -0.9302 -0.0633 0.3616
vn -0.3613 0.0745 -0.9295
vn 0.9302 0.0633 -0.3616
vn -0.5960 -0.8007 -0.0601
vn -0.2341 -0.8139 0.5318
vn -0.1317 -0.7836 -0.6071
vn 0.5321 -0.7878 -0.3102
vn 0.4408 -0.8067 0.3936
vn -0.3894 -0.2563 0.8847
vn -0.9726 -0.2106 -0.0981
vn -0.2100 -0.1373 -0.9680
vn 0.8555 -0.1394 -0.4987
vn 0.7287 -0.2140 0.6506
vn -0.8555 0.1394 0.4987
vn -0.7287 0.2140 -0.6506
vn 0.3894 0.2563 -0.8847
vn 0.9726 0.2106 0.0981
vn 0.2100 0.1373 0.9680
vn -0.5333 0.7868 0.3109
vn -0.4438 0.8038 -0.3962
vn 0.2324 0.8169 -0.5279
vn 0.5838 0.8098 0.0589
vn 0.1297 0.7909 0.5980
vn -0.6085 0.0190 -0.7934
vn 0.7913 0.0735 -0.6069
vn 0.6085 -0.0190 0.7934
vn -0.7913 -0.0735 0.6069
vn 0.6188 -0.7772 -0.1145
vn 0.0814 -0.7826 -0.6172
vn 0.2868 -0.7990 0.5286
vn -0.3986 -0.8154 0.4198
vn -0.5335 -0.8065 -0.2546
vn 0.1297 -0.1259 -0.9835
vn 0.9789 -0.0949 -0.1812
vn 0.4681 -0.1919 0.8626
vn -0.6615 -0.2777 0.6967
vn -0.8762 -0.2394 -0.4182
vn 0.6615 0.2777 -0.6967
vn 0.8762 0.2394 0.4182
vn -0.1297 0.1259 0.9835
vn -0.9789 0.0949 0.1812
vn -0.4681 0.1919 -0.8626
vn 0.4005 0.8135 -0.4218
vn 0.5359 0.8046 0.2558
vn -0.0827 0.7749 0.6267
vn -0.6327 0.7655 0.1171
vn -0.2913 0.7919 -0.5368
vn 0.7995 -0.0304 0.5999
vn -0.5975 -0.0940 0.7963
vn -0.7995 0.0304 -0.5999
vn 0.5975 0.0940 -0.7963
vn -0.5298 -0.8074 0.2598
vn 0.0823 -0.8128 0.5767
vn -0.4288 -0.7878 -0.4422
vn 0.2921 -0.7810 -0.5521
vn 0.5942 -0.7976 0.1035
vn 0.1368 -0.2499 0.9586
vn -0.8723 -0.2369 0.4277
vn -0.6871 -0.1604 -0.7086
vn 0.4639 -0.1256 -0.8769
vn 0.9686 -0.1825 0.1687
vn -0.4639 0.1256 0.8769
vn -0.9686 0.1825 -0.1687
vn -0.1368 0.2499 -0.9586
vn 0.8723 0.2369 -0.4277
vn 0.6871 0.1604 0.7086
vn -0.2888 0.7866 0.5458
vn -0.5949 0.7971 -0.1036
vn -0.0821 0.8138 -0.5753
vn 0.5208 0.8146 -0.2554
vn 0.4192 0.7984 0.4323
vt 1.000000 1.000000
vt 0.750000 0.500000
vt 1.000000 0.500000
vt 0.750000 1.000000
vt 0.500000 0.500000
vt 0.250000 1.000000
vt 0.250000 0.500000
vt 0.000000 1.000000
vt 0.000000 0.500000
vt 0.181819 0.000000
vt 0.272728 0.157461
vt 0.090910 0.157461
vt 0.363637 0.000000
vt 0.454546 0.157461
vt 0.909091 0.000000
vt 1.000000 0.157461
vt 0.818182 0.157461
vt 0.727273 0.000000
vt 0.636364 0.157461
vt 0.545455 0.000000
vt 0.363637 0.314921
vt 0.181819 0.314921
vt 0.909091 0.314921
vt 0.727273 0.314921
vt 0.545455 0.314921
vt 0.000000 0.314921
vt 0.272728 0.472382
vt 0.090910 0.472382
vt 0.818182 0.472382
vt 0.636364 0.472382
vt 0.454546 0.472382
vt 0.500000 1.000000
s 1
f 2/1/1 3/2/1 1/3/1
f 4/4/2 5/5/2 3/2/2
f 5/5/3 8/6/3 7/7/3
f 7/7/4 2/8/4 1/9/4
f 9/10/5 10/11/5 11/12/5
f 10/11/6 9/13/6 14/14/6
f 9/15/7 11/16/7 12/17/7
f 9/18/8 12/17/8 13/19/8
f 9/20/9 13/19/9 14/14/9
f 10/11/10 14/14/10 19/21/10
f 11/12/11 10/11/11 15/22/11
f 12/17/12 11/16/12 16/23/12
f 13/19/13 12/17/13 17/24/13
f 14/14/14 13/19/14 18/25/14
f 10/11/15 19/21/15 15/22/15
f 11/12/16 15/22/16 16/26/16
f 12/17/17 16/23/17 17/24/17
f 13/19/18 17/24/18 18/25/18
f 14/14/19 18/25/19 19/21/19
f 15/22/20 19/21/20 20/27/20
f 16/26/21 15/22/21 20/28/21
f 17/24/22 16/23/22 20/29/22
f 18/25/23 17/24/23 20/30/23
f 19/21/24 18/25/24 20/31/24
f 21/3/25 24/4/25 23/2/25
f 24/4/26 25/5/26 23/2/26
f 26/32/27 27/7/27 25/5/27
f 27/7/28 22/8/28 21/9/28
f 29/10/29 30/11/29 31/12/29
f 30/11/30 29/13/30 34/14/30
f 29/15/31 31/16/31 32/17/31
f 29/18/32 32/17/32 33/19/32
f 29/20/33 33/19/33 34/14/33
f 30/11/34 34/14/34 39/21/34
f 31/12/35 30/11/35 35/22/35
f 32/17/36 31/16/36 36/23/36
f 33/19/37 32/17/37 37/24/37
f 34/14/38 33/19/38 38/25/38
f 30/11/39 39/21/39 35/22/39
f 31/12/40 35/22/40 36/26/40
f 32/17/41 36/23/41 37/24/41
f 33/19/42 37/24/42 38/25/42
f 34/14/43 38/25/43 39/21/43
f 35/22/44 39/21/44 40/27/44
f 36/26/45 35/22/45 40/28/45
f 37/24/46 36/23/46 40/29/46
f 38/25/47 37/24/47 40/30/47
f 39/21/48 38/25/48 40/31/48
f 42/1/49 43/2/49 41/3/49
f 43/2/50 46/32/50 45/5/50
f 45/5/51 48/6/51 47/7/51
f 48/6/52 41/9/52 47/7/52
f 49/10/53 50/11/53 51/12/53
f 50/11/54 49/13/54 54/14/54
f 49/15/55 51/16/55 52/17/55
f 49/18/56 52/17/56 53/19/56
f 49/20/57 53/19/57 54/14/57
f 50/11/58 54/14/58 59/21/58
f 51/12/59 50/11/59 55/22/59
f 52/17/60 51/16/60 56/23/60
f 53/19/61 52/17/61 57/24/61
f 54/14/62 53/19/62 58/25/62
f 50/11/63 59/21/63 55/22/63
f 51/12/64 55/22/64 56/26/64
f 52/17/65 56/23/65 57/24/65
f 53/19/66 57/24/66 58/25/66
f 54/14/67 58/25/67 59/21/67
f 55/22/68 59/21/68 60/27/68
f 56/26/69 55/22/69 60/28/69
f 57/24/70 56/23/70 60/29/70
f 58/25/71 57/24/71 60/30/71
f 59/21/72 58/25/72 60/31/72
f 61/3/73 64/4/73 63/2/73
f 64/4/74 65/5/74 63/2/74
f 66/32/75 67/7/75 65/5/75
f 67/7/76 62/8/76 61/9/76
f 69/10/77 70/11/77 71/12/77
f 70/11/78 69/13/78 74/14/78
f 69/15/79 71/16/79 72/17/79
f 69/18/80 72/17/80 73/19/80
f 69/20/81 73/19/81 74/14/81
f 70/11/82 74/14/82 79/21/82
f 71/12/83 70/11/83 75/22/83
f 72/17/84 71/16/84 76/23/84
f 73/19/85 72/17/85 77/24/85
f 74/14/86 73/19/86 78/25/86
f 70/11/87 79/21/87 75/22/87
f 71/12/88 75/22/88 76/26/88
f 72/17/89 76/23/89 77/24/89
f 73/19/90 77/24/90 78/25/90
f 74/14/91 78/25/91 79/21/91
f 75/22/92 79/21/92 80/27/92
f 76/26/93 75/22/93 80/28/93
f 77/24/94 76/23/94 80/29/94
f 78/25/95 77/24/95 80/30/95
f 79/21/96 78/25/96 80/31/96
f 82/1/97 83/2/97 81/3/97
f 83/2/98 86/32/98 85/5/98
f 85/5/99 88/6/99 87/7/99
f 88/6/100 81/9/100 87/7/100
f 89/10/101 90/11/101 91/12/101
f 90/11/102 89/13/102 94/14/102
f 89/15/103 91/16/103 92/17/103
f 89/18/104 92/17/104 93/19/104
f 89/20/105 93/19/105 94/14/105
f 90/11/106 94/14/106 99/21/106
f 91/12/107 90/11/107 95/22/107
f 92/17/108 91/16/108 96/23/108
f 93/19/109 92/17/109 97/24/109
f 94/14/110 93/19/110 98/25/110
f 90/11/111 99/21/111 95/22/111
f 91/12/112 95/22/112 96/26/112
f 92/17/113 96/23/113 97/24/113
f 93/19/114 97/24/114 98/25/114
f 94/14/115 98/25/115 99/21/115
f 95/22/116 99/21/116 100/27/116
f 96/26/117 95/22/117 100/28/117
f 97/24/118 96/23/118 100/29/118
f 98/25/119 97/24/119 100/30/119
f 99/21/120 98/25/120 100/31/120
f 2/1/1 4/4/1 3/2/1
f 4/4/2 6/32/2 5/5/2
f 5/5/3 6/32/3 8/6/3
f 7/7/4 8/6/4 2/8/4
f 21/3/25 22/1/25 24/4/25
f 24/4/26 26/32/26 25/5/26
f 26/32/27 28/6/27 27/7/27
f 27/7/28 28/6/28 22/8/28
f 42/1/49 44/4/49 43/2/49
f 43/2/50 44/4/50 46/32/50
f 45/5/51 46/32/51 48/6/51
f 48/6/52 42/8/52 41/9/52
f 61/3/73 62/1/73 64/4/73
f 64/4/74 66/32/74 65/5/74
f 66/32/75 68/6/75 67/7/75
f 67/7/76 68/6/76 62/8/76
f 82/1/97 84/4/97 83/2/97
f 83/2/98 84/4/98 86/32/98
f 85/5/99 86/32/99 88/6/99
f 88/6/100 82/8/100 81/9/100
