# Blender 4.5.3 LTS
# www.blender.org
o ground.003
v 0.138321 0.000000 0.264158
v 0.165380 0.341098 0.282320
v 0.121790 0.000000 0.281373
v 0.148849 0.341098 0.299536
v 0.104575 0.000000 0.264842
v 0.131634 0.341098 0.283005
v 0.121105 0.000000 0.247627
v 0.148165 0.341098 0.265790
v 0.141745 0.282048 0.279999
v 0.115767 0.314752 0.323985
v 0.095793 0.314752 0.266508
v 0.144286 0.314752 0.229749
v 0.194229 0.314752 0.264510
v 0.176604 0.314752 0.322751
v 0.103030 0.367339 0.300777
v 0.120655 0.367339 0.242537
v 0.181492 0.367339 0.241302
v 0.201466 0.367339 0.298780
v 0.152973 0.367339 0.335538
v 0.156485 0.399606 0.285134
v 0.404641 0.000000 -0.155497
v 0.433735 0.384240 -0.150487
v 0.427720 0.000000 -0.169178
v 0.456814 0.384240 -0.164168
v 0.441401 0.000000 -0.146100
v 0.470494 0.384240 -0.141089
v 0.418322 0.000000 -0.132419
v 0.447416 0.384240 -0.127409
v 0.445424 0.317220 -0.146173
v 0.493839 0.354326 -0.183067
v 0.498205 0.354326 -0.114807
v 0.434634 0.354326 -0.089560
v 0.390980 0.354326 -0.142219
v 0.427571 0.354326 -0.200009
v 0.513358 0.414029 -0.149403
v 0.476767 0.414029 -0.091613
v 0.410499 0.414029 -0.108555
v 0.406133 0.414029 -0.176815
v 0.469704 0.414029 -0.202062
v 0.459340 0.450611 -0.145643
v 0.128502 0.000000 -0.421862
v 0.156538 0.348639 -0.403088
v 0.122839 0.000000 -0.398137
v 0.150875 0.348639 -0.379363
v 0.099113 0.000000 -0.403800
v 0.127150 0.348639 -0.385027
v 0.104777 0.000000 -0.427525
v 0.132813 0.348639 -0.408752
v 0.134764 0.288339 -0.396803
v 0.134439 0.321738 -0.342514
v 0.087099 0.321738 -0.382840
v 0.110822 0.321738 -0.440325
v 0.172825 0.321738 -0.435525
v 0.187420 0.321738 -0.375075
v 0.111124 0.375427 -0.352626
v 0.096528 0.375427 -0.413077
v 0.149509 0.375427 -0.445638
v 0.196849 0.375427 -0.405312
v 0.173126 0.375427 -0.347827
v 0.150213 0.408351 -0.391503
v -0.150775 0.000000 -0.219762
v -0.126564 0.325300 -0.195732
v -0.172544 0.000000 -0.224301
v -0.148333 0.325300 -0.200271
v -0.168006 0.000000 -0.246070
v -0.143794 0.325300 -0.222040
v -0.146237 0.000000 -0.241531
v -0.122025 0.325300 -0.217501
v -0.141724 0.269201 -0.212712
v -0.186449 0.300265 -0.212907
v -0.150942 0.300265 -0.257105
v -0.097934 0.300265 -0.236994
v -0.100682 0.300265 -0.180366
v -0.155387 0.300265 -0.165480
v -0.169385 0.350245 -0.237448
v -0.114680 0.350245 -0.252334
v -0.083618 0.350245 -0.204907
v -0.119125 0.350245 -0.160709
v -0.172133 0.350245 -0.180820
v -0.127188 0.380942 -0.205272
v -0.117208 0.000000 0.488811
v -0.087552 0.363294 0.515064
v -0.142073 0.000000 0.490771
v -0.112417 0.363294 0.517025
v -0.144034 0.000000 0.465906
v -0.114378 0.363294 0.492160
v -0.119169 0.000000 0.463945
v -0.089512 0.363294 0.490199
v -0.109212 0.300817 0.499544
v -0.157470 0.335427 0.514462
v -0.133144 0.335427 0.455707
v -0.069748 0.335427 0.460686
v -0.054894 0.335427 0.522519
v -0.109109 0.335427 0.555753
v -0.146675 0.391026 0.484652
v -0.092459 0.391026 0.451418
v -0.044098 0.391026 0.492709
v -0.068424 0.391026 0.551463
v -0.131821 0.391026 0.546484
v -0.090930 0.425063 0.507409
v -0.508435 0.000000 -0.059653
v -0.472295 0.433452 -0.032739
v -0.479702 0.000000 -0.054345
v -0.443562 0.433452 -0.027431
v -0.485009 0.000000 -0.025612
v -0.448869 0.433452 0.001302
v -0.513743 0.000000 -0.030919
v -0.477602 0.433452 -0.004006
v -0.472603 0.358942 -0.020155
v -0.402945 0.400253 -0.016010
v -0.448259 0.400253 0.043118
v -0.518497 0.400253 0.018294
v -0.516591 0.400253 -0.056178
v -0.445176 0.400253 -0.077378
v -0.404075 0.466379 0.024585
v -0.475490 0.466379 0.045785
v -0.517721 0.466379 -0.015583
v -0.472406 0.466379 -0.074711
v -0.402168 0.466379 -0.049887
v -0.446100 0.506637 -0.012050
v 0.471160 0.000000 0.277689
v 0.500240 0.388442 0.280988
v 0.446867 0.000000 0.289605
v 0.475947 0.388442 0.292903
v 0.434952 0.000000 0.265312
v 0.464032 0.388442 0.268610
v 0.459245 0.000000 0.253396
v 0.488325 0.388442 0.256695
v 0.475509 0.320654 0.274686
v 0.431111 0.358184 0.308541
v 0.432161 0.358184 0.239565
v 0.498087 0.358184 0.219249
v 0.537780 0.358184 0.275670
v 0.496386 0.358184 0.330855
v 0.426583 0.418569 0.273878
v 0.467976 0.418569 0.218693
v 0.533252 0.418569 0.241007
v 0.532201 0.418569 0.309984
v 0.466275 0.418569 0.330300
v 0.489208 0.455554 0.274658
v -0.398104 0.000000 -0.506758
v -0.366812 0.390518 -0.480343
v -0.372225 0.000000 -0.512218
v -0.340934 0.390518 -0.485803
v -0.366766 0.000000 -0.486339
v -0.335474 0.390518 -0.459924
v -0.392644 0.000000 -0.480880
v -0.361352 0.390518 -0.454465
v -0.361222 0.323297 -0.474441
v -0.302374 0.360529 -0.492492
v -0.319924 0.360529 -0.427387
v -0.387267 0.360529 -0.423959
v -0.411336 0.360529 -0.486947
v -0.358868 0.360529 -0.529302
v -0.290473 0.420339 -0.453420
v -0.342940 0.420339 -0.411065
v -0.399435 0.420339 -0.447875
v -0.381884 0.420339 -0.512980
v -0.314541 0.420339 -0.516408
v -0.338702 0.456905 -0.466319
v -0.499874 0.000000 0.358184
v -0.484044 0.292846 0.376426
v -0.513491 0.000000 0.344078
v -0.497661 0.292846 0.362320
v -0.499385 0.000000 0.330461
v -0.483555 0.292846 0.348702
v -0.485767 0.000000 0.344567
v -0.469938 0.292846 0.362809
v -0.488650 0.242159 0.359321
v -0.520071 0.270205 0.335521
v -0.472265 0.270205 0.320915
v -0.443600 0.270205 0.361868
v -0.473691 0.270205 0.401784
v -0.520953 0.270205 0.385501
v -0.493660 0.315446 0.323338
v -0.446398 0.315446 0.339621
v -0.447280 0.315446 0.389601
v -0.495086 0.315446 0.404207
v -0.523751 0.315446 0.363254
v -0.477714 0.343324 0.365774
v -0.217436 0.000000 0.140689
v -0.194165 0.321388 0.164557
v -0.195674 0.000000 0.143124
v -0.172403 0.321388 0.166992
v -0.198109 0.000000 0.164886
v -0.174838 0.321388 0.188754
v -0.219871 0.000000 0.162451
v -0.196600 0.321388 0.186319
v -0.190938 0.265941 0.172806
v -0.140114 0.296640 0.172792
v -0.170835 0.296640 0.219409
v -0.224664 0.296640 0.204598
v -0.227211 0.296640 0.148826
v -0.174956 0.296640 0.129170
v -0.141495 0.346052 0.204446
v -0.193750 0.346052 0.224102
v -0.228591 0.346052 0.180480
v -0.197871 0.346052 0.133863
v -0.144041 0.346052 0.148674
v -0.176587 0.376414 0.180302
vn 0.7181 -0.0937 0.6896
vn -0.6925 0.0165 0.7212
vn -0.7181 0.0937 -0.6896
vn 0.6925 -0.0165 -0.7212
vn -0.6072 -0.7661 0.2110
vn 0.0122 -0.7990 0.6012
vn -0.3910 -0.7622 -0.5158
vn 0.3474 -0.7939 -0.4991
vn 0.5566 -0.8135 0.1685
vn 0.0198 -0.2278 0.9735
vn -0.9413 -0.0836 0.3271
vn -0.6023 -0.0774 -0.7945
vn 0.5575 -0.2184 -0.8009
vn 0.9115 -0.3052 0.2758
vn -0.5575 0.2184 0.8009
vn -0.9115 0.3052 -0.2758
vn -0.0198 0.2278 -0.9735
vn 0.9413 0.0836 -0.3271
vn 0.6023 0.0774 0.7945
vn -0.3410 0.8023 0.4899
vn -0.5446 0.8223 -0.1648
vn -0.0121 0.8019 -0.5973
vn 0.6113 0.7623 -0.2124
vn 0.3907 0.7627 0.5155
vn -0.5093 0.0498 -0.8591
vn 0.8587 -0.0584 -0.5091
vn 0.5093 -0.0498 0.8591
vn -0.8587 0.0584 0.5091
vn 0.5896 -0.8068 -0.0377
vn 0.1520 -0.7895 -0.5946
vn 0.2239 -0.7950 0.5637
vn -0.4934 -0.7676 0.4091
vn -0.5455 -0.7636 -0.3454
vn 0.2425 -0.2037 -0.9485
vn 0.9584 -0.2788 -0.0613
vn 0.3598 -0.2228 0.9060
vn -0.7654 -0.1075 0.6345
vn -0.8410 -0.0951 -0.5325
vn 0.7654 0.1075 -0.6345
vn 0.8410 0.0951 0.5325
vn -0.2425 0.2037 0.9485
vn -0.9584 0.2788 0.0613
vn -0.3598 0.2228 -0.9060
vn 0.4923 0.7689 -0.4081
vn 0.5429 0.7663 0.3437
vn -0.1501 0.7955 0.5870
vn -0.5808 0.8132 0.0372
vn -0.2219 0.7990 -0.5588
vn 0.9687 -0.0904 0.2312
vn -0.2321 -0.0337 0.9721
vn -0.9687 0.0904 -0.2312
vn 0.2321 0.0337 -0.9721
vn -0.4063 -0.7793 0.4770
vn 0.3073 -0.8097 0.5000
vn -0.6036 -0.7573 -0.2491
vn 0.0484 -0.7794 -0.6247
vn 0.5704 -0.8097 -0.1377
vn 0.5025 -0.2812 0.8176
vn -0.6423 -0.1369 0.7541
vn -0.9231 -0.0524 -0.3809
vn 0.0763 -0.1525 -0.9854
vn 0.9303 -0.2899 -0.2246
vn -0.0763 0.1525 0.9854
vn -0.9303 0.2899 0.2246
vn -0.5025 0.2812 -0.8176
vn 0.6423 0.1369 -0.7541
vn 0.9231 0.0524 0.3809
vn -0.0478 0.7854 0.6171
vn -0.5568 0.8197 0.1344
vn -0.3026 0.8161 -0.4924
vn 0.4075 0.7779 -0.4784
vn 0.6068 0.7544 0.2504
vn -0.2038 -0.0570 0.9774
vn -0.9752 0.0876 -0.2033
vn 0.2038 0.0570 -0.9774
vn 0.9752 -0.0876 0.2033
vn -0.5176 -0.7478 -0.4158
vn -0.5353 -0.7685 0.3506
vn 0.2237 -0.7761 -0.5896
vn 0.5888 -0.8077 0.0286
vn 0.1562 -0.8039 0.5739
vn -0.8313 -0.1114 0.5445
vn -0.7789 -0.0413 -0.6258
vn 0.3498 -0.1658 -0.9220
vn 0.9521 -0.3024 0.0462
vn 0.2527 -0.2720 0.9285
vn -0.9521 0.3024 -0.0462
vn -0.2527 0.2720 -0.9285
vn 0.8313 0.1114 -0.5445
vn 0.7789 0.0413 0.6258
vn -0.3498 0.1658 0.9220
vn -0.5741 0.8183 -0.0279
vn -0.1546 0.8082 -0.5683
vn 0.5406 0.7631 -0.3541
vn 0.5208 0.7442 0.4184
vn -0.2201 0.7843 0.5801
vn 0.0784 -0.0782 0.9939
vn -0.9941 0.0755 0.0784
vn -0.0784 0.0782 -0.9939
vn 0.9941 -0.0755 -0.0784
vn -0.6143 -0.7469 -0.2543
vn -0.4090 -0.7767 0.4790
vn 0.0499 -0.7705 -0.6355
vn 0.5730 -0.8079 -0.1377
vn 0.3058 -0.8110 0.4988
vn -0.6432 -0.1372 0.7533
vn -0.9236 -0.0257 -0.3824
vn 0.0776 -0.1330 -0.9881
vn 0.9277 -0.2996 -0.2229
vn 0.4982 -0.3019 0.8128
vn -0.9277 0.2996 0.2229
vn -0.4982 0.3019 -0.8128
vn 0.6432 0.1372 -0.7533
vn 0.9236 0.0257 0.3824
vn -0.0776 0.1330 0.9881
vn -0.5556 0.8207 0.1335
vn -0.3001 0.8187 -0.4895
vn 0.4113 0.7739 -0.4817
vn 0.6196 0.7418 0.2565
vn -0.0492 0.7781 0.6263
vn 0.1815 0.0459 -0.9823
vn 0.9791 -0.0929 0.1809
vn -0.1815 -0.0459 0.9823
vn -0.9791 0.0929 -0.1809
vn 0.4615 -0.8136 0.3537
vn 0.4946 -0.7997 -0.3403
vn -0.2084 -0.7803 0.5897
vn -0.6769 -0.7359 -0.0173
vn -0.1878 -0.7515 -0.6325
vn 0.7890 -0.2874 -0.5430
vn 0.7468 -0.3386 0.5724
vn -0.3282 -0.1726 0.9287
vn -0.9997 -0.0014 -0.0256
vn -0.2837 -0.0783 -0.9557
vn 0.9997 0.0014 0.0256
vn 0.2837 0.0783 0.9557
vn -0.7890 0.2874 0.5430
vn -0.7468 0.3386 -0.5724
vn 0.3282 0.1726 -0.9287
vn 0.6837 0.7296 0.0175
vn 0.1849 0.7600 0.6230
vn -0.4753 0.8168 0.3271
vn -0.4474 0.8260 -0.3429
vn 0.2082 0.7808 -0.5891
vn 0.4400 -0.0406 0.8971
vn -0.8960 0.0633 0.4395
vn -0.4400 0.0406 -0.8971
vn 0.8960 -0.0633 -0.4395
vn -0.6499 -0.7599 -0.0099
vn -0.2034 -0.7775 0.5951
vn -0.1854 -0.7770 -0.6015
vn 0.4887 -0.8018 -0.3438
vn 0.4777 -0.8021 0.3584
vn -0.3198 -0.1508 0.9354
vn -0.9964 -0.0834 -0.0152
vn -0.2910 -0.1538 -0.9443
vn 0.7898 -0.2597 -0.5556
vn 0.7729 -0.2580 0.5797
vn -0.7898 0.2597 0.5556
vn -0.7729 0.2580 -0.5797
vn 0.3198 0.1508 -0.9354
vn 0.9964 0.0834 0.0152
vn 0.2910 0.1538 0.9443
vn -0.4816 0.8083 0.3388
vn -0.4723 0.8071 -0.3542
vn 0.2025 0.7799 -0.5922
vn 0.6475 0.7620 0.0099
vn 0.1835 0.7821 0.5955
vn -0.2057 0.0824 -0.9751
vn 0.9764 -0.0643 -0.2060
vn 0.2057 -0.0824 0.9751
vn -0.9764 0.0643 0.2060
vn 0.5612 -0.8137 0.1513
vn 0.3379 -0.7855 -0.5186
vn 0.0307 -0.7968 0.6035
vn -0.6168 -0.7510 0.2357
vn -0.4211 -0.7420 -0.5216
vn 0.5327 -0.2185 -0.8176
vn 0.9078 -0.3405 0.2447
vn 0.0493 -0.2453 0.9682
vn -0.9331 -0.0473 0.3565
vn -0.6279 -0.0294 -0.7778
vn 0.9331 0.0473 -0.3565
vn 0.6279 0.0294 0.7778
vn -0.5327 0.2185 0.8176
vn -0.9078 0.3405 -0.2447
vn -0.0493 0.2453 -0.9682
vn 0.6264 0.7418 -0.2394
vn 0.4219 0.7408 0.5226
vn -0.3282 0.7991 0.5037
vn -0.5425 0.8272 -0.1462
vn -0.0305 0.8002 -0.5989
vn -0.7195 -0.0044 0.6945
vn -0.6922 0.0821 -0.7170
vn 0.7195 0.0044 -0.6945
vn 0.6922 -0.0821 0.7170
vn -0.1928 -0.7514 -0.6310
vn -0.6609 -0.7504 -0.0117
vn 0.5083 -0.7842 -0.3558
vn 0.4782 -0.8009 0.3605
vn -0.2027 -0.7827 0.5884
vn -0.9974 -0.0704 -0.0176
vn -0.2911 -0.0866 -0.9528
vn 0.7982 -0.2253 -0.5587
vn 0.7640 -0.2909 0.5759
vn -0.3191 -0.2005 0.9263
vn -0.7640 0.2909 -0.5759
vn 0.3191 0.2005 -0.9263
vn 0.9974 0.0704 0.0176
vn 0.2911 0.0866 0.9528
vn -0.7982 0.2253 0.5587
vn -0.4701 0.8083 -0.3544
vn 0.2032 0.7816 -0.5898
vn 0.6704 0.7419 0.0118
vn 0.1930 0.7507 0.6318
vn -0.4992 0.7929 0.3494
vn 0.1110 0.0656 -0.9917
vn 0.9906 -0.0800 0.1109
vn -0.1110 -0.0656 0.9917
vn -0.9906 0.0800 -0.1109
vn 0.4895 -0.8102 0.3226
vn 0.4778 -0.7912 -0.3816
vn -0.1625 -0.7903 0.5907
vn -0.6572 -0.7531 0.0300
vn -0.2314 -0.7538 -0.6150
vn 0.7593 -0.2357 -0.6065
vn 0.7931 -0.3127 0.5227
vn -0.2594 -0.2098 0.9427
vn -0.9973 -0.0570 0.0455
vn -0.3511 -0.0742 -0.9334
vn 0.9973 0.0570 -0.0455
vn 0.3511 0.0742 0.9334
vn -0.7593 0.2357 0.6065
vn -0.7931 0.3127 -0.5227
vn 0.2594 0.2098 -0.9427
vn 0.6659 0.7454 -0.0304
vn 0.2309 0.7549 0.6138
vn -0.4669 0.8019 0.3729
vn -0.4792 0.8189 -0.3158
vn 0.1626 0.7900 -0.5911
vt 1.000000 0.500000
vt 0.750000 1.000000
vt 0.750000 0.500000
vt 0.500000 1.000000
vt 0.500000 0.500000
vt 0.250000 0.500000
vt 0.250000 1.000000
vt 0.000000 0.500000
vt 0.181819 0.000000
vt 0.272728 0.157461
vt 0.090910 0.157461
vt 0.363637 0.000000
vt 0.454546 0.157461
vt 0.909091 0.000000
vt 1.000000 0.157461
vt 0.818182 0.157461
vt 0.727273 0.000000
vt 0.636364 0.157461
vt 0.545455 0.000000
vt 0.363637 0.314921
vt 0.181819 0.314921
vt 0.909091 0.314921
vt 0.727273 0.314921
vt 0.545455 0.314921
vt 0.000000 0.314921
vt 0.272728 0.472382
vt 0.090910 0.472382
vt 0.818182 0.472382
vt 0.636364 0.472382
vt 0.454546 0.472382
vt 1.000000 1.000000
vt 0.000000 1.000000
s 1
f 1/1/1 4/2/1 3/3/1
f 3/3/2 6/4/2 5/5/2
f 6/4/3 7/6/3 5/5/3
f 8/7/4 1/8/4 7/6/4
f 9/9/5 10/10/5 11/11/5
f 10/10/6 9/12/6 14/13/6
f 9/14/7 11/15/7 12/16/7
f 9/17/8 12/16/8 13/18/8
f 9/19/9 13/18/9 14/13/9
f 10/10/10 14/13/10 19/20/10
f 11/11/11 10/10/11 15/21/11
f 12/16/12 11/15/12 16/22/12
f 13/18/13 12/16/13 17/23/13
f 14/13/14 13/18/14 18/24/14
f 10/10/15 19/20/15 15/21/15
f 11/11/16 15/21/16 16/25/16
f 12/16/17 16/22/17 17/23/17
f 13/18/18 17/23/18 18/24/18
f 14/13/19 18/24/19 19/20/19
f 15/21/20 19/20/20 20/26/20
f 16/25/21 15/21/21 20/27/21
f 17/23/22 16/22/22 20/28/22
f 18/24/23 17/23/23 20/29/23
f 19/20/24 18/24/24 20/30/24
f 22/31/25 23/3/25 21/1/25
f 24/2/26 25/5/26 23/3/26
f 25/5/27 28/7/27 27/6/27
f 27/6/28 22/32/28 21/8/28
f 29/9/29 30/10/29 31/11/29
f 30/10/30 29/12/30 34/13/30
f 29/14/31 31/15/31 32/16/31
f 29/17/32 32/16/32 33/18/32
f 29/19/33 33/18/33 34/13/33
f 30/10/34 34/13/34 39/20/34
f 31/11/35 30/10/35 35/21/35
f 32/16/36 31/15/36 36/22/36
f 33/18/37 32/16/37 37/23/37
f 34/13/38 33/18/38 38/24/38
f 30/10/39 39/20/39 35/21/39
f 31/11/40 35/21/40 36/25/40
f 32/16/41 36/22/41 37/23/41
f 33/18/42 37/23/42 38/24/42
f 34/13/43 38/24/43 39/20/43
f 35/21/44 39/20/44 40/26/44
f 36/25/45 35/21/45 40/27/45
f 37/23/46 36/22/46 40/28/46
f 38/24/47 37/23/47 40/29/47
f 39/20/48 38/24/48 40/30/48
f 42/31/49 43/3/49 41/1/49
f 43/3/50 46/4/50 45/5/50
f 45/5/51 48/7/51 47/6/51
f 48/7/52 41/8/52 47/6/52
f 49/9/53 50/10/53 51/11/53
f 50/10/54 49/12/54 54/13/54
f 49/14/55 51/15/55 52/16/55
f 49/17/56 52/16/56 53/18/56
f 49/19/57 53/18/57 54/13/57
f 50/10/58 54/13/58 59/20/58
f 51/11/59 50/10/59 55/21/59
f 52/16/60 51/15/60 56/22/60
f 53/18/61 52/16/61 57/23/61
f 54/13/62 53/18/62 58/24/62
f 50/10/63 59/20/63 55/21/63
f 51/11/64 55/21/64 56/25/64
f 52/16/65 56/22/65 57/23/65
f 53/18/66 57/23/66 58/24/66
f 54/13/67 58/24/67 59/20/67
f 55/21/68 59/20/68 60/26/68
f 56/25/69 55/21/69 60/27/69
f 57/23/70 56/22/70 60/28/70
f 58/24/71 57/23/71 60/29/71
f 59/20/72 58/24/72 60/30/72
f 61/1/73 64/2/73 63/3/73
f 63/3/74 66/4/74 65/5/74
f 66/4/75 67/6/75 65/5/75
f 68/7/76 61/8/76 67/6/76
f 69/9/77 70/10/77 71/11/77
f 70/10/78 69/12/78 74/13/78
f 69/14/79 71/15/79 72/16/79
f 69/17/80 72/16/80 73/18/80
f 69/19/81 73/18/81 74/13/81
f 70/10/82 74/13/82 79/20/82
f 71/11/83 70/10/83 75/21/83
f 72/16/84 71/15/84 76/22/84
f 73/18/85 72/16/85 77/23/85
f 74/13/86 73/18/86 78/24/86
f 70/10/87 79/20/87 75/21/87
f 71/11/88 75/21/88 76/25/88
f 72/16/89 76/22/89 77/23/89
f 73/18/90 77/23/90 78/24/90
f 74/13/91 78/24/91 79/20/91
f 75/21/92 79/20/92 80/26/92
f 76/25/93 75/21/93 80/27/93
f 77/23/94 76/22/94 80/28/94
f 78/24/95 77/23/95 80/29/95
f 79/20/96 78/24/96 80/30/96
f 81/1/97 84/2/97 83/3/97
f 83/3/98 86/4/98 85/5/98
f 86/4/99 87/6/99 85/5/99
f 88/7/100 81/8/100 87/6/100
f 89/9/101 90/10/101 91/11/101
f 90/10/102 89/12/102 94/13/102
f 89/14/103 91/15/103 92/16/103
f 89/17/104 92/16/104 93/18/104
f 89/19/105 93/18/105 94/13/105
f 90/10/106 94/13/106 99/20/106
f 91/11/107 90/10/107 95/21/107
f 92/16/108 91/15/108 96/22/108
f 93/18/109 92/16/109 97/23/109
f 94/13/110 93/18/110 98/24/110
f 90/10/111 99/20/111 95/21/111
f 91/11/112 95/21/112 96/25/112
f 92/16/113 96/22/113 97/23/113
f 93/18/114 97/23/114 98/24/114
f 94/13/115 98/24/115 99/20/115
f 95/21/116 99/20/116 100/26/116
f 96/25/117 95/21/117 100/27/117
f 97/23/118 96/22/118 100/28/118
f 98/24/119 97/23/119 100/29/119
f 99/20/120 98/24/120 100/30/120
f 102/31/121 103/3/121 101/1/121
f 104/2/122 105/5/122 103/3/122
f 105/5/123 108/7/123 107/6/123
f 107/6/124 102/32/124 101/8/124
f 109/9/125 110/10/125 111/11/125
f 110/10/126 109/12/126 114/13/126
f 109/14/127 111/15/127 112/16/127
f 109/17/128 112/16/128 113/18/128
f 109/19/129 113/18/129 114/13/129
f 110/10/130 114/13/130 119/20/130
f 111/11/131 110/10/131 115/21/131
f 112/16/132 111/15/132 116/22/132
f 113/18/133 112/16/133 117/23/133
f 114/13/134 113/18/134 118/24/134
f 110/10/135 119/20/135 115/21/135
f 111/11/136 115/21/136 116/25/136
f 112/16/137 116/22/137 117/23/137
f 113/18/138 117/23/138 118/24/138
f 114/13/139 118/24/139 119/20/139
f 115/21/140 119/20/140 120/26/140
f 116/25/141 115/21/141 120/27/141
f 117/23/142 116/22/142 120/28/142
f 118/24/143 117/23/143 120/29/143
f 119/20/144 118/24/144 120/30/144
f 121/1/145 124/2/145 123/3/145
f 123/3/146 126/4/146 125/5/146
f 126/4/147 127/6/147 125/5/147
f 128/7/148 121/8/148 127/6/148
f 129/9/149 130/10/149 131/11/149
f 130/10/150 129/12/150 134/13/150
f 129/14/151 131/15/151 132/16/151
f 129/17/152 132/16/152 133/18/152
f 129/19/153 133/18/153 134/13/153
f 130/10/154 134/13/154 139/20/154
f 131/11/155 130/10/155 135/21/155
f 132/16/156 131/15/156 136/22/156
f 133/18/157 132/16/157 137/23/157
f 134/13/158 133/18/158 138/24/158
f 130/10/159 139/20/159 135/21/159
f 131/11/160 135/21/160 136/25/160
f 132/16/161 136/22/161 137/23/161
f 133/18/162 137/23/162 138/24/162
f 134/13/163 138/24/163 139/20/163
f 135/21/164 139/20/164 140/26/164
f 136/25/165 135/21/165 140/27/165
f 137/23/166 136/22/166 140/28/166
f 138/24/167 137/23/167 140/29/167
f 139/20/168 138/24/168 140/30/168
f 142/31/169 143/3/169 141/1/169
f 144/2/170 145/5/170 143/3/170
f 145/5/171 148/7/171 147/6/171
f 147/6/172 142/32/172 141/8/172
f 149/9/173 150/10/173 151/11/173
f 150/10/174 149/12/174 154/13/174
f 149/14/175 151/15/175 152/16/175
f 149/17/176 152/16/176 153/18/176
f 149/19/177 153/18/177 154/13/177
f 150/10/178 154/13/178 159/20/178
f 151/11/179 150/10/179 155/21/179
f 152/16/180 151/15/180 156/22/180
f 153/18/181 152/16/181 157/23/181
f 154/13/182 153/18/182 158/24/182
f 150/10/183 159/20/183 155/21/183
f 151/11/184 155/21/184 156/25/184
f 152/16/185 156/22/185 157/23/185
f 153/18/186 157/23/186 158/24/186
f 154/13/187 158/24/187 159/20/187
f 155/21/188 159/20/188 160/26/188
f 156/25/189 155/21/189 160/27/189
f 157/23/190 156/22/190 160/28/190
f 158/24/191 157/23/191 160/29/191
f 159/20/192 158/24/192 160/30/192
f 161/1/193 164/2/193 163/3/193
f 163/3/194 166/4/194 165/5/194
f 166/4/195 167/6/195 165/5/195
f 168/7/196 161/8/196 167/6/196
f 169/9/197 170/10/197 171/11/197
f 170/10/198 169/12/198 174/13/198
f 169/14/199 171/15/199 172/16/199
f 169/17/200 172/16/200 173/18/200
f 169/19/201 173/18/201 174/13/201
f 170/10/202 174/13/202 179/20/202
f 171/11/203 170/10/203 175/21/203
f 172/16/204 171/15/204 176/22/204
f 173/18/205 172/16/205 177/23/205
f 174/13/206 173/18/206 178/24/206
f 170/10/207 179/20/207 175/21/207
f 171/11/208 175/21/208 176/25/208
f 172/16/209 176/22/209 177/23/209
f 173/18/210 177/23/210 178/24/210
f 174/13/211 178/24/211 179/20/211
f 175/21/212 179/20/212 180/26/212
f 176/25/213 175/21/213 180/27/213
f 177/23/214 176/22/214 180/28/214
f 178/24/215 177/23/215 180/29/215
f 179/20/216 178/24/216 180/30/216
f 182/31/217 183/3/217 181/1/217
f 184/2/218 185/5/218 183/3/218
f 185/5/219 188/7/219 187/6/219
f 187/6/220 182/32/220 181/8/220
f 189/9/221 190/10/221 191/11/221
f 190/10/222 189/12/222 194/13/222
f 189/14/223 191/15/223 192/16/223
f 189/17/224 192/16/224 193/18/224
f 189/19/225 193/18/225 194/13/225
f 190/10/226 194/13/226 199/20/226
f 191/11/227 190/10/227 195/21/227
f 192/16/228 191/15/228 196/22/228
f 193/18/229 192/16/229 197/23/229
f 194/13/230 193/18/230 198/24/230
f 190/10/231 199/20/231 195/21/231
f 191/11/232 195/21/232 196/25/232
f 192/16/233 196/22/233 197/23/233
f 193/18/234 197/23/234 198/24/234
f 194/13/235 198/24/235 199/20/235
f 195/21/236 199/20/236 200/26/236
f 196/25/237 195/21/237 200/27/237
f 197/23/238 196/22/238 200/28/238
f 198/24/239 197/23/239 200/29/239
f 199/20/240 198/24/240 200/30/240
f 1/1/1 2/31/1 4/2/1
f 3/3/2 4/2/2 6/4/2
f 6/4/3 8/7/3 7/6/3
f 8/7/4 2/32/4 1/8/4
f 22/31/25 24/2/25 23/3/25
f 24/2/26 26/4/26 25/5/26
f 25/5/27 26/4/27 28/7/27
f 27/6/28 28/7/28 22/32/28
f 42/31/49 44/2/49 43/3/49
f 43/3/50 44/2/50 46/4/50
f 45/5/51 46/4/51 48/7/51
f 48/7/52 42/32/52 41/8/52
f 61/1/73 62/31/73 64/2/73
f 63/3/74 64/2/74 66/4/74
f 66/4/75 68/7/75 67/6/75
f 68/7/76 62/32/76 61/8/76
f 81/1/97 82/31/97 84/2/97
f 83/3/98 84/2/98 86/4/98
f 86/4/99 88/7/99 87/6/99
f 88/7/100 82/32/100 81/8/100
f 102/31/121 104/2/121 103/3/121
f 104/2/122 106/4/122 105/5/122
f 105/5/123 106/4/123 108/7/123
f 107/6/124 108/7/124 102/32/124
f 121/1/145 122/31/145 124/2/145
f 123/3/146 124/2/146 126/4/146
f 126/4/147 128/7/147 127/6/147
f 128/7/148 122/32/148 121/8/148
f 142/31/169 144/2/169 143/3/169
f 144/2/170 146/4/170 145/5/170
f 145/5/171 146/4/171 148/7/171
f 147/6/172 148/7/172 142/32/172
f 161/1/193 162/31/193 164/2/193
f 163/3/194 164/2/194 166/4/194
f 166/4/195 168/7/195 167/6/195
f 168/7/196 162/32/196 161/8/196
f 182/31/217 184/2/217 183/3/217
f 184/2/218 186/4/218 185/5/218
f 185/5/219 186/4/219 188/7/219
f 187/6/220 188/7/220 182/32/220
