# Blender 4.5.3 LTS
# www.blender.org
o Cube.003
v -0.500000 0.000000 0.500000
v -0.239520 0.135795 0.239520
v -0.500000 0.000000 -0.500000
v -0.239520 0.135795 -0.239520
v 0.500000 0.000000 0.500000
v 0.239520 0.135795 0.239520
v 0.500000 0.000000 -0.500000
v 0.239520 0.135795 -0.239520
v -0.500000 0.135795 0.500000
v -0.500000 0.135795 -0.500000
v 0.500000 0.135795 -0.500000
v 0.500000 0.135795 0.500000
v -0.134896 1.566919 0.134896
v -0.134896 1.794887 -0.134896
v 0.134896 1.794887 -0.134896
v 0.134896 1.566919 0.134896
vn -1.0000 -0.0000 -0.0000
vn -0.0000 -0.0000 -1.0000
vn 1.0000 -0.0000 -0.0000
vn -0.0000 -0.0000 1.0000
vn -0.0000 0.0729 0.9973
vn -0.0000 1.0000 -0.0000
vn -0.0000 0.0629 -0.9980
vn 0.9973 0.0729 -0.0000
vn -0.9969 0.0597 0.0504
vn 0.9969 0.0597 0.0504
vn -0.9973 0.0729 -0.0000
vt 0.625000 0.000000
vt 0.375000 0.250000
vt 0.375000 0.000000
vt 0.625000 0.250000
vt 0.375000 0.500000
vt 0.625000 0.500000
vt 0.375000 0.750000
vt 0.625000 0.750000
vt 0.375000 1.000000
vt 0.672366 0.702634
vt 0.827634 0.702634
vt 0.827634 0.547366
vt 0.875000 0.750000
vt 0.672366 0.547366
vt 0.875000 0.500000
vt 0.625000 1.000000
s 0
f 9/1/1 3/2/1 1/3/1
f 10/4/2 7/5/2 3/2/2
f 11/6/3 5/7/3 7/5/3
f 12/8/4 1/9/4 5/7/4
f 6/10/5 13/11/5 2/11/5
f 4/12/6 9/13/6 2/11/6
f 8/14/6 10/15/6 4/12/6
f 6/10/6 11/6/6 8/14/6
f 2/11/6 12/8/6 6/10/6
f 4/12/7 15/14/7 8/14/7
f 8/14/8 16/10/8 6/10/8
f 4/12/9 13/11/9 14/12/9
f 9/1/1 10/4/1 3/2/1
f 10/4/2 11/6/2 7/5/2
f 11/6/3 12/8/3 5/7/3
f 12/8/4 9/16/4 1/9/4
f 6/10/5 16/10/5 13/11/5
f 4/12/6 10/15/6 9/13/6
f 8/14/6 11/6/6 10/15/6
f 6/10/6 12/8/6 11/6/6
f 2/11/6 9/13/6 12/8/6
f 4/12/7 14/12/7 15/14/7
f 8/14/10 15/14/10 16/10/10
f 4/12/11 2/11/11 13/11/11
o Plane.002
v -0.950000 1.053594 0.730202
v 0.950000 1.053594 0.730202
v -0.950000 2.274890 -0.725282
v 0.950000 2.274890 -0.725282
v -0.871616 2.310540 -0.593046
v -0.871616 1.190012 0.742348
v 0.871616 1.190012 0.742348
v 0.871616 2.310540 -0.593046
v -0.950000 2.360924 -0.653091
v -0.950000 1.139628 0.802393
v 0.950000 1.139628 0.802393
v 0.950000 2.360924 -0.653091
v -0.871616 2.275222 -0.622681
v -0.871616 1.154693 0.712712
v 0.871616 1.154693 0.712712
v 0.871616 2.275222 -0.622681
vn -0.0000 -0.7660 -0.6428
vn -1.0000 -0.0000 -0.0000
vn 1.0000 -0.0000 -0.0000
vn -0.0000 0.6428 -0.7660
vn -0.0000 -0.6428 0.7660
vn -0.0000 0.7660 0.6428
vt 0.000000 1.000000
vt 1.000000 0.000000
vt 0.000000 0.000000
vt 0.958745 0.958745
vt 0.958745 0.041255
vt 1.000000 1.000000
vt 0.041255 0.958745
vt 0.041255 0.041255
s 0
f 19/17/12 18/18/12 17/19/12
f 24/20/13 31/21/13 23/21/13
f 20/22/14 27/18/14 18/18/14
f 17/19/13 25/17/13 19/17/13
f 19/17/15 28/22/15 20/22/15
f 18/18/16 26/19/16 17/19/16
f 21/23/17 26/19/17 22/24/17
f 22/24/17 27/18/17 23/21/17
f 23/21/17 28/22/17 24/20/17
f 24/20/17 25/17/17 21/23/17
f 31/21/17 29/23/17 30/24/17
f 22/24/14 29/23/14 21/23/14
f 21/23/16 32/20/16 24/20/16
f 23/21/15 30/24/15 22/24/15
f 19/17/12 20/22/12 18/18/12
f 24/20/13 32/20/13 31/21/13
f 20/22/14 28/22/14 27/18/14
f 17/19/13 26/19/13 25/17/13
f 19/17/15 25/17/15 28/22/15
f 18/18/16 27/18/16 26/19/16
f 21/23/17 25/17/17 26/19/17
f 22/24/17 26/19/17 27/18/17
f 23/21/17 27/18/17 28/22/17
f 24/20/17 28/22/17 25/17/17
f 31/21/17 32/20/17 29/23/17
f 22/24/14 30/24/14 29/23/14
f 21/23/16 29/23/16 32/20/16
f 23/21/15 31/21/15 30/24/15
