# Blender 5.0.0
# www.blender.org
o animated.003
v -0.162275 0.938522 0.175917
v -0.175917 0.938522 -0.162275
v 0.175917 0.938522 0.162275
v 0.162275 0.938522 -0.175917
v -0.208694 0.938522 0.117161
v -0.234684 0.938522 0.046937
v -0.237702 0.938522 -0.027882
v -0.217452 0.938522 -0.099971
v -0.117161 0.938522 -0.208694
v -0.046937 0.938522 -0.234684
v 0.027882 0.938522 -0.237702
v 0.099971 0.938522 -0.217452
v 0.208694 0.938522 -0.117161
v 0.234684 0.938522 -0.046937
v 0.237702 0.938522 0.027882
v 0.217452 0.938522 0.099971
v 0.117161 0.938522 0.208694
v 0.046937 0.938522 0.234684
v -0.027882 0.938522 0.237702
v -0.099971 0.938522 0.217452
v -0.055190 1.131487 0.059829
v -0.059829 1.131487 -0.055190
v 0.059829 1.131487 0.055190
v 0.055190 1.131487 -0.059829
v -0.070977 1.131487 0.039847
v -0.079816 1.131487 0.015963
v -0.080843 1.131487 -0.009483
v -0.073956 1.131487 -0.034000
v -0.039847 1.131487 -0.070977
v -0.015963 1.131487 -0.079816
v 0.009483 1.131487 -0.080843
v 0.034000 1.131487 -0.073956
v 0.070977 1.131487 -0.039847
v 0.079816 1.131487 -0.015963
v 0.080843 1.131487 0.009483
v 0.073956 1.131487 0.034000
v 0.039847 1.131487 0.070977
v 0.015963 1.131487 0.079816
v -0.009483 1.131487 0.080843
v -0.034000 1.131487 0.073956
v 0.032319 1.015627 -0.275534
v 0.115882 1.015627 -0.252061
v -0.188102 1.015627 0.203915
v -0.241908 1.015627 0.135808
v -0.032319 1.015627 0.275534
v -0.115882 1.015627 0.252061
v 0.188102 1.015627 -0.203915
v 0.241909 1.015627 -0.135808
v -0.272036 1.015627 0.054407
v 0.272036 1.015627 -0.054407
v -0.275534 1.015627 -0.032319
v 0.275534 1.015627 0.032319
v -0.252061 1.015627 -0.115882
v -0.203915 1.015627 -0.188102
v 0.252061 1.015627 0.115882
v -0.135808 1.015627 -0.241908
v 0.203915 1.015627 0.188102
v 0.135808 1.015627 0.241908
v -0.054407 1.015627 -0.272036
v 0.054407 1.015627 0.272036
v -0.217452 1.092732 -0.099971
v -0.175917 1.092732 -0.162275
v 0.099971 1.092732 -0.217452
v 0.162275 1.092732 -0.175917
v 0.217452 1.092732 0.099971
v 0.175917 1.092732 0.162275
v -0.099971 1.092732 0.217452
v -0.162275 1.092732 0.175917
v -0.208694 1.092732 0.117161
v -0.234684 1.092732 0.046937
v -0.237702 1.092732 -0.027882
v -0.117161 1.092732 -0.208694
v -0.046937 1.092732 -0.234684
v 0.027882 1.092732 -0.237702
v 0.208694 1.092732 -0.117161
v 0.234684 1.092732 -0.046937
v 0.237702 1.092732 0.027882
v 0.117161 1.092732 0.208694
v 0.046937 1.092732 0.234684
v -0.027882 1.092732 0.237702
v -0.148590 1.092732 -0.068312
v -0.120207 1.092732 -0.110886
v 0.068312 1.092732 -0.148590
v 0.110886 1.092732 -0.120207
v 0.148590 1.092732 0.068312
v 0.120207 1.092732 0.110886
v -0.068312 1.092732 0.148590
v -0.110886 1.092732 0.120207
v -0.142605 1.092732 0.080058
v -0.160364 1.092732 0.032073
v -0.162427 1.092732 -0.019052
v -0.080058 1.092732 -0.142605
v -0.032073 1.092732 -0.160364
v 0.019052 1.092732 -0.162427
v 0.142605 1.092732 -0.080058
v 0.160365 1.092732 -0.032073
v 0.162427 1.092732 0.019052
v 0.080059 1.092732 0.142605
v 0.032073 1.092732 0.160364
v -0.019052 1.092732 0.162427
vn -0.0000 1.0000 -0.0000
vn 0.2430 0.4385 -0.8652
vn -0.7052 0.4385 0.5571
vn -0.2430 0.4385 0.8652
vn 0.7052 0.4385 -0.5571
vn -0.8428 0.4385 0.3119
vn 0.8429 0.4385 -0.3119
vn -0.8980 0.4385 0.0362
vn 0.8980 0.4385 -0.0362
vn -0.8652 0.4385 -0.2430
vn -0.7478 0.4385 -0.4985
vn 0.8652 0.4385 0.2430
vn -0.5571 0.4385 -0.7052
vn 0.4985 0.4385 -0.7478
vn 0.5571 0.4385 0.7052
vn -0.3119 0.4385 -0.8429
vn 0.7478 0.4385 0.4985
vn 0.3119 0.4385 0.8428
vn -0.0362 0.4385 -0.8980
vn -0.4985 0.4385 0.7478
vn 0.0362 0.4385 0.8980
vn 0.0362 -0.4385 0.8980
vn -0.4985 -0.4385 0.7478
vn -0.0362 -0.4385 -0.8980
vn 0.3119 -0.4385 0.8429
vn 0.7478 -0.4385 0.4985
vn -0.3119 -0.4385 -0.8429
vn 0.5571 -0.4385 0.7052
vn 0.4985 -0.4385 -0.7478
vn -0.5571 -0.4385 -0.7052
vn 0.8652 -0.4385 0.2430
vn -0.7478 -0.4385 -0.4985
vn -0.8652 -0.4385 -0.2430
vn 0.8980 -0.4385 -0.0362
vn -0.8980 -0.4385 0.0362
vn 0.8429 -0.4385 -0.3119
vn -0.8428 -0.4385 0.3119
vn 0.7052 -0.4385 -0.5571
vn -0.2430 -0.4385 0.8652
vn -0.7052 -0.4385 0.5571
vn 0.2430 -0.4385 -0.8652
vn -0.3586 0.9023 -0.2391
vn 0.2391 0.9023 -0.3586
vn 0.3586 0.9023 0.2391
vn -0.2391 0.9023 0.3586
vn -0.3382 0.9023 0.2672
vn -0.4042 0.9023 0.1496
vn -0.4307 0.9023 0.0174
vn -0.4150 0.9023 -0.1166
vn -0.2672 0.9023 -0.3382
vn -0.1496 0.9023 -0.4042
vn -0.0174 0.9023 -0.4307
vn 0.1166 0.9023 -0.4150
vn 0.3382 0.9023 -0.2672
vn 0.4042 0.9023 -0.1496
vn 0.4307 0.9023 -0.0174
vn 0.4150 0.9023 0.1166
vn 0.2672 0.9023 0.3382
vn 0.1496 0.9023 0.4042
vn 0.0174 0.9023 0.4307
vn -0.1166 0.9023 0.4150
vn -0.8429 0.4385 0.3119
vn 0.8428 0.4385 -0.3119
vn -0.3119 0.4385 -0.8428
vn 0.3119 0.4385 0.8429
vn 0.3119 -0.4385 0.8428
vn -0.3119 -0.4385 -0.8428
vn 0.8428 -0.4385 -0.3119
vn -0.8429 -0.4385 0.3119
vt 0.733953 0.665619
vt 0.721850 0.585910
vt 0.768499 0.596536
vt 0.727232 0.550449
vt 0.700832 0.546464
vt 0.806433 0.687595
vt 0.806433 0.662557
vt 0.753633 0.695566
vt 0.780033 0.691581
vt 0.674432 0.542479
vt 0.674432 0.575488
vt 0.806433 0.637519
vt 0.674432 0.608496
vt 0.806433 0.612481
vt 0.674432 0.641504
vt 0.806433 0.587443
vt 0.806433 0.562405
vt 0.674432 0.674512
vt 0.780033 0.558420
vt 0.700832 0.703536
vt 0.674432 0.707521
vt 0.753633 0.554435
vt 0.727232 0.699551
vt 0.780208 0.585593
vt 0.786611 0.599317
vt 0.714054 0.570917
vt 0.694254 0.657315
vt 0.780208 0.664407
vt 0.766811 0.672451
vt 0.786611 0.650683
vt 0.788672 0.616198
vt 0.788672 0.633802
vt 0.766811 0.577549
vt 0.749521 0.573157
vt 0.731344 0.570778
vt 0.694254 0.592685
vt 0.700657 0.576953
vt 0.692193 0.636181
vt 0.692193 0.613819
vt 0.714054 0.679083
vt 0.700657 0.673048
vt 0.749521 0.676843
vt 0.731344 0.679222
vt 0.774255 0.606479
vt 0.712365 0.591752
vt 0.712365 0.658248
vt 0.706610 0.647336
vt 0.768500 0.653464
vt 0.759015 0.660276
vt 0.776732 0.631410
vt 0.774255 0.643521
vt 0.776731 0.618590
vt 0.759015 0.589725
vt 0.733953 0.584381
vt 0.746912 0.585808
vt 0.706610 0.602664
vt 0.704134 0.617163
vt 0.704133 0.632837
vt 0.721850 0.664090
vt 0.746912 0.664192
s 0
f 38/1/1 32/2/1 22/3/1
f 41/4/2 63/5/2 42/5/2
f 43/6/3 69/7/3 44/7/3
f 45/8/4 67/9/4 46/9/4
f 47/10/5 75/11/5 48/11/5
f 44/7/6 70/12/6 49/12/6
f 50/13/7 75/11/7 76/13/7
f 49/12/8 71/14/8 51/14/8
f 50/13/9 77/15/9 52/15/9
f 53/16/10 71/14/10 61/16/10
f 54/17/11 61/16/11 62/17/11
f 52/15/12 65/18/12 55/18/12
f 56/19/13 62/17/13 72/19/13
f 47/10/14 63/5/14 64/10/14
f 58/20/15 66/21/15 78/20/15
f 56/19/16 73/22/16 59/22/16
f 57/21/17 65/18/17 66/21/17
f 58/20/18 79/23/18 60/23/18
f 59/22/19 74/4/19 41/4/19
f 43/6/20 67/9/20 68/6/20
f 60/23/21 80/8/21 45/8/21
f 18/23/22 45/8/22 19/8/22
f 20/9/23 43/6/23 1/6/23
f 10/22/24 41/4/24 11/4/24
f 17/20/25 60/23/25 18/23/25
f 16/18/26 57/21/26 3/21/26
f 9/19/27 59/22/27 10/22/27
f 3/21/28 58/20/28 17/20/28
f 12/5/29 47/10/29 4/10/29
f 2/17/30 56/19/30 9/19/30
f 15/15/31 55/18/31 16/18/31
f 8/16/32 54/17/32 2/17/32
f 7/14/33 53/16/33 8/16/33
f 14/13/34 52/15/34 15/15/34
f 7/14/35 49/12/35 51/14/35
f 13/11/36 50/13/36 14/13/36
f 6/12/37 44/7/37 49/12/37
f 4/10/38 48/11/38 13/11/38
f 19/8/39 46/9/39 20/9/39
f 1/6/40 44/7/40 5/7/40
f 11/4/41 42/5/41 12/5/41
f 82/24/1 61/16/1 81/25/1
f 83/26/1 64/10/1 63/5/1
f 85/27/1 66/21/1 65/18/1
f 88/28/1 67/9/1 87/29/1
f 89/30/1 68/6/1 88/28/1
f 89/30/1 70/12/1 69/7/1
f 91/31/1 70/12/1 90/32/1
f 81/25/1 71/14/1 91/31/1
f 92/33/1 62/17/1 82/24/1
f 93/34/1 72/19/1 92/33/1
f 94/35/1 73/22/1 93/34/1
f 94/35/1 63/5/1 74/4/1
f 95/36/1 64/10/1 84/37/1
f 95/36/1 76/13/1 75/11/1
f 97/38/1 76/13/1 96/39/1
f 97/38/1 65/18/1 77/15/1
f 98/40/1 66/21/1 86/41/1
f 98/40/1 79/23/1 78/20/1
f 100/42/1 79/23/1 99/43/1
f 87/29/1 80/8/1 100/42/1
f 28/44/42 82/24/42 81/25/42
f 24/45/43 83/26/43 32/2/43
f 23/46/44 85/27/44 36/47/44
f 21/48/45 87/29/45 40/49/45
f 21/48/46 89/30/46 88/28/46
f 26/50/47 89/30/47 25/51/47
f 27/52/48 90/32/48 26/50/48
f 28/44/49 91/31/49 27/52/49
f 29/53/50 82/24/50 22/3/50
f 29/53/51 93/34/51 92/33/51
f 31/54/52 93/34/52 30/55/52
f 31/54/53 83/26/53 94/35/53
f 33/56/54 84/37/54 24/45/54
f 34/57/55 95/36/55 33/56/55
f 35/58/56 96/39/56 34/57/56
f 36/47/57 97/38/57 35/58/57
f 37/59/58 86/41/58 23/46/58
f 37/59/59 99/43/59 98/40/59
f 39/60/60 99/43/60 38/1/60
f 40/49/61 100/42/61 39/60/61
f 22/3/1 28/44/1 27/52/1
f 27/52/1 26/50/1 25/51/1
f 25/51/1 21/48/1 40/49/1
f 40/49/1 39/60/1 38/1/1
f 38/1/1 37/59/1 23/46/1
f 23/46/1 36/47/1 35/58/1
f 35/58/1 34/57/1 33/56/1
f 33/56/1 24/45/1 32/2/1
f 32/2/1 31/54/1 30/55/1
f 30/55/1 29/53/1 22/3/1
f 22/3/1 27/52/1 25/51/1
f 25/51/1 40/49/1 38/1/1
f 38/1/1 23/46/1 35/58/1
f 35/58/1 33/56/1 32/2/1
f 32/2/1 30/55/1 22/3/1
f 22/3/1 25/51/1 38/1/1
f 38/1/1 35/58/1 32/2/1
f 41/4/2 74/4/2 63/5/2
f 43/6/3 68/6/3 69/7/3
f 45/8/4 80/8/4 67/9/4
f 47/10/5 64/10/5 75/11/5
f 44/7/62 69/7/62 70/12/62
f 50/13/63 48/11/63 75/11/63
f 49/12/8 70/12/8 71/14/8
f 50/13/9 76/13/9 77/15/9
f 53/16/10 51/14/10 71/14/10
f 54/17/11 53/16/11 61/16/11
f 52/15/12 77/15/12 65/18/12
f 56/19/13 54/17/13 62/17/13
f 47/10/14 42/5/14 63/5/14
f 58/20/15 57/21/15 66/21/15
f 56/19/64 72/19/64 73/22/64
f 57/21/17 55/18/17 65/18/17
f 58/20/65 78/20/65 79/23/65
f 59/22/19 73/22/19 74/4/19
f 43/6/20 46/9/20 67/9/20
f 60/23/21 79/23/21 80/8/21
f 18/23/22 60/23/22 45/8/22
f 20/9/23 46/9/23 43/6/23
f 10/22/24 59/22/24 41/4/24
f 17/20/66 58/20/66 60/23/66
f 16/18/26 55/18/26 57/21/26
f 9/19/67 56/19/67 59/22/67
f 3/21/28 57/21/28 58/20/28
f 12/5/29 42/5/29 47/10/29
f 2/17/30 54/17/30 56/19/30
f 15/15/31 52/15/31 55/18/31
f 8/16/32 53/16/32 54/17/32
f 7/14/33 51/14/33 53/16/33
f 14/13/34 50/13/34 52/15/34
f 7/14/35 6/12/35 49/12/35
f 13/11/68 48/11/68 50/13/68
f 6/12/69 5/7/69 44/7/69
f 4/10/38 47/10/38 48/11/38
f 19/8/39 45/8/39 46/9/39
f 1/6/40 43/6/40 44/7/40
f 11/4/41 41/4/41 42/5/41
f 82/24/1 62/17/1 61/16/1
f 83/26/1 84/37/1 64/10/1
f 85/27/1 86/41/1 66/21/1
f 88/28/1 68/6/1 67/9/1
f 89/30/1 69/7/1 68/6/1
f 89/30/1 90/32/1 70/12/1
f 91/31/1 71/14/1 70/12/1
f 81/25/1 61/16/1 71/14/1
f 92/33/1 72/19/1 62/17/1
f 93/34/1 73/22/1 72/19/1
f 94/35/1 74/4/1 73/22/1
f 94/35/1 83/26/1 63/5/1
f 95/36/1 75/11/1 64/10/1
f 95/36/1 96/39/1 76/13/1
f 97/38/1 77/15/1 76/13/1
f 97/38/1 85/27/1 65/18/1
f 98/40/1 78/20/1 66/21/1
f 98/40/1 99/43/1 79/23/1
f 100/42/1 80/8/1 79/23/1
f 87/29/1 67/9/1 80/8/1
f 28/44/42 22/3/42 82/24/42
f 24/45/43 84/37/43 83/26/43
f 23/46/44 86/41/44 85/27/44
f 21/48/45 88/28/45 87/29/45
f 21/48/46 25/51/46 89/30/46
f 26/50/47 90/32/47 89/30/47
f 27/52/48 91/31/48 90/32/48
f 28/44/49 81/25/49 91/31/49
f 29/53/50 92/33/50 82/24/50
f 29/53/51 30/55/51 93/34/51
f 31/54/52 94/35/52 93/34/52
f 31/54/53 32/2/53 83/26/53
f 33/56/54 95/36/54 84/37/54
f 34/57/55 96/39/55 95/36/55
f 35/58/56 97/38/56 96/39/56
f 36/47/57 85/27/57 97/38/57
f 37/59/58 98/40/58 86/41/58
f 37/59/59 38/1/59 99/43/59
f 39/60/60 100/42/60 99/43/60
f 40/49/61 87/29/61 100/42/61
