# Blender 5.0.0
# www.blender.org
o animated.004
v -0.162275 0.938522 0.175917
v -0.175917 0.938522 -0.162275
v 0.175917 0.938522 0.162275
v 0.162275 0.938522 -0.175917
v -0.208694 0.938522 0.117161
v -0.234684 0.938522 0.046937
v -0.237702 0.938522 -0.027882
v -0.217452 0.938522 -0.099971
v -0.117161 0.938522 -0.208694
v -0.046937 0.938522 -0.234684
v 0.027882 0.938522 -0.237702
v 0.099971 0.938522 -0.217452
v 0.208694 0.938522 -0.117161
v 0.234684 0.938522 -0.046937
v 0.237702 0.938522 0.027882
v 0.217452 0.938522 0.099971
v 0.117161 0.938522 0.208694
v 0.046937 0.938522 0.234684
v -0.027882 0.938522 0.237702
v -0.099971 0.938522 0.217452
v -0.162275 1.092732 0.175917
v -0.175917 1.092732 -0.162275
v 0.175917 1.092732 0.162275
v 0.162275 1.092732 -0.175917
v -0.208694 1.092732 0.117161
v -0.234684 1.092732 0.046937
v -0.237702 1.092732 -0.027882
v -0.217452 1.092732 -0.099971
v -0.117161 1.092732 -0.208694
v -0.046937 1.092732 -0.234684
v 0.027882 1.092732 -0.237702
v 0.099971 1.092732 -0.217452
v 0.208694 1.092732 -0.117161
v 0.234684 1.092732 -0.046937
v 0.237702 1.092732 0.027882
v 0.217452 1.092732 0.099971
v 0.117161 1.092732 0.208694
v 0.046937 1.092732 0.234684
v -0.027882 1.092732 0.237702
v -0.099971 1.092732 0.217452
v 0.032319 1.015627 -0.275534
v 0.115882 1.015627 -0.252061
v -0.188102 1.015627 0.203915
v -0.241908 1.015627 0.135808
v -0.032319 1.015627 0.275534
v -0.115882 1.015627 0.252061
v 0.188102 1.015627 -0.203915
v 0.241909 1.015627 -0.135808
v -0.272036 1.015627 0.054407
v 0.272036 1.015627 -0.054407
v -0.275534 1.015627 -0.032319
v 0.275534 1.015627 0.032319
v -0.252061 1.015627 -0.115882
v -0.203915 1.015627 -0.188102
v 0.252061 1.015627 0.115882
v -0.135808 1.015627 -0.241908
v 0.203915 1.015627 0.188102
v 0.135808 1.015627 0.241908
v -0.054407 1.015627 -0.272036
v 0.054407 1.015627 0.272036
vn -0.0000 1.0000 -0.0000
vn 0.2430 0.4385 -0.8652
vn -0.7052 0.4385 0.5571
vn -0.2430 0.4385 0.8652
vn 0.7052 0.4385 -0.5571
vn -0.8428 0.4385 0.3119
vn 0.8429 0.4385 -0.3119
vn -0.8980 0.4385 0.0362
vn 0.8980 0.4385 -0.0362
vn -0.8652 0.4385 -0.2430
vn -0.7478 0.4385 -0.4985
vn 0.8652 0.4385 0.2430
vn -0.5571 0.4385 -0.7052
vn 0.4985 0.4385 -0.7478
vn 0.5571 0.4385 0.7052
vn -0.3119 0.4385 -0.8429
vn 0.7478 0.4385 0.4985
vn 0.3119 0.4385 0.8428
vn -0.0362 0.4385 -0.8980
vn -0.4985 0.4385 0.7478
vn 0.0362 0.4385 0.8980
vn 0.0362 -0.4385 0.8980
vn -0.4985 -0.4385 0.7478
vn -0.0362 -0.4385 -0.8980
vn 0.3119 -0.4385 0.8429
vn 0.7478 -0.4385 0.4985
vn -0.3119 -0.4385 -0.8429
vn 0.5571 -0.4385 0.7052
vn 0.4985 -0.4385 -0.7478
vn -0.5571 -0.4385 -0.7052
vn 0.8652 -0.4385 0.2430
vn -0.7478 -0.4385 -0.4985
vn -0.8652 -0.4385 -0.2430
vn 0.8980 -0.4385 -0.0362
vn -0.8980 -0.4385 0.0362
vn 0.8429 -0.4385 -0.3119
vn -0.8428 -0.4385 0.3119
vn 0.7052 -0.4385 -0.5571
vn -0.2430 -0.4385 0.8652
vn -0.7052 -0.4385 0.5571
vn 0.2430 -0.4385 -0.8652
vn -0.8429 0.4385 0.3119
vn 0.8428 0.4385 -0.3119
vn -0.3119 0.4385 -0.8428
vn 0.3119 0.4385 0.8429
vn 0.3119 -0.4385 0.8428
vn -0.3119 -0.4385 -0.8428
vn 0.8428 -0.4385 -0.3119
vn -0.8429 -0.4385 0.3119
vt 0.727232 0.699551
vt 0.700832 0.546464
vt 0.806433 0.562405
vt 0.727232 0.550449
vt 0.806433 0.687595
vt 0.806433 0.662557
vt 0.753633 0.695566
vt 0.780033 0.691581
vt 0.674432 0.542479
vt 0.674432 0.575488
vt 0.806433 0.637519
vt 0.674432 0.608496
vt 0.806433 0.612481
vt 0.674432 0.641504
vt 0.806433 0.587443
vt 0.674432 0.674512
vt 0.780033 0.558420
vt 0.700832 0.703536
vt 0.674432 0.707521
vt 0.753633 0.554435
s 0
f 38/1/1 32/2/1 22/3/1
f 41/4/2 32/2/2 42/2/2
f 43/5/3 25/6/3 44/6/3
f 45/7/4 40/8/4 46/8/4
f 47/9/5 33/10/5 48/10/5
f 44/6/6 26/11/6 49/11/6
f 50/12/7 33/10/7 34/12/7
f 49/11/8 27/13/8 51/13/8
f 50/12/9 35/14/9 52/14/9
f 53/15/10 27/13/10 28/15/10
f 54/3/11 28/15/11 22/3/11
f 52/14/12 36/16/12 55/16/12
f 56/17/13 22/3/13 29/17/13
f 47/9/14 32/2/14 24/9/14
f 58/18/15 23/19/15 37/18/15
f 56/17/16 30/20/16 59/20/16
f 57/19/17 36/16/17 23/19/17
f 58/18/18 38/1/18 60/1/18
f 59/20/19 31/4/19 41/4/19
f 43/5/20 40/8/20 21/5/20
f 60/1/21 39/7/21 45/7/21
f 18/1/22 45/7/22 19/7/22
f 20/8/23 43/5/23 1/5/23
f 10/20/24 41/4/24 11/4/24
f 17/18/25 60/1/25 18/1/25
f 16/16/26 57/19/26 3/19/26
f 9/17/27 59/20/27 10/20/27
f 3/19/28 58/18/28 17/18/28
f 12/2/29 47/9/29 4/9/29
f 2/3/30 56/17/30 9/17/30
f 15/14/31 55/16/31 16/16/31
f 8/15/32 54/3/32 2/3/32
f 7/13/33 53/15/33 8/15/33
f 14/12/34 52/14/34 15/14/34
f 7/13/35 49/11/35 51/13/35
f 13/10/36 50/12/36 14/12/36
f 6/11/37 44/6/37 49/11/37
f 4/9/38 48/10/38 13/10/38
f 19/7/39 46/8/39 20/8/39
f 1/5/40 44/6/40 5/6/40
f 11/4/41 42/2/41 12/2/41
f 22/3/1 28/15/1 27/13/1
f 27/13/1 26/11/1 25/6/1
f 25/6/1 21/5/1 40/8/1
f 40/8/1 39/7/1 38/1/1
f 38/1/1 37/18/1 23/19/1
f 23/19/1 36/16/1 35/14/1
f 35/14/1 34/12/1 33/10/1
f 33/10/1 24/9/1 32/2/1
f 32/2/1 31/4/1 30/20/1
f 30/20/1 29/17/1 22/3/1
f 22/3/1 27/13/1 25/6/1
f 25/6/1 40/8/1 38/1/1
f 38/1/1 23/19/1 35/14/1
f 35/14/1 33/10/1 32/2/1
f 32/2/1 30/20/1 22/3/1
f 22/3/1 25/6/1 38/1/1
f 38/1/1 35/14/1 32/2/1
f 41/4/2 31/4/2 32/2/2
f 43/5/3 21/5/3 25/6/3
f 45/7/4 39/7/4 40/8/4
f 47/9/5 24/9/5 33/10/5
f 44/6/42 25/6/42 26/11/42
f 50/12/43 48/10/43 33/10/43
f 49/11/8 26/11/8 27/13/8
f 50/12/9 34/12/9 35/14/9
f 53/15/10 51/13/10 27/13/10
f 54/3/11 53/15/11 28/15/11
f 52/14/12 35/14/12 36/16/12
f 56/17/13 54/3/13 22/3/13
f 47/9/14 42/2/14 32/2/14
f 58/18/15 57/19/15 23/19/15
f 56/17/44 29/17/44 30/20/44
f 57/19/17 55/16/17 36/16/17
f 58/18/45 37/18/45 38/1/45
f 59/20/19 30/20/19 31/4/19
f 43/5/20 46/8/20 40/8/20
f 60/1/21 38/1/21 39/7/21
f 18/1/22 60/1/22 45/7/22
f 20/8/23 46/8/23 43/5/23
f 10/20/24 59/20/24 41/4/24
f 17/18/46 58/18/46 60/1/46
f 16/16/26 55/16/26 57/19/26
f 9/17/47 56/17/47 59/20/47
f 3/19/28 57/19/28 58/18/28
f 12/2/29 42/2/29 47/9/29
f 2/3/30 54/3/30 56/17/30
f 15/14/31 52/14/31 55/16/31
f 8/15/32 53/15/32 54/3/32
f 7/13/33 51/13/33 53/15/33
f 14/12/34 50/12/34 52/14/34
f 7/13/35 6/11/35 49/11/35
f 13/10/48 48/10/48 50/12/48
f 6/11/49 5/6/49 44/6/49
f 4/9/38 47/9/38 48/10/38
f 19/7/39 45/7/39 46/8/39
f 1/5/40 43/5/40 44/6/40
f 11/4/41 41/4/41 42/2/41
