# Blender 5.0.0
# www.blender.org
o animated.001
v 0.000000 3.141890 -0.294891
v 0.000000 2.767012 -0.452116
v 0.208520 3.141890 -0.208520
v 0.319694 2.767012 -0.319694
v 0.294891 3.141890 0.000000
v 0.452116 2.767012 0.000000
v 0.208520 3.141890 0.208520
v 0.319694 2.767012 0.319694
v -0.000000 3.141890 0.294891
v 0.000000 2.767012 0.452116
v -0.208520 3.141890 0.208520
v -0.319694 2.767012 0.319694
v -0.294891 3.141890 -0.000000
v -0.452116 2.767012 0.000000
v -0.208520 3.141890 -0.208520
v -0.319694 2.767012 -0.319694
v 0.000000 2.142596 -0.352738
v 0.000000 2.256115 -0.452116
v 0.319694 2.256115 -0.319694
v 0.249424 2.142596 -0.249424
v 0.452116 2.256115 0.000000
v 0.352738 2.142596 0.000000
v 0.319694 2.256115 0.319694
v 0.249424 2.142596 0.249424
v 0.000000 2.256115 0.452116
v -0.000000 2.142596 0.352738
v -0.319694 2.256115 0.319694
v -0.249424 2.142596 0.249424
v -0.452116 2.256115 0.000000
v -0.352738 2.142596 -0.000000
v -0.319694 2.256115 -0.319694
v -0.249424 2.142596 -0.249424
vn 0.3568 0.3613 -0.8615
vn 0.8615 0.3613 -0.3568
vn 0.8615 0.3613 0.3568
vn 0.3568 0.3613 0.8615
vn -0.3568 0.3613 0.8615
vn -0.8615 0.3613 0.3568
vn -0.8615 0.3613 -0.3568
vn -0.3568 0.3613 -0.8615
vn -0.0000 1.0000 -0.0000
vn 0.2975 -0.6289 -0.7183
vn 0.7183 -0.6289 -0.2975
vn 0.7183 -0.6289 0.2975
vn 0.2975 -0.6289 0.7183
vn -0.2975 -0.6289 0.7183
vn -0.7183 -0.6289 0.2975
vn -0.7183 -0.6289 -0.2975
vn -0.2975 -0.6289 -0.7183
vn 0.3827 -0.0000 -0.9239
vn -0.0000 -1.0000 -0.0000
vn -0.3827 -0.0000 -0.9239
vn 0.9239 -0.0000 -0.3827
vn 0.9239 -0.0000 0.3827
vn 0.3827 -0.0000 0.9239
vn -0.3827 -0.0000 0.9239
vn -0.9239 -0.0000 0.3827
vn -0.9239 -0.0000 -0.3827
vt 0.250000 0.490000
vt 0.360690 0.360690
vt 0.419706 0.419706
vt 0.406539 0.250000
vt 0.490000 0.250000
vt 0.360690 0.139310
vt 0.419706 0.080294
vt 0.250000 0.093461
vt 0.250000 0.010000
vt 0.139310 0.139310
vt 0.080294 0.080294
vt 0.093461 0.250000
vt 0.010000 0.250000
vt 0.139310 0.360690
vt 0.080294 0.419706
vt 0.250000 0.406539
vt 0.919706 0.419706
vt 0.750000 0.437247
vt 0.750000 0.490000
vt 0.937247 0.250000
vt 0.882403 0.382403
vt 0.919706 0.080294
vt 0.990000 0.250000
vt 0.750000 0.062753
vt 0.882403 0.117597
vt 0.580294 0.080294
vt 0.750000 0.010000
vt 0.562753 0.250000
vt 0.617597 0.117597
vt 0.580294 0.419706
vt 0.510000 0.250000
vt 0.617597 0.382403
vt 1.000000 0.888312
vt 0.875000 0.570595
vt 1.000000 0.570595
vt 0.125000 0.888312
vt 0.000000 0.570595
vt 0.125000 0.570595
vt 0.875000 0.888312
vt 0.750000 0.570595
vt 0.750000 0.888312
vt 0.625000 0.570595
vt 0.625000 0.888312
vt 0.500000 0.570595
vt 0.500000 0.888312
vt 0.375000 0.570595
vt 0.375000 0.888312
vt 0.250000 0.570595
vt 0.250000 0.888312
vt 0.000000 0.888312
s 0
f 2/1/1 3/2/1 4/3/1
f 4/3/2 5/4/2 6/5/2
f 6/5/3 7/6/3 8/7/3
f 8/7/4 9/8/4 10/9/4
f 10/9/5 11/10/5 12/11/5
f 12/11/6 13/12/6 14/13/6
f 14/13/7 15/14/7 16/15/7
f 16/15/8 1/16/8 2/1/8
f 13/12/9 9/8/9 5/4/9
f 19/17/10 17/18/10 18/19/10
f 19/17/11 22/20/11 20/21/11
f 23/22/12 22/20/12 21/23/12
f 23/22/13 26/24/13 24/25/13
f 27/26/14 26/24/14 25/27/14
f 27/26/15 30/28/15 28/29/15
f 31/30/16 30/28/16 29/31/16
f 31/30/17 17/18/17 32/32/17
f 2/33/18 19/34/18 18/35/18
f 24/25/19 28/29/19 32/32/19
f 16/36/20 18/37/20 31/38/20
f 4/39/21 21/40/21 19/34/21
f 6/41/22 23/42/22 21/40/22
f 8/43/23 25/44/23 23/42/23
f 10/45/24 27/46/24 25/44/24
f 12/47/25 29/48/25 27/46/25
f 14/49/26 31/38/26 29/48/26
f 2/1/1 1/16/1 3/2/1
f 4/3/2 3/2/2 5/4/2
f 6/5/3 5/4/3 7/6/3
f 8/7/4 7/6/4 9/8/4
f 10/9/5 9/8/5 11/10/5
f 12/11/6 11/10/6 13/12/6
f 14/13/7 13/12/7 15/14/7
f 16/15/8 15/14/8 1/16/8
f 5/4/9 3/2/9 1/16/9
f 1/16/9 15/14/9 13/12/9
f 13/12/9 11/10/9 9/8/9
f 9/8/9 7/6/9 5/4/9
f 5/4/9 1/16/9 13/12/9
f 19/17/10 20/21/10 17/18/10
f 19/17/11 21/23/11 22/20/11
f 23/22/12 24/25/12 22/20/12
f 23/22/13 25/27/13 26/24/13
f 27/26/14 28/29/14 26/24/14
f 27/26/15 29/31/15 30/28/15
f 31/30/16 32/32/16 30/28/16
f 31/30/17 18/19/17 17/18/17
f 2/33/18 4/39/18 19/34/18
f 32/32/19 17/18/19 20/21/19
f 20/21/19 22/20/19 24/25/19
f 24/25/19 26/24/19 28/29/19
f 28/29/19 30/28/19 32/32/19
f 32/32/19 20/21/19 24/25/19
f 16/36/20 2/50/20 18/37/20
f 4/39/21 6/41/21 21/40/21
f 6/41/22 8/43/22 23/42/22
f 8/43/23 10/45/23 25/44/23
f 10/45/24 12/47/24 27/46/24
f 12/47/25 14/49/25 29/48/25
f 14/49/26 16/36/26 31/38/26
