# Blender 5.0.0
# www.blender.org
o ground.006
v 0.138321 0.000000 0.264158
v 0.121790 0.000000 0.281373
v 0.104575 0.000000 0.264842
v 0.121105 0.000000 0.247627
v 0.245484 0.167346 0.271988
v 0.134015 0.167346 0.388075
v 0.017928 0.167346 0.276606
v 0.129397 0.167346 0.160519
v 0.130339 0.153117 0.256665
v 0.113808 0.153117 0.273881
v 0.131024 0.153117 0.290411
v 0.147554 0.153117 0.273196
v 0.138999 0.247390 0.311520
v 0.105150 0.247390 0.279018
v 0.137652 0.247390 0.245170
v 0.171501 0.247390 0.277672
v 0.404641 0.000000 -0.155497
v 0.427720 0.000000 -0.169178
v 0.441401 0.000000 -0.146100
v 0.418322 0.000000 -0.132419
v 0.310577 0.187480 -0.179110
v 0.466199 0.187480 -0.271363
v 0.558451 0.187480 -0.115741
v 0.402830 0.187480 -0.023488
v 0.428654 0.171450 -0.129233
v 0.451732 0.171450 -0.142914
v 0.438051 0.171450 -0.165992
v 0.414973 0.171450 -0.152311
v 0.451069 0.277938 -0.182640
v 0.477967 0.277938 -0.137264
v 0.432591 0.277938 -0.110366
v 0.405693 0.277938 -0.155742
v 0.128502 0.000000 -0.421862
v 0.122839 0.000000 -0.398137
v 0.099113 0.000000 -0.403800
v 0.104777 0.000000 -0.427525
v 0.223416 0.171139 -0.463597
v 0.185227 0.171139 -0.303613
v 0.025243 0.171139 -0.341802
v 0.063432 0.171139 -0.501786
v 0.114242 0.156593 -0.418178
v 0.108578 0.156593 -0.394453
v 0.132304 0.156593 -0.388790
v 0.137967 0.156593 -0.412515
v 0.148953 0.252936 -0.369621
v 0.102305 0.252936 -0.380756
v 0.113440 0.252936 -0.427403
v 0.160088 0.252936 -0.416268
v -0.150775 0.000000 -0.219762
v -0.172544 0.000000 -0.224301
v -0.168006 0.000000 -0.246070
v -0.146237 0.000000 -0.241531
v -0.092783 0.160170 -0.131994
v -0.239576 0.160170 -0.162600
v -0.208970 0.160170 -0.309393
v -0.062176 0.160170 -0.278787
v -0.138608 0.146616 -0.230343
v -0.160377 0.146616 -0.234882
v -0.164916 0.146616 -0.213113
v -0.143147 0.146616 -0.208574
v -0.170792 0.236281 -0.198109
v -0.161868 0.236281 -0.240911
v -0.119066 0.236281 -0.231987
v -0.127990 0.236281 -0.189185
v -0.117208 0.000000 0.488811
v -0.142073 0.000000 0.490771
v -0.144034 0.000000 0.465906
v -0.119169 0.000000 0.463945
v -0.030110 0.179163 0.568171
v -0.197781 0.179163 0.581393
v -0.211003 0.179163 0.413722
v -0.043332 0.179163 0.400500
v -0.110176 0.164019 0.476403
v -0.135041 0.164019 0.478364
v -0.133080 0.164019 0.503229
v -0.108215 0.164019 0.501268
v -0.135744 0.264115 0.523419
v -0.139599 0.264115 0.474530
v -0.090710 0.264115 0.470675
v -0.086855 0.264115 0.519564
v -0.508435 0.000000 -0.059653
v -0.479702 0.000000 -0.054345
v -0.485009 0.000000 -0.025612
v -0.513743 0.000000 -0.030919
v -0.566896 0.213998 -0.144179
v -0.373142 0.213998 -0.108388
v -0.408933 0.213998 0.085366
v -0.602686 0.213998 0.049575
v -0.506173 0.195979 -0.018851
v -0.477439 0.195979 -0.013544
v -0.472132 0.195979 -0.042277
v -0.500865 0.195979 -0.047585
v -0.444856 0.315145 -0.045956
v -0.455291 0.315145 0.010538
v -0.511786 0.315145 0.000102
v -0.501350 0.315145 -0.056392
v 0.471160 0.000000 0.277689
v 0.446867 0.000000 0.289605
v 0.434952 0.000000 0.265312
v 0.459245 0.000000 0.253396
v 0.586662 0.189457 0.315706
v 0.422849 0.189457 0.396054
v 0.342502 0.189457 0.232241
v 0.506315 0.189457 0.151893
v 0.469603 0.173251 0.255752
v 0.445310 0.173251 0.267668
v 0.457225 0.173251 0.291961
v 0.481518 0.173251 0.280045
v 0.459753 0.280926 0.310112
v 0.436326 0.280926 0.262348
v 0.484090 0.280926 0.238920
v 0.507517 0.280926 0.286684
v -0.398104 0.000000 -0.506758
v -0.372225 0.000000 -0.512218
v -0.366766 0.000000 -0.486339
v -0.392644 0.000000 -0.480880
v -0.479690 0.192686 -0.552185
v -0.305187 0.192686 -0.589000
v -0.268372 0.192686 -0.414497
v -0.442875 0.192686 -0.377682
v -0.385311 0.176439 -0.468814
v -0.359432 0.176439 -0.474274
v -0.364892 0.176439 -0.500152
v -0.390770 0.176439 -0.494692
v -0.345901 0.283852 -0.507875
v -0.335166 0.283852 -0.456994
v -0.386047 0.283852 -0.446259
v -0.396782 0.283852 -0.497141
v -0.499874 0.000000 0.358184
v -0.513491 0.000000 0.344078
v -0.499385 0.000000 0.330461
v -0.485767 0.000000 0.344567
v -0.496646 0.144024 0.446519
v -0.588471 0.144024 0.351397
v -0.493348 0.144024 0.259572
v -0.401523 0.144024 0.354695
v -0.481697 0.131847 0.352521
v -0.495315 0.131847 0.338415
v -0.509421 0.131847 0.352032
v -0.495804 0.131847 0.366138
v -0.518209 0.212486 0.356936
v -0.490473 0.212486 0.330162
v -0.463699 0.212486 0.357898
v -0.491435 0.212486 0.384672
v -0.217436 0.000000 0.140689
v -0.195674 0.000000 0.143124
v -0.198109 0.000000 0.164886
v -0.219871 0.000000 0.162451
v -0.264965 0.158235 0.083235
v -0.118219 0.158235 0.099657
v -0.134641 0.158235 0.246403
v -0.281387 0.158235 0.229981
v -0.212746 0.144848 0.173454
v -0.190984 0.144848 0.175889
v -0.188549 0.144848 0.154127
v -0.210311 0.144848 0.151692
v -0.170278 0.233416 0.151462
v -0.175066 0.233416 0.194250
v -0.217854 0.233416 0.189462
v -0.213066 0.233416 0.146674
vn -0.0000 1.0000 -0.0000
vn 0.6926 0.0008 -0.7213
vn -0.7188 0.0841 -0.6902
vn 0.7188 -0.0841 0.6902
vn -0.6926 -0.0008 0.7213
vn -0.5586 0.5912 0.5818
vn 0.5697 0.5687 -0.5933
vn 0.6137 0.5254 0.5893
vn -0.5614 0.6280 -0.5390
vn -0.8594 0.0423 0.5095
vn 0.5094 -0.0467 0.8593
vn -0.5094 0.0467 -0.8593
vn 0.8594 -0.0423 -0.5095
vn 0.7232 0.5415 -0.4287
vn -0.6807 0.6115 0.4035
vn -0.4063 0.6043 -0.6854
vn 0.4259 0.5499 0.7185
vn 0.2320 0.0440 -0.9717
vn -0.9701 0.0725 -0.2316
vn 0.9701 -0.0725 0.2316
vn -0.2320 -0.0440 0.9717
vn -0.1918 0.5634 0.8036
vn 0.1864 0.5962 -0.7809
vn 0.8272 0.5261 0.1974
vn -0.7574 0.6274 -0.1808
vn 0.9768 -0.0664 0.2037
vn 0.2037 0.0640 -0.9769
vn -0.2037 -0.0640 0.9769
vn -0.9768 0.0664 -0.2037
vn -0.7684 0.6196 -0.1602
vn 0.8371 0.5184 0.1745
vn -0.1718 0.5398 0.8241
vn 0.1629 0.6023 -0.7815
vn 0.9957 -0.0486 -0.0785
vn -0.0784 0.0798 -0.9937
vn 0.0784 -0.0798 0.9937
vn -0.9957 0.0486 0.0785
vn -0.7854 0.6158 0.0619
vn 0.8469 0.5275 -0.0668
vn 0.0667 0.5287 0.8462
vn -0.0620 0.6149 -0.7862
vn -0.9822 0.0491 -0.1814
vn -0.1814 -0.0535 0.9820
vn 0.1814 0.0535 -0.9820
vn 0.9822 -0.0491 0.1814
vn 0.8488 0.5050 0.1568
vn -0.7698 0.6223 -0.1422
vn 0.1463 0.5926 -0.7921
vn -0.1527 0.5416 0.8267
vn 0.8968 -0.0476 -0.4399
vn -0.4400 0.0385 -0.8972
vn 0.4400 -0.0385 0.8972
vn -0.8968 0.0476 0.4399
vn -0.7093 0.6131 0.3479
vn 0.7572 0.5373 -0.3714
vn 0.3665 0.5543 0.7473
vn -0.3528 0.5986 -0.7192
vn -0.9781 0.0265 0.2064
vn 0.2058 -0.0753 0.9757
vn -0.2058 0.0753 -0.9757
vn 0.9781 -0.0265 -0.2064
vn 0.8314 0.5273 -0.1754
vn -0.7771 0.6077 0.1639
vn -0.1629 0.6143 -0.7721
vn 0.1764 0.5191 0.8363
vn 0.6931 -0.0647 0.7180
vn 0.7193 0.0197 -0.6944
vn -0.7193 -0.0197 0.6944
vn -0.6931 0.0647 -0.7180
vn -0.5500 0.6106 -0.5698
vn 0.5963 0.5127 0.6177
vn -0.5943 0.5635 0.5737
vn 0.5933 0.5656 -0.5727
vn -0.9922 0.0572 -0.1110
vn -0.1109 -0.0698 0.9914
vn 0.1109 0.0698 -0.9914
vn 0.9922 -0.0572 0.1110
vn 0.8478 0.5217 0.0949
vn -0.7837 0.6150 -0.0877
vn 0.0885 0.6060 -0.7905
vn -0.0941 0.5328 0.8410
vt 0.000000 0.000000
s 1
f 16/1/1 14/1/1 13/1/1
f 9/1/2 1/1/2 4/1/2
f 3/1/3 9/1/3 4/1/3
f 12/1/4 2/1/4 1/1/4
f 2/1/5 10/1/5 3/1/5
f 14/1/6 6/1/6 13/1/6
f 15/1/7 5/1/7 8/1/7
f 13/1/8 5/1/8 16/1/8
f 14/1/9 8/1/9 7/1/9
f 29/1/1 31/1/1 30/1/1
f 20/1/10 28/1/10 17/1/10
f 19/1/11 25/1/11 20/1/11
f 28/1/12 18/1/12 17/1/12
f 27/1/13 19/1/13 18/1/13
f 29/1/14 23/1/14 22/1/14
f 32/1/15 24/1/15 31/1/15
f 32/1/16 22/1/16 21/1/16
f 31/1/17 23/1/17 30/1/17
f 48/1/1 46/1/1 45/1/1
f 41/1/18 33/1/18 36/1/18
f 35/1/19 41/1/19 36/1/19
f 44/1/20 34/1/20 33/1/20
f 34/1/21 42/1/21 35/1/21
f 46/1/22 38/1/22 45/1/22
f 47/1/23 37/1/23 40/1/23
f 48/1/24 38/1/24 37/1/24
f 47/1/25 39/1/25 46/1/25
f 64/1/1 62/1/1 61/1/1
f 57/1/26 49/1/26 52/1/26
f 58/1/27 52/1/27 51/1/27
f 49/1/28 59/1/28 50/1/28
f 50/1/29 58/1/29 51/1/29
f 62/1/30 54/1/30 61/1/30
f 63/1/31 53/1/31 56/1/31
f 61/1/32 53/1/32 64/1/32
f 62/1/33 56/1/33 55/1/33
f 80/1/1 78/1/1 77/1/1
f 73/1/34 65/1/34 68/1/34
f 74/1/35 68/1/35 67/1/35
f 65/1/36 75/1/36 66/1/36
f 66/1/37 74/1/37 67/1/37
f 78/1/38 70/1/38 77/1/38
f 79/1/39 69/1/39 72/1/39
f 77/1/40 69/1/40 80/1/40
f 78/1/41 72/1/41 71/1/41
f 96/1/1 94/1/1 93/1/1
f 84/1/42 92/1/42 81/1/42
f 83/1/43 89/1/43 84/1/43
f 92/1/44 82/1/44 81/1/44
f 91/1/45 83/1/45 82/1/45
f 93/1/46 87/1/46 86/1/46
f 96/1/47 88/1/47 95/1/47
f 96/1/48 86/1/48 85/1/48
f 95/1/49 87/1/49 94/1/49
f 112/1/1 110/1/1 109/1/1
f 105/1/50 97/1/50 100/1/50
f 106/1/51 100/1/51 99/1/51
f 97/1/52 107/1/52 98/1/52
f 98/1/53 106/1/53 99/1/53
f 110/1/54 102/1/54 109/1/54
f 111/1/55 101/1/55 104/1/55
f 109/1/56 101/1/56 112/1/56
f 110/1/57 104/1/57 103/1/57
f 125/1/1 127/1/1 126/1/1
f 116/1/58 124/1/58 113/1/58
f 115/1/59 121/1/59 116/1/59
f 124/1/60 114/1/60 113/1/60
f 123/1/61 115/1/61 114/1/61
f 125/1/62 119/1/62 118/1/62
f 128/1/63 120/1/63 127/1/63
f 128/1/64 118/1/64 117/1/64
f 127/1/65 119/1/65 126/1/65
f 141/1/1 143/1/1 142/1/1
f 137/1/66 129/1/66 132/1/66
f 138/1/67 132/1/67 131/1/67
f 129/1/68 139/1/68 130/1/68
f 130/1/69 138/1/69 131/1/69
f 142/1/70 134/1/70 141/1/70
f 143/1/71 133/1/71 136/1/71
f 141/1/72 133/1/72 144/1/72
f 142/1/73 136/1/73 135/1/73
f 160/1/1 158/1/1 157/1/1
f 148/1/74 156/1/74 145/1/74
f 147/1/75 153/1/75 148/1/75
f 156/1/76 146/1/76 145/1/76
f 155/1/77 147/1/77 146/1/77
f 157/1/78 151/1/78 150/1/78
f 160/1/79 152/1/79 159/1/79
f 160/1/80 150/1/80 149/1/80
f 159/1/81 151/1/81 158/1/81
f 16/1/1 15/1/1 14/1/1
f 9/1/2 12/1/2 1/1/2
f 3/1/3 10/1/3 9/1/3
f 12/1/4 11/1/4 2/1/4
f 2/1/5 11/1/5 10/1/5
f 14/1/6 7/1/6 6/1/6
f 15/1/7 16/1/7 5/1/7
f 13/1/8 6/1/8 5/1/8
f 14/1/9 15/1/9 8/1/9
f 29/1/1 32/1/1 31/1/1
f 20/1/10 25/1/10 28/1/10
f 19/1/11 26/1/11 25/1/11
f 28/1/12 27/1/12 18/1/12
f 27/1/13 26/1/13 19/1/13
f 29/1/14 30/1/14 23/1/14
f 32/1/15 21/1/15 24/1/15
f 32/1/16 29/1/16 22/1/16
f 31/1/17 24/1/17 23/1/17
f 48/1/1 47/1/1 46/1/1
f 41/1/18 44/1/18 33/1/18
f 35/1/19 42/1/19 41/1/19
f 44/1/20 43/1/20 34/1/20
f 34/1/21 43/1/21 42/1/21
f 46/1/22 39/1/22 38/1/22
f 47/1/23 48/1/23 37/1/23
f 48/1/24 45/1/24 38/1/24
f 47/1/25 40/1/25 39/1/25
f 64/1/1 63/1/1 62/1/1
f 57/1/26 60/1/26 49/1/26
f 58/1/27 57/1/27 52/1/27
f 49/1/28 60/1/28 59/1/28
f 50/1/29 59/1/29 58/1/29
f 62/1/30 55/1/30 54/1/30
f 63/1/31 64/1/31 53/1/31
f 61/1/32 54/1/32 53/1/32
f 62/1/33 63/1/33 56/1/33
f 80/1/1 79/1/1 78/1/1
f 73/1/34 76/1/34 65/1/34
f 74/1/35 73/1/35 68/1/35
f 65/1/36 76/1/36 75/1/36
f 66/1/37 75/1/37 74/1/37
f 78/1/38 71/1/38 70/1/38
f 79/1/39 80/1/39 69/1/39
f 77/1/40 70/1/40 69/1/40
f 78/1/41 79/1/41 72/1/41
f 96/1/1 95/1/1 94/1/1
f 84/1/42 89/1/42 92/1/42
f 83/1/43 90/1/43 89/1/43
f 92/1/44 91/1/44 82/1/44
f 91/1/45 90/1/45 83/1/45
f 93/1/46 94/1/46 87/1/46
f 96/1/47 85/1/47 88/1/47
f 96/1/48 93/1/48 86/1/48
f 95/1/49 88/1/49 87/1/49
f 112/1/1 111/1/1 110/1/1
f 105/1/50 108/1/50 97/1/50
f 106/1/51 105/1/51 100/1/51
f 97/1/52 108/1/52 107/1/52
f 98/1/53 107/1/53 106/1/53
f 110/1/54 103/1/54 102/1/54
f 111/1/55 112/1/55 101/1/55
f 109/1/56 102/1/56 101/1/56
f 110/1/57 111/1/57 104/1/57
f 125/1/1 128/1/1 127/1/1
f 116/1/58 121/1/58 124/1/58
f 115/1/59 122/1/59 121/1/59
f 124/1/60 123/1/60 114/1/60
f 123/1/61 122/1/61 115/1/61
f 125/1/62 126/1/62 119/1/62
f 128/1/63 117/1/63 120/1/63
f 128/1/64 125/1/64 118/1/64
f 127/1/65 120/1/65 119/1/65
f 141/1/1 144/1/1 143/1/1
f 137/1/66 140/1/66 129/1/66
f 138/1/67 137/1/67 132/1/67
f 129/1/68 140/1/68 139/1/68
f 130/1/69 139/1/69 138/1/69
f 142/1/70 135/1/70 134/1/70
f 143/1/71 144/1/71 133/1/71
f 141/1/72 134/1/72 133/1/72
f 142/1/73 143/1/73 136/1/73
f 160/1/1 159/1/1 158/1/1
f 148/1/74 153/1/74 156/1/74
f 147/1/75 154/1/75 153/1/75
f 156/1/76 155/1/76 146/1/76
f 155/1/77 154/1/77 147/1/77
f 157/1/78 158/1/78 151/1/78
f 160/1/79 149/1/79 152/1/79
f 160/1/80 157/1/80 150/1/80
f 159/1/81 152/1/81 151/1/81
