<?xml version="1.0" encoding="UTF-8" standalone="no"?>
<!-- Created with Inkscape (http://www.inkscape.org/) -->

<svg
   width="64"
   height="64"
   viewBox="0 0 64 64"
   version="1.1"
   id="SVGRoot"
   xmlns="http://www.w3.org/2000/svg"
   xmlns:svg="http://www.w3.org/2000/svg">
  <defs
     id="defs429" />
  <g
     id="layer5"
     transform="translate(-370)">
    <g
       id="g7869">
      <path
         id="path7832"
         style="fill:none;fill-opacity:1;fill-rule:nonzero;stroke:#ffffff;stroke-width:5.37827;stroke-linecap:round;stroke-linejoin:round;stroke-miterlimit:10;stroke-dasharray:none;stroke-dashoffset:0;stroke-opacity:1;paint-order:stroke fill markers;stop-color:#000000"
         d="m 229.75391,2.5253906 c -2.09749,0.1276953 -3.78856,2.0908125 -3.6875,4.1746094 0.0108,16.999562 -0.0216,34.000876 0.0162,50.999343 0.0724,2.102913 1.99094,3.857746 4.08381,3.800657 12.03289,-0.01079 24.06754,0.02159 36.09934,-0.0162 2.10291,-0.07243 3.85775,-1.990934 3.80066,-4.083803 0.15805,-1.549276 -0.33173,-3.249749 -1.67726,-4.153187 -1.50936,-1.131355 -3.48094,-0.640448 -5.22274,-0.746813 -9.35892,-0.01433 -18.72252,0.02866 -28.07852,-0.02148 -0.0501,-10.873449 -0.007,-21.754491 -0.0215,-32.63086 0.0143,-2.774809 -0.0286,-5.554282 0.0215,-8.326172 10.35578,-0.05554 20.72003,0.0036 31.07819,-0.02958 C 268.26892,11.462026 270.07338,9.59742 270.06641,7.5 270.20784,5.9961966 269.83394,4.3331351 268.5684,3.382843 267.14886,2.1536453 265.17884,2.5690356 263.46641,2.5 252.26684,2.510793 241.06553,2.478411 229.86706,2.516197 l -0.0997,0.0081 z" />
      <path
         id="path7834"
         style="fill:none;fill-opacity:1;fill-rule:nonzero;stroke:#ffffff;stroke-width:5.37827;stroke-linecap:round;stroke-linejoin:round;stroke-miterlimit:10;stroke-dasharray:none;stroke-dashoffset:0;stroke-opacity:1;paint-order:stroke fill markers;stop-color:#000000"
         d="m 245.22807,33.832319 c 11.33333,0.05599 22.66667,0.111979 34,0.167969 0.007,-1.333333 0.013,-2.666667 0.0195,-4 -11.33333,-0.05599 -22.66666,-0.111979 -34,-0.167969 -0.007,1.333334 -0.013,2.666667 -0.0195,4 z" />
      <path
         id="path2"
         style="fill:none;stroke:#000000;stroke-width:6.4252;stroke-linecap:round;stroke-linejoin:round;stroke-miterlimit:1.7;stroke-dasharray:none;paint-order:markers fill stroke"
         d="m 399.65039,6.6816406 c -3.06298,0.3202977 -6.06637,1.1481136 -8.83858,2.494417 -3.44887,1.7110804 -6.51253,4.1878134 -8.87732,7.2292084 -2.81661,3.635284 -4.64059,8.039389 -5.16428,12.612307 -0.49223,4.017974 0.0336,8.142478 1.44195,11.934543 1.61044,4.22922 4.33607,8.040407 7.88549,10.857716 3.14491,2.548913 6.92339,4.296355 10.88842,5.102586 4.50739,0.904053 9.2617,0.570581 13.58677,-0.997485 3.8174,-1.351374 7.27806,-3.659236 10.0449,-6.612748 3.09268,-3.349731 5.29337,-7.528115 6.22608,-11.996204 0.86506,-3.954377 0.72215,-8.110768 -0.32989,-12.016355 -1.2189,-4.399454 -3.61656,-8.475397 -6.9289,-11.62452 -3.06392,-2.960821 -6.90117,-5.1063735 -11.01349,-6.2116521 -2.90538,-0.7851704 -5.9249,-1.0074075 -8.92115,-0.7718133 z" />
      <path
         style="fill:none;stroke:#000000;stroke-width:6.80315;stroke-linecap:round;stroke-linejoin:round;stroke-miterlimit:1.7;stroke-dasharray:none;paint-order:markers fill stroke"
         d="m 402.46638,18.323458 v 14.115198 l 12.76953,10.361905"
         id="path3" />
    </g>
  </g>
</svg>
