<?xml version="1.0" encoding="UTF-8" standalone="no"?>
<!-- Created with Inkscape (http://www.inkscape.org/) -->

<svg
   width="1920"
   height="1080"
   viewBox="0 0 1920 1080"
   version="1.1"
   id="svg5"
   xml:space="preserve"
   xmlns="http://www.w3.org/2000/svg"
   xmlns:svg="http://www.w3.org/2000/svg"><defs
     id="defs2" /><g
     id="layer7"
     transform="translate(-4931.2192)"><g
       id="g66"
       transform="translate(845.80624,72.080817)"><g
         id="g62"
         transform="translate(-196.61018,-248.3497)"><path
           style="fill:#000000;fill-opacity:1;stroke:#000000;stroke-width:39.489;stroke-linecap:round;stroke-linejoin:round;stroke-miterlimit:1.7;stroke-dasharray:none;paint-order:markers fill stroke"
           d="m 5209.135,397.35952 h 300.0892"
           id="path61" /><path
           style="fill:#000000;fill-opacity:1;stroke:#ff8080;stroke-width:27.489;stroke-linecap:round;stroke-linejoin:round;stroke-miterlimit:1.7;stroke-dasharray:none;paint-order:markers fill stroke"
           d="m 5209.135,397.35952 h 66.2266"
           id="path62" /></g><text
         xml:space="preserve"
         style="font-style:normal;font-variant:normal;font-weight:normal;font-stretch:normal;font-size:100px;font-family:QuinqueFive;-inkscape-font-specification:QuinqueFive;text-align:center;writing-mode:lr-tb;direction:ltr;text-anchor:middle;fill:#0000ff;fill-opacity:1;stroke:#ff8080;stroke-width:27.489;stroke-linecap:round;stroke-linejoin:round;stroke-miterlimit:1.7;stroke-dasharray:none;paint-order:markers fill stroke"
         x="5185.4346"
         y="115.89653"
         id="text62"><tspan
           id="tspan62"
           x="5185.4346"
           y="115.89653"
           style="font-style:normal;font-variant:normal;font-weight:normal;font-stretch:normal;font-family:'Days One';-inkscape-font-specification:'Days One';stroke:none">slider</tspan></text></g><g
       id="g65"
       transform="translate(-578.04878)"><g
         id="g64"
         transform="translate(-2.0695808,80.713653)"><rect
           style="fill:#ff8080;fill-opacity:1;stroke:#000000;stroke-width:10;stroke-linecap:round;stroke-linejoin:round;stroke-miterlimit:1.7;stroke-dasharray:none;stroke-opacity:1;paint-order:markers fill stroke"
           id="rect62"
           width="496.6994"
           height="138.4888"
           x="5623.4336"
           y="90.877083"
           ry="28.974133" /><text
           xml:space="preserve"
           style="font-style:normal;font-variant:normal;font-weight:normal;font-stretch:normal;font-size:96.3387px;font-family:'Days One';-inkscape-font-specification:'Days One';text-align:center;writing-mode:lr-tb;direction:ltr;text-anchor:middle;fill:#800080;fill-opacity:1;stroke:#b3ff80;stroke-width:9.63387;stroke-linecap:round;stroke-linejoin:round;stroke-miterlimit:1.7;stroke-dasharray:none;stroke-opacity:1;paint-order:markers fill stroke"
           x="5881.4263"
           y="189.00421"
           id="text64"><tspan
             id="tspan64"
             x="5881.4263"
             y="189.00421"
             style="font-style:normal;font-variant:normal;font-weight:normal;font-stretch:normal;font-family:QuinqueFive;-inkscape-font-specification:QuinqueFive;fill:#800080;stroke:none;stroke-width:9.63387">text</tspan></text></g><text
         xml:space="preserve"
         style="font-style:normal;font-variant:normal;font-weight:normal;font-stretch:normal;font-size:100px;font-family:QuinqueFive;-inkscape-font-specification:QuinqueFive;text-align:end;writing-mode:lr-tb;direction:ltr;text-anchor:end;fill:#0000ff;fill-opacity:1;stroke:#ff8080;stroke-width:27.489;stroke-linecap:round;stroke-linejoin:round;stroke-miterlimit:1.7;stroke-dasharray:none;paint-order:markers fill stroke"
         x="6129.0693"
         y="157.81024"
         id="text65"><tspan
           id="tspan65"
           x="6129.0693"
           y="157.81024"
           style="font-style:normal;font-variant:normal;font-weight:normal;font-stretch:normal;font-family:'Days One';-inkscape-font-specification:'Days One';text-align:end;text-anchor:end;stroke:none">button</tspan></text></g><g
       id="g68"
       transform="translate(-578.04878,277.32383)"><g
         id="g67"
         transform="translate(-2.0695808,80.713653)"><text
           xml:space="preserve"
           style="font-style:normal;font-variant:normal;font-weight:normal;font-stretch:normal;font-size:96.3387px;font-family:'Days One';-inkscape-font-specification:'Days One';text-align:center;writing-mode:lr-tb;direction:ltr;text-anchor:middle;fill:#800080;fill-opacity:1;stroke:#b3ff80;stroke-width:9.63387;stroke-linecap:round;stroke-linejoin:round;stroke-miterlimit:1.7;stroke-dasharray:none;stroke-opacity:1;paint-order:markers fill stroke"
           x="5881.4263"
           y="189.00421"
           id="text66"><tspan
             id="tspan66"
             x="5881.4263"
             y="189.00421"
             style="font-style:normal;font-variant:normal;font-weight:normal;font-stretch:normal;font-family:QuinqueFive;-inkscape-font-specification:QuinqueFive;fill:#800080;stroke:none;stroke-width:9.63387">text</tspan></text></g><text
         xml:space="preserve"
         style="font-style:normal;font-variant:normal;font-weight:normal;font-stretch:normal;font-size:100px;font-family:QuinqueFive;-inkscape-font-specification:QuinqueFive;text-align:end;writing-mode:lr-tb;direction:ltr;text-anchor:end;fill:#0000ff;fill-opacity:1;stroke:#ff8080;stroke-width:27.489;stroke-linecap:round;stroke-linejoin:round;stroke-miterlimit:1.7;stroke-dasharray:none;paint-order:markers fill stroke"
         x="6129.0693"
         y="157.81024"
         id="text67"><tspan
           id="tspan67"
           x="6129.0693"
           y="157.81024"
           style="font-style:normal;font-variant:normal;font-weight:normal;font-stretch:normal;font-family:'Days One';-inkscape-font-specification:'Days One';text-align:end;text-anchor:end;stroke:none">ud button</tspan></text></g><g
       id="g70"
       transform="translate(-578.0484,512.31175)"><g
         id="g69"
         transform="translate(-87.984408,80.713653)"><path
           id="rect68"
           d="m 5752.6867,90.877083 h 438.4866 c 16.042,0 19.631,12.915397 8.0457,28.960317 l -58.155,80.54053 c -11.5951,16.05842 -33.8535,28.98795 -49.9051,28.98795 h -438.7512 c -16.0516,0 -19.6103,-12.92953 -7.9804,-28.98795 l 58.329,-80.54053 c 11.6201,-16.04492 33.8884,-28.960317 49.9304,-28.960317 z"
           style="fill:#ff8080;fill-opacity:1;stroke:#000000;stroke-width:10;stroke-linecap:round;stroke-linejoin:round;stroke-miterlimit:1.7;stroke-dasharray:none;stroke-opacity:1;paint-order:markers fill stroke" /><path
           style="font-size:96.3387px;font-family:QuinqueFive;-inkscape-font-specification:QuinqueFive;text-align:center;text-anchor:middle;fill:#800080;stroke-width:9.63387;stroke-linecap:round;stroke-linejoin:round;stroke-miterlimit:1.7;paint-order:markers fill stroke"
           d="m 5700.1938,111.95213 h 96.3387 v 19.23951 h -38.526 v 77.09919 h -19.2866 v -77.09919 h -38.5261 z m 211.964,19.23951 h -77.0522 v 19.28656 h 57.7656 v 19.23952 h -57.7656 v 19.28655 h 77.0522 v 19.28656 h -96.3387 v -96.3387 h 96.3387 z m 19.2865,77.09919 v -19.28656 h 19.2866 v 19.28656 z m 0,-96.3387 h 19.2866 v 19.23951 h -19.2866 z m 77.0522,77.05214 h -19.2395 v -19.28655 h 19.2395 z m 19.2865,19.28656 h -19.2865 v -19.28656 h 19.2865 z m -77.0521,-19.28656 v -19.28655 h 19.2395 v 19.28655 z m 57.7656,-57.81263 v 19.28656 h -19.2395 v -19.28656 z m -57.7656,0 h 19.2395 v 19.28656 h -19.2395 z m 77.0521,-19.23951 v 19.23951 h -19.2865 v -19.23951 z m -57.8126,38.52607 h 19.2866 v 19.23952 h -19.2866 z m 77.0992,-38.52607 h 96.3387 v 19.23951 h -38.5261 v 77.09919 h -19.2865 v -77.09919 h -38.5261 z"
           id="text68"
           aria-label="text" /></g><path
         style="font-size:62.0795px;font-family:'Days One';-inkscape-font-specification:'Days One';text-align:end;text-anchor:end;fill:#0000ff;stroke-width:17.065;stroke-linecap:round;stroke-linejoin:round;stroke-miterlimit:1.7;paint-order:markers fill stroke"
         d="m 5616.3634,136.22521 q 0,-9.79085 15.7927,-9.79085 16.6111,0 16.6111,8.69961 0,0.78812 -0.5153,1.33374 -0.5153,0.51531 -1.3337,0.51531 h -4.5165 q -2.1825,0 -3.6678,-1.81873 -1.4853,-1.84905 -5.8503,-1.84905 -6.0018,0 -6.0018,2.90997 0,1.36406 2.334,2.27342 2.3644,0.90937 5.7291,1.60655 3.3949,0.66687 6.7596,1.7278 3.3646,1.06093 5.6987,3.39497 2.3643,2.30374 2.3643,5.85027 0,9.79086 -16.6717,9.79086 -16.6717,0 -16.6717,-8.66931 0,-0.81843 0.5153,-1.33374 0.5456,-0.54562 1.364,-0.54562 h 4.5166 q 2.1824,0 3.6677,1.84905 1.4853,1.81874 5.8503,1.81874 6.9415,0 6.9415,-2.90998 0,-1.36405 -2.3643,-2.27342 -2.3341,-0.90937 -5.7291,-1.60655 -3.3949,-0.72749 -6.7596,-1.75811 -3.3343,-1.06093 -5.6987,-3.39497 -2.3644,-2.33405 -2.3644,-5.81996 z m 39.0119,22.18858 v -39.73937 q 0,-0.81843 0.5153,-1.33374 0.5456,-0.54562 1.3338,-0.54562 h 6.7899 q 0.7881,0 1.3034,0.54562 0.5457,0.51531 0.5457,1.33374 v 12.15521 q 5.2137,-4.39527 11.0942,-4.39527 5.9109,0 9.609,3.60715 3.6981,3.57685 3.6981,10.97304 v 17.39924 q 0,0.78811 -0.5456,1.33373 -0.5153,0.51531 -1.3337,0.51531 h -6.7597 q -0.7881,0 -1.3337,-0.51531 -0.5153,-0.54562 -0.5153,-1.33373 v -17.39924 q 0,-7.24463 -5.7897,-7.24463 -3.789,0 -8.1236,4.33465 v 20.30922 q 0,0.78811 -0.5457,1.33373 -0.5153,0.51531 -1.3034,0.51531 h -6.7899 q -0.7882,0 -1.3338,-0.51531 -0.5153,-0.54562 -0.5153,-1.33373 z m 45.135,-1.9703 q -4.6681,-4.42559 -4.6681,-12.73115 0,-8.33587 4.6984,-12.79177 4.6984,-4.48621 13.0342,-4.48621 8.3359,0 13.004,4.36496 4.6681,4.33465 4.6681,12.45834 v 1.7278 q 0,0.81843 -0.5456,1.36405 -0.5153,0.51531 -1.3338,0.51531 h -22.8251 q 0.3031,3.7284 2.1219,5.42589 1.849,1.69749 5.8805,1.69749 4.0316,0 5.5169,-1.81874 1.4853,-1.81873 3.6677,-1.84905 h 4.5166 q 0.8184,0 1.3337,0.54562 0.5456,0.51531 0.5456,1.33374 0,8.69962 -16.5808,8.66931 -8.3662,0 -13.0342,-4.42559 z m 5.9715,-15.97456 h 14.0952 q -0.3032,-7.15369 -7.0325,-7.15369 -6.699,0 -7.0627,7.15369 z m 32.4644,17.61142 q -4.0012,-2.78873 -4.0012,-7.88119 0,-5.09245 4.0012,-7.82056 4.0315,-2.7281 10.3668,-2.7281 h 10.0333 q 0,-3.54653 -1.4853,-4.9409 -1.4853,-1.39436 -5.2137,-1.39436 -3.6981,0 -5.2137,1.84905 -1.4853,1.81873 -3.6677,1.81873 h -4.5166 q -0.8184,0 -1.364,-0.51531 -0.5153,-0.54562 -0.5153,-1.33374 0,-8.69961 16.5201,-8.69961 7.2144,0 11.5793,3.24341 4.365,3.2131 4.365,9.97273 v 18.76329 q 0,0.81843 -0.5153,1.33373 -0.5153,0.51531 -1.3338,0.51531 h -5.8502 q -0.8185,0 -1.3338,-0.51531 -0.5153,-0.54562 -0.5153,-1.33373 v -0.93968 q -4.7893,3.42528 -11.0639,3.39497 -6.2444,0 -10.2759,-2.78873 z m 11.0943,-11.54897 q -2.1219,0 -3.3647,1.03062 -1.2125,1.03061 -1.2125,2.66748 0,1.63686 1.2732,2.69779 1.2731,1.06093 3.6071,1.06093 4.6681,0 9.0027,-2.72811 v -4.72871 z m 50.2274,-11.79147 -4.6681,-0.18187 q -4.0922,0 -7.8206,4.48621 v 19.36954 q 0,0.81843 -0.5456,1.33373 -0.5153,0.51531 -1.3034,0.51531 h -6.79 q -0.8184,0 -1.3337,-0.51531 -0.5153,-0.5153 -0.5153,-1.33373 v -29.49383 q 0,-0.81843 0.5153,-1.33374 0.5456,-0.54562 1.3337,-0.54562 h 6.79 q 0.8184,0 1.3337,0.54562 0.5153,0.51531 0.5153,1.33374 v 1.90967 q 3.0919,-2.2431 5.9412,-3.30403 2.8797,-1.09124 7.5175,-1.09124 0.8184,0 1.3337,0.54562 0.5456,0.5153 0.5456,1.30342 v 4.60747 q 0,0.81843 -0.5456,1.33374 -0.5153,0.5153 -1.3337,0.5153 z m 9.6696,21.70358 q -4.6681,-4.42559 -4.6681,-12.73115 0,-8.33587 4.6984,-12.79177 4.6984,-4.48621 13.0343,-4.48621 8.3359,0 13.0039,4.36496 4.6681,4.33465 4.6681,12.45834 v 1.7278 q 0,0.81843 -0.5456,1.36405 -0.5153,0.51531 -1.3337,0.51531 h -22.8252 q 0.3032,3.7284 2.1219,5.42589 1.849,1.69749 5.8806,1.69749 4.0315,0 5.5168,-1.81874 1.4853,-1.81873 3.6678,-1.84905 h 4.5165 q 0.8184,0 1.3338,0.54562 0.5456,0.51531 0.5456,1.33374 0,8.69962 -16.5808,8.66931 -8.3662,0 -13.0343,-4.42559 z m 5.9715,-15.97456 h 14.0952 q -0.3031,-7.15369 -7.0324,-7.15369 -6.699,0 -7.0628,7.15369 z m 43.3162,20.40015 q -6.3352,0 -10.6093,-4.4559 -4.2437,-4.45591 -4.2437,-12.76146 0,-8.33587 4.3953,-12.76146 4.4256,-4.4559 11.8824,-4.4559 3.8497,0 8.7603,1.54592 v -9.30586 q 0,-0.81843 0.5153,-1.33374 0.5456,-0.54562 1.3337,-0.54562 h 6.7596 q 0.8185,0 1.3338,0.54562 0.5456,0.51531 0.5456,1.33374 v 39.73937 q 0,0.78811 -0.5456,1.33373 -0.5153,0.51531 -1.3338,0.51531 h -5.8199 q -0.8185,0 -1.3338,-0.51531 -0.5153,-0.54562 -0.5153,-1.33373 v -0.93968 q -4.7893,3.39497 -11.1246,3.39497 z m 3.6072,-27.09916 q -4.1831,0 -5.9109,2.36436 -1.7278,2.33404 -1.7278,7.51744 0,5.18339 1.6369,7.54775 1.6368,2.36435 4.9106,2.36435 3.304,0 7.669,-2.7281 v -15.85331 q -3.9103,-1.21249 -6.5778,-1.21249 z m 46.2565,-15.0955 q 0,-0.81843 0.5153,-1.33374 0.5456,-0.54562 1.3337,-0.54562 h 6.79 q 0.7881,0 1.3034,0.54562 0.5456,0.51531 0.5456,1.33374 v 9.30586 q 4.9106,-1.54592 8.7603,-1.54592 7.4568,0 11.8521,4.4559 4.3953,4.42559 4.3953,12.79177 0,17.18705 -19.2483,17.18705 -4.3953,0 -9.124,-0.96999 -4.6984,-1.00031 -7.1234,-2.42498 z m 10.488,16.30799 v 17.88423 q 2.6069,0.69718 6.6384,0.69718 4.0316,0 5.7897,-2.33404 1.7884,-2.33404 1.7884,-7.54775 0,-5.21371 -1.7581,-7.54775 -1.7278,-2.36436 -5.8806,-2.36436 -2.6675,0 -6.5778,1.21249 z m 30.6154,11.30647 v -17.36892 q 0,-0.81843 0.5153,-1.33374 0.5456,-0.54562 1.3337,-0.54562 h 6.79 q 0.7881,0 1.3034,0.54562 0.5456,0.51531 0.5456,1.33374 v 17.36892 q 0,7.27494 5.7594,7.27494 3.789,0 8.154,-4.36496 v -20.2789 q 0,-0.81843 0.5153,-1.33374 0.5456,-0.54562 1.3337,-0.54562 h 6.7596 q 0.8185,0 1.3338,0.54562 0.5456,0.51531 0.5456,1.33374 v 29.49383 q 0,0.78811 -0.5456,1.33373 -0.5153,0.51531 -1.3338,0.51531 h -6.7596 q -0.7881,0 -1.3337,-0.51531 -0.5153,-0.54562 -0.5153,-1.33373 v -1.93999 q -5.2137,4.39528 -11.1246,4.39528 -5.8806,0 -9.5787,-3.57685 -3.6981,-3.60716 -3.6981,-11.00335 z m 58.1692,7.39619 4.1528,-0.36374 h 1.1215 q 0.8185,0 1.3338,0.5153 0.5456,0.51531 0.5456,1.33374 v 3.24342 q 0,0.66686 -0.5456,1.21249 -0.5153,0.5153 -1.3338,0.63655 -3.0918,0.60625 -8.063,0.60625 -13.0343,0 -13.0343,-13.64052 v -28.55414 q 0,-0.81843 0.5153,-1.33374 0.5456,-0.54562 1.3338,-0.54562 h 6.7899 q 0.7881,0 1.3034,0.54562 0.5457,0.51531 0.5457,1.33374 v 10.12429 h 8.4571 q 0.7881,0 1.3034,0.51531 0.5456,0.51531 0.5456,1.33374 v 3.60716 q 0,0.81843 -0.5456,1.33374 -0.5153,0.51531 -1.3034,0.51531 h -8.4571 v 11.12459 q 0,3.09185 1.4549,4.78934 1.455,1.66717 3.88,1.66717 z m 27.6448,0 4.1528,-0.36374 h 1.1216 q 0.8184,0 1.3337,0.5153 0.5456,0.51531 0.5456,1.33374 v 3.24342 q 0,0.66686 -0.5456,1.21249 -0.5153,0.5153 -1.3337,0.63655 -3.0919,0.60625 -8.0631,0.60625 -13.0343,0 -13.0343,-13.64052 v -28.55414 q 0,-0.81843 0.5153,-1.33374 0.5457,-0.54562 1.3338,-0.54562 h 6.7899 q 0.7881,0 1.3034,0.54562 0.5457,0.51531 0.5457,1.33374 v 10.12429 h 8.4571 q 0.7881,0 1.3034,0.51531 0.5456,0.51531 0.5456,1.33374 v 3.60716 q 0,0.81843 -0.5456,1.33374 -0.5153,0.51531 -1.3034,0.51531 h -8.4571 v 11.12459 q 0,3.09185 1.455,4.78934 1.4549,1.66717 3.8799,1.66717 z m 14.6711,2.81904 q -4.7287,-4.36496 -4.7287,-12.85239 0,-8.51775 4.7287,-12.8524 4.7288,-4.36496 13.5799,-4.36496 8.8815,0 13.6102,4.36496 4.7288,4.33465 4.7288,12.8524 0,8.48743 -4.7288,12.85239 -4.7287,4.36497 -13.6102,4.36497 -8.8511,0 -13.5799,-4.36497 z m 7.6691,-20.73358 q -1.8794,2.45529 -1.8794,7.85087 0,5.39559 1.8794,7.88119 1.8793,2.48561 5.9108,2.48561 4.0619,0 5.9412,-2.48561 1.9097,-2.4856 1.9097,-7.88119 0,-5.39558 -1.9097,-7.85087 -1.8793,-2.45529 -5.9412,-2.45529 -4.0315,0 -5.9108,2.45529 z m 29.8272,22.64326 v -29.49383 q 0,-0.81843 0.5153,-1.33374 0.5456,-0.54562 1.3337,-0.54562 h 6.79 q 0.7881,0 1.3034,0.54562 0.5456,0.51531 0.5456,1.33374 v 1.90967 q 5.2137,-4.39527 11.0943,-4.39527 5.9109,0 9.609,3.60715 3.6981,3.57685 3.6981,10.97304 v 17.39924 q 0,0.78811 -0.5456,1.33373 -0.5153,0.51531 -1.3338,0.51531 h -6.7596 q -0.7881,0 -1.3337,-0.51531 -0.5154,-0.54562 -0.5154,-1.33373 v -17.39924 q 0,-7.24463 -5.7896,-7.24463 -3.789,0 -8.1237,4.33465 v 20.30922 q 0,0.78811 -0.5456,1.33373 -0.5153,0.51531 -1.3034,0.51531 h -6.79 q -0.7881,0 -1.3337,-0.51531 -0.5153,-0.54562 -0.5153,-1.33373 z"
         id="text69"
         aria-label="sheared button" /></g></g></svg>
