<?xml version="1.0" encoding="UTF-8" standalone="no"?>
<!-- Created with Inkscape (http://www.inkscape.org/) -->

<svg
   width="1920"
   height="1080"
   viewBox="0 0 1920 1080"
   version="1.1"
   id="svg5"
   xml:space="preserve"
   xmlns="http://www.w3.org/2000/svg"
   xmlns:svg="http://www.w3.org/2000/svg"><defs
     id="defs2" /><g
     id="layer8"
     transform="translate(-6977.3068)"><g
       id="g81"
       transform="translate(2135.0361,264.72808)"><rect
         style="fill:#0000ff;fill-opacity:1;stroke:none;stroke-width:10;stroke-linecap:round;stroke-linejoin:round;stroke-miterlimit:1.7;stroke-dasharray:none;stroke-opacity:1;paint-order:normal"
         id="rect78"
         width="770.2442"
         height="168.29269"
         x="5899.5752"
         y="545.17395"
         ry="0" /><text
         xml:space="preserve"
         style="font-style:normal;font-variant:normal;font-weight:normal;font-stretch:normal;font-size:100px;font-family:QuinqueFive;-inkscape-font-specification:QuinqueFive;text-align:center;writing-mode:lr-tb;direction:ltr;text-anchor:middle;fill:#0000ff;fill-opacity:1;stroke:#ff8080;stroke-width:27.489;stroke-linecap:round;stroke-linejoin:round;stroke-miterlimit:1.7;stroke-dasharray:none;paint-order:markers fill stroke"
         x="6671.8213"
         y="499.73099"
         id="text76"><tspan
           id="tspan76"
           x="6671.8213"
           y="499.73099"
           style="font-style:normal;font-variant:normal;font-weight:normal;font-stretch:normal;font-family:'Days One';-inkscape-font-specification:'Days One';text-align:end;text-anchor:end;stroke:none">text input</tspan></text><rect
         style="fill:#800080;fill-opacity:1;stroke:none;stroke-width:10;stroke-linecap:round;stroke-linejoin:round;stroke-miterlimit:1.7;stroke-dasharray:none;stroke-opacity:1;paint-order:normal"
         id="rect77"
         width="770.2442"
         height="168.29269"
         x="5890.9604"
         y="536.11951"
         ry="0" /><path
         id="rect79"
         style="fill:#ff8080;fill-opacity:1;stroke:none;stroke-width:10;stroke-linecap:round;stroke-linejoin:round;stroke-miterlimit:1.7;stroke-dasharray:none;stroke-opacity:1;paint-order:normal"
         d="m 5916.5742,698.41211 h 727.6309 a 11,11 135 0 0 11,-11 V 562.17383 a 11,11 45 0 0 -11,-11 h -727.6309 a 11,11 135 0 0 -11,11 v 125.23828 a 11,11 45 0 0 11,11 z" /><g
         id="g80"
         transform="translate(283.15755,464.67155)"><text
           xml:space="preserve"
           style="font-style:normal;font-variant:normal;font-weight:normal;font-stretch:normal;font-size:96.3387px;font-family:'Days One';-inkscape-font-specification:'Days One';text-align:center;writing-mode:lr-tb;direction:ltr;text-anchor:middle;fill:#800080;fill-opacity:1;stroke:#b3ff80;stroke-width:9.63387;stroke-linecap:round;stroke-linejoin:round;stroke-miterlimit:1.7;stroke-dasharray:none;stroke-opacity:1;paint-order:markers fill stroke"
           x="5648.5845"
           y="189.00421"
           id="text80"><tspan
             id="tspan80"
             x="5648.5845"
             y="189.00421"
             style="font-style:normal;font-variant:normal;font-weight:normal;font-stretch:normal;font-family:QuinqueFive;-inkscape-font-specification:QuinqueFive;text-align:start;text-anchor:start;fill:#800080;stroke:none;stroke-width:9.63387">text _</tspan></text></g></g><g
       id="g82"
       transform="translate(-3.7447494,-360.63158)"><g
         id="g74"
         transform="translate(2103.4007,-77.758058)"><rect
           style="fill:#800080;fill-opacity:1;stroke:none;stroke-width:10.7423;stroke-linecap:round;stroke-linejoin:round;stroke-miterlimit:1.7;stroke-dasharray:none;stroke-opacity:1;paint-order:normal"
           id="rect76"
           width="545.48511"
           height="181.50607"
           x="5573.2744"
           y="1011.3956"
           transform="matrix(1,0,-0.49905155,0.8665723,0,0)"
           ry="0" /><rect
           style="fill:#0000ff;fill-opacity:1;stroke:none;stroke-width:10.7423;stroke-linecap:round;stroke-linejoin:round;stroke-miterlimit:1.7;stroke-dasharray:none;stroke-opacity:1;paint-order:normal"
           id="rect75"
           width="545.48511"
           height="181.50607"
           x="5607.1938"
           y="1040.0969"
           transform="matrix(1,0,-0.49905155,0.8665723,0,0)"
           ry="0" /><rect
           style="fill:#ff8080;fill-opacity:1;stroke:none;stroke-width:10.7423;stroke-linecap:round;stroke-linejoin:round;stroke-miterlimit:1.7;stroke-dasharray:none;stroke-opacity:1;paint-order:normal"
           id="rect74"
           width="545.48511"
           height="181.50607"
           x="5589.2119"
           y="1024.9639"
           transform="matrix(1,0,-0.49905155,0.8665723,0,0)"
           ry="10.491329" /><path
           style="font-size:96.3387px;font-family:QuinqueFive;-inkscape-font-specification:QuinqueFive;text-align:center;text-anchor:middle;fill:#800080;stroke-width:9.63387;stroke-linecap:round;stroke-linejoin:round;stroke-miterlimit:1.7;paint-order:markers fill stroke"
           d="m 5083.5471,918.67994 h 96.3387 v 19.23951 h -38.526 v 77.09925 h -19.2866 v -77.09925 h -38.5261 z m 211.964,19.23951 h -77.0522 v 19.28656 h 57.7656 v 19.23952 h -57.7656 v 19.28655 h 77.0522 v 19.28662 h -96.3387 v -96.33876 h 96.3387 z m 19.2865,77.09925 v -19.28662 h 19.2866 v 19.28662 z m 0,-96.33876 h 19.2866 v 19.23951 h -19.2866 z m 77.0522,77.05214 h -19.2395 v -19.28655 h 19.2395 z m 19.2865,19.28662 h -19.2865 v -19.28662 h 19.2865 z m -77.0521,-19.28662 v -19.28655 h 19.2395 v 19.28655 z m 57.7656,-57.81263 v 19.28656 h -19.2395 v -19.28656 z m -57.7656,0 h 19.2395 v 19.28656 h -19.2395 z m 77.0521,-19.23951 v 19.23951 h -19.2865 v -19.23951 z m -57.8126,38.52607 h 19.2866 v 19.23952 h -19.2866 z m 77.0992,-38.52607 h 96.3387 v 19.23951 h -38.5261 v 77.09925 h -19.2865 v -77.09925 h -38.5261 z"
           id="path74"
           aria-label="text" /></g><path
         style="font-size:62.0795px;font-family:'Days One';-inkscape-font-specification:'Days One';text-align:end;text-anchor:end;fill:#0000ff;stroke-width:20.2754;stroke-linecap:round;stroke-linejoin:round;stroke-miterlimit:1.7;paint-order:markers fill stroke"
         d="m 7134.4955,754.96911 q 0,-11.63281 18.7638,-11.63281 19.7362,0 19.7362,10.33628 0,0.93639 -0.6123,1.58465 -0.6122,0.61226 -1.5846,0.61226 h -5.3662 q -2.593,0 -4.3578,-2.16089 -1.7647,-2.19691 -6.9509,-2.19691 -7.1309,0 -7.1309,3.45742 0,1.62068 2.7731,2.70112 2.8092,1.08045 6.8069,1.90879 4.0336,0.79233 8.0313,2.05286 3.9976,1.26052 6.7708,4.03366 2.8091,2.73715 2.8091,6.95089 0,11.63282 -19.8082,11.63282 -19.8081,0 -19.8081,-10.30027 0,-0.9724 0.6122,-1.58466 0.6483,-0.64827 1.6206,-0.64827 h 5.3663 q 2.593,0 4.3577,2.19691 1.7648,2.16091 6.951,2.16091 8.2474,0 8.2474,-3.45744 0,-1.62067 -2.8091,-2.70112 -2.7732,-1.08045 -6.807,-1.90879 -4.0335,-0.86436 -8.0312,-2.08887 -3.9616,-1.26052 -6.7708,-4.03366 -2.8093,-2.77316 -2.8093,-6.91488 z m 46.3513,26.36293 v -47.21556 q 0,-0.9724 0.6122,-1.58466 0.6483,-0.64827 1.5848,-0.64827 h 8.0672 q 0.9364,0 1.5486,0.64827 0.6484,0.61226 0.6484,1.58466 v 14.44198 q 6.1946,-5.22216 13.1814,-5.22216 7.0229,0 11.4167,4.28577 4.3938,4.24976 4.3938,13.0374 v 20.67257 q 0,0.93638 -0.6482,1.58465 -0.6122,0.61226 -1.5846,0.61226 h -8.0314 q -0.9364,0 -1.5846,-0.61226 -0.6123,-0.64827 -0.6123,-1.58465 v -20.67257 q 0,-8.60756 -6.8789,-8.60756 -4.5018,0 -9.6519,5.15013 v 24.13 q 0,0.93638 -0.6484,1.58465 -0.6122,0.61226 -1.5486,0.61226 h -8.0672 q -0.9365,0 -1.5848,-0.61226 -0.6122,-0.64827 -0.6122,-1.58465 z m 53.6263,-2.34097 q -5.5464,-5.25818 -5.5464,-15.12627 0,-9.9041 5.5824,-15.19829 5.5823,-5.33021 15.4863,-5.33021 9.9041,0 15.4504,5.18615 5.5464,5.15013 5.5464,14.80213 v 2.05285 q 0,0.97241 -0.6483,1.62067 -0.6122,0.61226 -1.5847,0.61226 H 7241.64 q 0.3601,4.42983 2.5211,6.44667 2.1968,2.01684 6.9868,2.01684 4.79,0 6.5548,-2.16091 1.7647,-2.16088 4.3577,-2.19691 h 5.3663 q 0.9724,0 1.5846,0.64827 0.6482,0.61226 0.6482,1.58466 0,10.33628 -19.7001,10.30027 -9.9401,0 -15.4863,-5.25818 z m 7.0949,-18.97986 h 16.7469 q -0.3602,-8.49952 -8.3555,-8.49952 -7.9593,0 -8.3914,8.49952 z m 38.5719,20.92466 q -4.7539,-3.31337 -4.7539,-9.36388 0,-6.0505 4.7539,-9.29185 4.79,-3.24134 12.3171,-3.24134 h 11.9209 q 0,-4.21374 -1.7647,-5.87043 -1.7647,-1.65668 -6.1946,-1.65668 -4.3938,0 -6.1945,2.19691 -1.7648,2.16089 -4.3577,2.16089 h -5.3663 q -0.9724,0 -1.6207,-0.61226 -0.6122,-0.64826 -0.6122,-1.58465 0,-10.33628 19.628,-10.33628 8.5717,0 13.7578,3.8536 5.1861,3.81758 5.1861,11.8489 v 22.29324 q 0,0.97241 -0.6122,1.58465 -0.6122,0.61226 -1.5847,0.61226 h -6.9508 q -0.9725,0 -1.5848,-0.61226 -0.6122,-0.64827 -0.6122,-1.58465 v -1.11646 q -5.6903,4.06968 -13.1454,4.03367 -7.4191,0 -12.2091,-3.31338 z m 13.1815,-13.72168 q -2.5211,0 -3.9977,1.22451 -1.4406,1.2245 -1.4406,3.16931 0,1.94481 1.5127,3.20533 1.5126,1.26053 4.2857,1.26053 5.5463,0 10.6964,-3.24136 v -5.61832 z m 59.6767,-14.00981 -5.5463,-0.21608 q -4.8621,0 -9.2919,5.3302 v 23.01354 q 0,0.97241 -0.6482,1.58465 -0.6123,0.61226 -1.5486,0.61226 h -8.0674 q -0.9724,0 -1.5847,-0.61226 -0.6122,-0.61224 -0.6122,-1.58465 v -35.04252 q 0,-0.9724 0.6122,-1.58466 0.6483,-0.64826 1.5847,-0.64826 h 8.0674 q 0.9723,0 1.5846,0.64826 0.6122,0.61226 0.6122,1.58466 v 2.26894 q 3.6736,-2.6651 7.0589,-3.92562 3.4215,-1.29654 8.9318,-1.29654 0.9724,0 1.5846,0.64827 0.6483,0.61224 0.6483,1.54863 v 5.47428 q 0,0.9724 -0.6483,1.58466 -0.6122,0.61224 -1.5846,0.61224 z m 11.4888,25.78669 q -5.5463,-5.25818 -5.5463,-15.12627 0,-9.9041 5.5823,-15.19829 5.5823,-5.33021 15.4864,-5.33021 9.9042,0 15.4504,5.18615 5.5463,5.15013 5.5463,14.80213 v 2.05285 q 0,0.97241 -0.6483,1.62067 -0.6122,0.61226 -1.5846,0.61226 h -27.1193 q 0.3602,4.42983 2.5211,6.44667 2.1968,2.01684 6.9869,2.01684 4.79,0 6.5547,-2.16091 1.7647,-2.16088 4.3578,-2.19691 h 5.3662 q 0.9724,0 1.5847,0.64827 0.6483,0.61226 0.6483,1.58466 0,10.33628 -19.7002,10.30027 -9.9401,0 -15.4864,-5.25818 z m 7.0949,-18.97986 h 16.7469 q -0.3601,-8.49952 -8.3554,-8.49952 -7.9593,0 -8.3915,8.49952 z m 51.4653,24.23804 q -7.527,0 -12.6052,-5.29419 -5.0421,-5.2942 -5.0421,-15.16228 0,-9.90411 5.2222,-15.16229 5.2582,-5.29419 14.1178,-5.29419 4.574,0 10.4084,1.83676 v -11.05658 q 0,-0.9724 0.6123,-1.58466 0.6482,-0.64827 1.5846,-0.64827 h 8.0313 q 0.9724,0 1.5847,0.64827 0.6482,0.61226 0.6482,1.58466 v 47.21556 q 0,0.93638 -0.6482,1.58465 -0.6123,0.61226 -1.5847,0.61226 h -6.9149 q -0.9724,0 -1.5847,-0.61226 -0.6122,-0.64827 -0.6122,-1.58465 v -1.11646 q -5.6903,4.03367 -13.2175,4.03367 z m 4.2858,-32.19734 q -4.97,0 -7.0229,2.80917 -2.0529,2.77314 -2.0529,8.9317 0,6.15854 1.9449,8.96771 1.9447,2.80916 5.8344,2.80916 3.9256,0 9.1118,-3.24134 V 753.4925 q -4.6459,-1.44059 -7.8153,-1.44059 z m 54.9588,-17.93543 q 0,-0.9724 0.6122,-1.58466 0.6483,-0.64827 1.5846,-0.64827 h 8.0674 q 0.9364,0 1.5487,0.64827 0.6482,0.61226 0.6482,1.58466 v 11.05658 q 5.8344,-1.83676 10.4084,-1.83676 8.8596,0 14.0818,5.29419 5.2222,5.25818 5.2222,15.1983 0,20.42046 -22.8695,20.42046 -5.2222,0 -10.8405,-1.15247 -5.5823,-1.1885 -8.4635,-2.8812 z m 12.4611,19.37602 v 21.24881 q 3.0973,0.82834 7.8873,0.82834 4.7901,0 6.8789,-2.77315 2.1249,-2.77314 2.1249,-8.96771 0,-6.19457 -2.0889,-8.96771 -2.0528,-2.80917 -6.9869,-2.80917 -3.1693,0 -7.8153,1.44059 z m 36.3751,13.43357 v -20.63655 q 0,-0.9724 0.6122,-1.58466 0.6483,-0.64826 1.5847,-0.64826 h 8.0674 q 0.9363,0 1.5486,0.64826 0.6482,0.61226 0.6482,1.58466 v 20.63655 q 0,8.64358 6.8429,8.64358 4.5019,0 9.6881,-5.18615 v -24.09398 q 0,-0.9724 0.6122,-1.58466 0.6482,-0.64826 1.5846,-0.64826 h 8.0313 q 0.9725,0 1.5847,0.64826 0.6483,0.61226 0.6483,1.58466 v 35.04252 q 0,0.93638 -0.6483,1.58465 -0.6122,0.61226 -1.5847,0.61226 h -8.0313 q -0.9364,0 -1.5846,-0.61226 -0.6122,-0.64827 -0.6122,-1.58465 v -2.30496 q -6.1946,5.22217 -13.2175,5.22217 -6.9869,0 -11.3808,-4.24977 -4.3938,-4.28577 -4.3938,-13.07341 z m 69.1126,8.78764 4.9341,-0.43217 h 1.3325 q 0.9725,0 1.5847,0.61224 0.6482,0.61226 0.6482,1.58466 v 3.8536 q 0,0.79232 -0.6482,1.4406 -0.6122,0.61224 -1.5847,0.75631 -3.6735,0.7203 -9.5799,0.7203 -15.4865,0 -15.4865,-16.20672 v -33.92605 q 0,-0.9724 0.6123,-1.58466 0.6482,-0.64827 1.5847,-0.64827 h 8.0673 q 0.9363,0 1.5486,0.64827 0.6484,0.61226 0.6484,1.58466 v 12.02898 h 10.0481 q 0.9364,0 1.5486,0.61226 0.6482,0.61225 0.6482,1.58465 v 4.28578 q 0,0.9724 -0.6482,1.58466 -0.6122,0.61225 -1.5486,0.61225 h -10.0481 v 13.21747 q 0,3.67352 1.7286,5.69036 1.7287,1.98082 4.6099,1.98082 z m 32.8456,0 4.9341,-0.43217 h 1.3326 q 0.9724,0 1.5846,0.61224 0.6483,0.61226 0.6483,1.58466 v 3.8536 q 0,0.79232 -0.6483,1.4406 -0.6122,0.61224 -1.5846,0.75631 -3.6736,0.7203 -9.58,0.7203 -15.4864,0 -15.4864,-16.20672 v -33.92605 q 0,-0.9724 0.6122,-1.58466 0.6484,-0.64827 1.5847,-0.64827 h 8.0673 q 0.9364,0 1.5486,0.64827 0.6484,0.61226 0.6484,1.58466 v 12.02898 h 10.0481 q 0.9364,0 1.5486,0.61226 0.6483,0.61225 0.6483,1.58465 v 4.28578 q 0,0.9724 -0.6483,1.58466 -0.6122,0.61225 -1.5486,0.61225 h -10.0481 v 13.21747 q 0,3.67352 1.7287,5.69036 1.7286,1.98082 4.6098,1.98082 z m 17.4312,3.34939 q -5.6183,-5.18615 -5.6183,-15.27032 0,-10.1202 5.6183,-15.27033 5.6185,-5.18615 16.1347,-5.18615 10.5524,0 16.1707,5.18615 5.6185,5.15013 5.6185,15.27033 0,10.08417 -5.6185,15.27032 -5.6183,5.18615 -16.1707,5.18615 -10.5162,0 -16.1347,-5.18615 z m 9.1119,-24.63421 q -2.233,2.91721 -2.233,9.32786 0,6.41067 2.233,9.36389 2.2329,2.95323 7.0228,2.95323 4.8261,0 7.0589,-2.95323 2.269,-2.95322 2.269,-9.36389 0,-6.41065 -2.269,-9.32786 -2.2328,-2.9172 -7.0589,-2.9172 -4.7899,0 -7.0228,2.9172 z m 35.4386,26.90315 v -35.04252 q 0,-0.9724 0.6123,-1.58466 0.6482,-0.64826 1.5846,-0.64826 h 8.0674 q 0.9364,0 1.5486,0.64826 0.6482,0.61226 0.6482,1.58466 v 2.26894 q 6.1946,-5.22216 13.1815,-5.22216 7.0229,0 11.4168,4.28577 4.3938,4.24976 4.3938,13.0374 v 20.67257 q 0,0.93638 -0.6482,1.58465 -0.6123,0.61226 -1.5848,0.61226 h -8.0313 q -0.9363,0 -1.5846,-0.61226 -0.6123,-0.64827 -0.6123,-1.58465 v -20.67257 q 0,-8.60756 -6.8788,-8.60756 -4.5019,0 -9.6521,5.15013 v 24.13 q 0,0.93638 -0.6482,1.58465 -0.6122,0.61226 -1.5486,0.61226 h -8.0674 q -0.9364,0 -1.5846,-0.61226 -0.6123,-0.64827 -0.6123,-1.58465 z"
         id="path81"
         aria-label="sheared button" /></g><g
       id="g84"
       transform="translate(2124.4455,-311.75364)"><path
         id="path85"
         style="fill:#0000ff;stroke-width:10;stroke-linecap:round;stroke-linejoin:round;stroke-miterlimit:1.7"
         d="m 6661.2047,546.29753 h -766.6735 v 49.2483 l 17,17 h 749.6735 l 39.0858,-33.12415 z" /><text
         xml:space="preserve"
         style="font-style:normal;font-variant:normal;font-weight:normal;font-stretch:normal;font-size:100px;font-family:QuinqueFive;-inkscape-font-specification:QuinqueFive;text-align:center;writing-mode:lr-tb;direction:ltr;text-anchor:middle;fill:#0000ff;fill-opacity:1;stroke:#ff8080;stroke-width:27.489;stroke-linecap:round;stroke-linejoin:round;stroke-miterlimit:1.7;stroke-dasharray:none;paint-order:markers fill stroke"
         x="6671.8213"
         y="499.73099"
         id="text82"><tspan
           id="tspan82"
           x="6671.8213"
           y="499.73099"
           style="font-style:normal;font-variant:normal;font-weight:normal;font-stretch:normal;font-family:'Days One';-inkscape-font-specification:'Days One';text-align:end;text-anchor:end;stroke:none">slider</tspan></text><path
         id="rect83"
         style="fill:#800080;stroke-width:10;stroke-linecap:round;stroke-linejoin:round;stroke-miterlimit:1.7"
         d="m 5889.6732,531.74389 h 754.7625 l 10,10 v 56.2483 h -764.7625 l -39.0858,-33.12415 z" /><rect
         style="fill:#ff8080;fill-opacity:1;stroke:none;stroke-width:10;stroke-linecap:round;stroke-linejoin:round;stroke-miterlimit:1.7;stroke-dasharray:none;stroke-opacity:1;paint-order:normal"
         id="rect86"
         width="766.6734"
         height="61.862652"
         x="5894.5312"
         y="540.50519"
         ry="5.5001006" /><path
         id="rect87"
         style="fill:#808080;fill-opacity:1;stroke:none;stroke-width:10;stroke-linecap:round;stroke-linejoin:round;stroke-miterlimit:1.7;stroke-dasharray:none;stroke-opacity:1;paint-order:normal"
         d="m 6024.9445,544.50416 c -25.8156,0.005 -51.6318,-0.008 -77.4472,0.0176 -1.0109,0.10004 -1.4846,1.23848 -1.3028,2.14141 0.012,16.8387 -0.033,33.67928 0.031,50.51679 0.1828,0.95472 1.2561,1.34622 2.1262,1.18752 25.7058,-0.004 51.4127,0.016 77.1179,-0.0215 0.9799,-0.16071 1.4044,-1.25653 1.2344,-2.1457 -0.012,-16.83206 0.033,-33.666 -0.031,-50.49688 -0.1422,-0.76363 -0.9696,-1.31271 -1.7286,-1.19922 z" /></g></g></svg>
