<?xml version="1.0" encoding="UTF-8" standalone="no"?>
<!-- Created with Inkscape (http://www.inkscape.org/) -->

<svg
   width="1920"
   height="1080"
   viewBox="0 0 1920 1080"
   version="1.1"
   id="svg5"
   xml:space="preserve"
   xmlns:xlink="http://www.w3.org/1999/xlink"
   xmlns="http://www.w3.org/2000/svg"
   xmlns:svg="http://www.w3.org/2000/svg"><defs
     id="defs2"><linearGradient
       id="linearGradient44"><stop
         style="stop-color:#ffd42a;stop-opacity:0.56356448;"
         offset="0"
         id="stop43" /><stop
         style="stop-color:#ffd42a;stop-opacity:0;"
         offset="1"
         id="stop44" /></linearGradient><linearGradient
       id="linearGradient41"><stop
         style="stop-color:#000000;stop-opacity:0.74117041;"
         offset="0"
         id="stop41" /><stop
         style="stop-color:#000000;stop-opacity:0;"
         offset="1"
         id="stop42" /></linearGradient><rect
       x="652.68292"
       y="1984.3903"
       width="614.63416"
       height="146.34146"
       id="rect8" /><rect
       x="450.73172"
       y="1703.4146"
       width="1068.2927"
       height="169.7561"
       id="rect7" /><rect
       x="355.31894"
       y="185.00128"
       width="394.20975"
       height="62.894527"
       id="rect25" /><rect
       x="355.31894"
       y="185.00128"
       width="394.20975"
       height="62.894527"
       id="rect27" /><rect
       x="355.31894"
       y="185.00128"
       width="394.20975"
       height="62.894527"
       id="rect29" /><rect
       x="355.31894"
       y="185.00128"
       width="565.35828"
       height="65.52758"
       id="rect31" /><linearGradient
       xlink:href="#linearGradient41"
       id="linearGradient42"
       x1="-2572.8494"
       y1="960.00006"
       x2="-2175.4724"
       y2="960.00006"
       gradientUnits="userSpaceOnUse"
       gradientTransform="translate(20.487805)" /><linearGradient
       xlink:href="#linearGradient44"
       id="linearGradient43"
       gradientUnits="userSpaceOnUse"
       gradientTransform="matrix(1,0,0,1.0165848,3903.5587,-1935.9215)"
       x1="-2572.8494"
       y1="960.00006"
       x2="-2175.4724"
       y2="960.00006" /><rect
       x="450.73172"
       y="1703.4146"
       width="1068.2927"
       height="169.7561"
       id="rect58" /></defs><g
     id="layer5"
     transform="translate(0,-1440)"><rect
       style="fill:url(#linearGradient43);stroke-width:4.29214;stroke-linecap:round;stroke-linejoin:round;stroke-miterlimit:1.7;paint-order:markers fill stroke"
       id="rect42"
       width="397.37686"
       height="2029.7106"
       x="1330.7095"
       y="-1974.8555"
       transform="rotate(90)" /><rect
       style="fill:url(#linearGradient42);stroke-width:4.25698;stroke-linecap:round;stroke-linejoin:round;stroke-miterlimit:1.7;paint-order:markers fill stroke"
       id="rect34"
       width="397.37686"
       height="1996.5973"
       x="-2552.3616"
       y="-38.298588"
       transform="rotate(-90)" /><text
       xml:space="preserve"
       id="text7"
       style="font-style:normal;font-variant:normal;font-weight:normal;font-stretch:normal;font-size:40px;font-family:QuinqueFive;-inkscape-font-specification:QuinqueFive;text-align:end;writing-mode:lr-tb;direction:ltr;white-space:pre;shape-inside:url(#rect7);display:inline;fill:#ffffff;stroke-width:3.77953;stroke-linecap:round;stroke-linejoin:round;stroke-miterlimit:1.7;paint-order:markers fill stroke"
       x="-312.05078"
       y="0"
       transform="translate(-20.875,264.76359)"><tspan
         x="672.82812"
         y="1740.0257"
         id="tspan2"><tspan
           style="text-align:center;text-anchor:middle;fill:#000000"
           id="tspan1">Well done bro</tspan></tspan></text><g
       id="g32"
       transform="translate(0,-6.762207)"><image
         preserveAspectRatio="none"
         width="64"
         height="64"
         xlink:href="../../src/main/resources/icons/__water.svg"
         id="image10"
         x="663.96906"
         y="2149.8511"
         style="stroke:none" /><text
         xml:space="preserve"
         id="text12"
         style="font-size:53.3333px;font-family:Arial;-inkscape-font-specification:Arial;text-align:center;white-space:pre;shape-inside:url(#rect25);display:inline;fill:#000000;stroke:none"
         transform="matrix(0.786,0,0,0.786,814.42631,2005.2761)"
         x="-90.677025"
         y="0"><tspan
           x="557.49816"
           y="233.81741"
           id="tspan4"><tspan
             style="font-family:QuinqueFive;-inkscape-font-specification:QuinqueFive;text-align:end;text-anchor:end"
             id="tspan3">120</tspan></tspan></text><text
         xml:space="preserve"
         style="font-style:normal;font-variant:normal;font-weight:normal;font-stretch:normal;font-size:40px;font-family:QuinqueFive;-inkscape-font-specification:QuinqueFive;text-align:center;writing-mode:lr-tb;direction:ltr;text-anchor:middle;fill:#000000;stroke-width:3.77953;stroke-linecap:round;stroke-linejoin:round;stroke-miterlimit:1.7;paint-order:markers fill stroke"
         x="1246.9225"
         y="2184.9961"
         id="text34"><tspan
           id="tspan34"
           x="1246.9225"
           y="2184.9961"></tspan></text></g><g
       id="g33"
       transform="translate(0,-3.3811035)"><image
         preserveAspectRatio="none"
         width="64"
         height="64"
         xlink:href="../../src/main/resources/icons/__money.svg"
         id="image14"
         x="663.96906"
         y="2222.8857"
         style="stroke:none" /><text
         xml:space="preserve"
         id="text21"
         style="font-style:normal;font-variant:normal;font-weight:normal;font-stretch:normal;font-size:53.3333px;font-family:QuinqueFive;-inkscape-font-specification:QuinqueFive;text-align:center;white-space:pre;shape-inside:url(#rect27);display:inline;fill:#000000;stroke:none"
         transform="matrix(0.786,0,0,0.786,814.42631,2083.0918)"
         x="-90.677025"
         y="0"><tspan
           x="557.49816"
           y="233.81741"
           id="tspan6"><tspan
             style="text-align:end;text-anchor:end"
             id="tspan5">999</tspan></tspan></text></g><g
       id="g34"><image
         preserveAspectRatio="none"
         width="64"
         height="64"
         xlink:href="../../src/main/resources/icons/__energy.svg"
         id="image22"
         x="663.96906"
         y="2295.9204"
         style="stroke:none" /><text
         xml:space="preserve"
         id="text23"
         style="font-size:53.3333px;font-family:Arial;-inkscape-font-specification:Arial;text-align:center;white-space:pre;shape-inside:url(#rect29);display:inline;fill:#000000;stroke:none"
         transform="matrix(0.786,0,0,0.786,821.27542,2160.9075)"
         x="-122.68221"
         y="0"><tspan
           x="493.48778"
           y="233.81741"
           id="tspan8"><tspan
             style="font-family:QuinqueFive;-inkscape-font-specification:QuinqueFive;text-align:end;text-anchor:end"
             id="tspan7">1000</tspan></tspan></text></g><g
       id="g31"><text
         xml:space="preserve"
         id="text30"
         style="font-style:normal;font-variant:normal;font-weight:normal;font-stretch:normal;font-size:53.3333px;font-family:QuinqueFive;-inkscape-font-specification:QuinqueFive;text-align:center;white-space:pre;shape-inside:url(#rect31);display:inline;fill:#000000;stroke:none"
         transform="matrix(0.786,0,0,0.786,686.75276,1927.4604)"
         x="-90.677025"
         y="0"><tspan
           x="408.59471"
           y="233.81741"
           id="tspan11"><tspan
             style="text-align:end;text-anchor:end"
             id="tspan9">1h19m35s</tspan></tspan></text><image
         preserveAspectRatio="none"
         width="64"
         height="64"
         xlink:href="../../resources/icons/__clock.svg"
         id="image1"
         x="663.23737"
         y="2066.6731" /></g><path
       style="fill:#ffd42a;stroke-width:3.77953;stroke-linecap:round;stroke-linejoin:round;stroke-miterlimit:1.7;paint-order:markers fill stroke"
       id="path34"
       d="m 2271.5348,2147.0798 c -64.8976,-41.9784 -127.8927,-86.8557 -191.5506,-130.6831 -58.783,-40.2564 -117.0415,-81.4982 -177.8857,-118.6422 -28.4585,-17.3733 -40.4099,-23.4908 -69.0117,-39.1278 -51.3602,-26.5132 -105.5928,-47.6674 -162.0351,-60.4928 -13.4511,-3.0565 -27.068,-5.3306 -40.602,-7.996 -53.7899,-8.2433 -108.7477,-11.1822 -162.9816,-5.3915 -28.4599,3.0387 -42.3283,6.7237 -69.9332,12.6229 -61.543,15.9006 -120.4351,40.2123 -180.4323,60.9449 -53.9153,17.5193 -108.5569,33.4047 -164.3068,44.0015 -12.2964,2.3373 -24.6839,4.1665 -37.0259,6.2497 -58.30468,8.4726 -117.25593,14.7564 -176.27237,13.8162 -54.83339,-0.8736 -74.77965,-4.3509 -131.65827,-10.2703 -115.28303,-15.1578 -227.10708,-46.9963 -336.07318,-87.0122 -52.68782,-19.3487 -104.26966,-41.5855 -156.40449,-62.3783 0,0 -3.34557,12.0253 -3.34557,12.0253 v 0 c 52.0094,22.0709 103.49168,45.4276 156.02821,66.2125 109.33455,43.2558 221.40264,79.4805 337.80529,97.8761 56.84338,7.4121 79.02376,11.8268 134.21689,13.7437 60.18248,2.0902 120.28691,-4.085 179.81619,-12.177 34.3357,-5.6311 40.8302,-6.2147 74.5598,-13.6308 44.2326,-9.7253 87.6506,-22.7902 130.8012,-36.4434 29.9511,-10.3216 59.8184,-20.8351 89.5557,-31.7606 23.2787,-8.5525 33.3617,-12.8508 57.2921,-20.2055 10.2143,-3.1392 20.5739,-5.7846 30.8608,-8.6769 26.9935,-6.1496 38.5925,-9.5299 66.472,-12.7906 52.1365,-6.0978 105.0339,-3.8149 156.7505,4.6486 32.1385,6.8085 43.5888,8.46 74.4304,17.8858 41.8892,12.802 82.3209,30.2515 121.5756,49.5413 30.476,16.0662 37.5648,19.3648 68.137,37.3937 60.9883,35.9659 119.4718,75.988 177.724,116.1667 63.3235,44.7221 126.1131,90.179 187.2579,137.8573 z" /><text
       xml:space="preserve"
       id="text8"
       style="font-style:normal;font-variant:normal;font-weight:normal;font-stretch:normal;font-size:40px;font-family:QuinqueFive;-inkscape-font-specification:QuinqueFive;text-align:center;writing-mode:lr-tb;direction:ltr;white-space:pre;shape-inside:url(#rect8);display:inline;fill:#000000;stroke-width:3.77953;stroke-linecap:round;stroke-linejoin:round;stroke-miterlimit:1.7;paint-order:markers fill stroke"
       transform="matrix(3.5109008,0,0,3.5109008,-2396.4075,-5286.5659)"><tspan
         x="791.97266"
         y="2021.0022"
         id="tspan12">You won</tspan></text><path
       style="fill:#ffd42a;stroke-width:3.77953;stroke-linecap:round;stroke-linejoin:round;stroke-miterlimit:1.7;paint-order:markers fill stroke"
       id="path44"
       d="m 2271.5348,2147.0798 c -64.8976,-41.9784 -127.8927,-86.8557 -191.5506,-130.6831 -58.783,-40.2564 -117.0415,-81.4982 -177.8857,-118.6422 -28.4585,-17.3733 -40.4099,-23.4908 -69.0117,-39.1278 -51.3602,-26.5132 -105.5928,-47.6674 -162.0351,-60.4928 -13.4511,-3.0565 -27.068,-5.3306 -40.602,-7.996 -53.7899,-8.2433 -108.7477,-11.1822 -162.9816,-5.3915 -28.4599,3.0387 -42.3283,6.7237 -69.9332,12.6229 -61.543,15.9006 -120.4351,40.2123 -180.4323,60.9449 -53.9153,17.5193 -108.5569,33.4047 -164.3068,44.0015 -12.2964,2.3373 -24.6839,4.1665 -37.0259,6.2497 -58.30468,8.4726 -117.25593,14.7564 -176.27237,13.8162 -54.83339,-0.8736 -74.77965,-4.3509 -131.65827,-10.2703 -115.28303,-15.1578 -227.10708,-46.9963 -336.07318,-87.0122 -52.68782,-19.3487 -104.26966,-41.5855 -156.40449,-62.3783 0,0 -3.34557,12.0253 -3.34557,12.0253 v 0 c 52.0094,22.0709 103.49168,45.4276 156.02821,66.2125 109.33455,43.2558 221.40264,79.4805 337.80529,97.8761 56.84338,7.4121 79.02376,11.8268 134.21689,13.7437 60.18248,2.0902 120.28691,-4.085 179.81619,-12.177 34.3357,-5.6311 40.8302,-6.2147 74.5598,-13.6308 44.2326,-9.7253 87.6506,-22.7902 130.8012,-36.4434 29.9511,-10.3216 59.8184,-20.8351 89.5557,-31.7606 23.2787,-8.5525 33.3617,-12.8508 57.2921,-20.2055 10.2143,-3.1392 20.5739,-5.7846 30.8608,-8.6769 26.9935,-6.1496 38.5925,-9.5299 66.472,-12.7906 52.1365,-6.0978 105.0339,-3.8149 156.7505,4.6486 32.1385,6.8085 43.5888,8.46 74.4304,17.8858 41.8892,12.802 82.3209,30.2515 121.5756,49.5413 30.476,16.0662 37.5648,19.3648 68.137,37.3937 60.9883,35.9659 119.4718,75.988 177.724,116.1667 63.3235,44.7221 126.1131,90.179 187.2579,137.8573 z" /><text
       xml:space="preserve"
       id="text58"
       style="font-style:normal;font-variant:normal;font-weight:normal;font-stretch:normal;font-size:100px;font-family:QuinqueFive;-inkscape-font-specification:QuinqueFive;text-align:end;writing-mode:lr-tb;direction:ltr;white-space:pre;shape-inside:url(#rect58);display:inline;fill:#ffffff;stroke-width:3.77953;stroke-linecap:round;stroke-linejoin:round;stroke-miterlimit:1.7;paint-order:markers fill stroke"
       x="-312.05078"
       y="0"
       transform="rotate(90,433.55206,1419.2654)"><tspan
         x="684.83008"
         y="1794.9431"
         id="tspan14"><tspan
           style="text-align:center;text-anchor:middle;fill:#000000"
           id="tspan13">LVL 3</tspan></tspan></text></g></svg>
