<?xml version="1.0" encoding="UTF-8" standalone="no"?>
<!-- Created with Inkscape (http://www.inkscape.org/) -->

<svg
   width="64"
   height="64"
   viewBox="0 0 64 64"
   version="1.1"
   id="SVGRoot"
   xmlns="http://www.w3.org/2000/svg"
   xmlns:svg="http://www.w3.org/2000/svg">
  <defs
     id="defs429" />
  <g
     id="layer6"
     transform="translate(-370)">
    <path
       id="path2"
       style="fill:none;stroke:#000000;stroke-width:6.4252;stroke-linecap:round;stroke-linejoin:round;stroke-miterlimit:1.7;stroke-dasharray:none;paint-order:markers fill stroke"
       d="m 399.65039,6.6816406 c -3.06298,0.3202977 -6.06637,1.1481136 -8.83858,2.494417 -3.44887,1.7110804 -6.51253,4.1878134 -8.87732,7.2292084 -2.81661,3.635284 -4.64059,8.039389 -5.16428,12.612307 -0.49223,4.017974 0.0336,8.142478 1.44195,11.934543 1.61044,4.22922 4.33607,8.040407 7.88549,10.857716 3.14491,2.548913 6.92339,4.296355 10.88842,5.102586 4.50739,0.904053 9.2617,0.570581 13.58677,-0.997485 3.8174,-1.351374 7.27806,-3.659236 10.0449,-6.612748 3.09268,-3.349731 5.29337,-7.528115 6.22608,-11.996204 0.86506,-3.954377 0.72215,-8.110768 -0.32989,-12.016355 -1.2189,-4.399454 -3.61656,-8.475397 -6.9289,-11.62452 -3.06392,-2.960821 -6.90117,-5.1063735 -11.01349,-6.2116521 -2.90538,-0.7851704 -5.9249,-1.0074075 -8.92115,-0.7718133 z" />
    <path
       style="fill:none;stroke:#000000;stroke-width:6.80315;stroke-linecap:round;stroke-linejoin:round;stroke-miterlimit:1.7;stroke-dasharray:none;paint-order:markers fill stroke"
       d="m 402.46638,18.323458 v 14.115198 l 12.76953,10.361905"
       id="path3" />
  </g>
</svg>
