<?xml version="1.0" encoding="UTF-8" standalone="no"?>
<!-- Created with Inkscape (http://www.inkscape.org/) -->

<svg
   width="64"
   height="64"
   viewBox="0 0 64 64"
   version="1.1"
   id="SVGRoot"
   xmlns="http://www.w3.org/2000/svg"
   xmlns:svg="http://www.w3.org/2000/svg">
  <defs
     id="defs429" />
  <g
     id="layer3"
     transform="translate(-148)">
    <path
       style="opacity:1;fill:#00751f;fill-opacity:1;fill-rule:nonzero;stroke:#005014;stroke-width:4.52875;stroke-linecap:round;stroke-linejoin:round;stroke-miterlimit:10;stroke-dasharray:none;stroke-dashoffset:0;stroke-opacity:1;paint-order:stroke fill markers;stop-color:#000000"
       d="m 157.78779,23.846711 c 0,0 15.88104,-5.775498 26.29309,-3.761594 10.41206,2.013909 23.27036,-5.838858 23.27036,-5.838858 l -5.71161,27.886198 c 0,0 -10.93384,1.951844 -21.5829,0.268894 -10.64907,-1.68295 -27.40798,7.352395 -27.40798,7.352395 z"
       id="path4337" />
    <g
       id="g6913">
      <path
         id="path6907"
         style="font-weight:bold;font-size:49.5606px;font-family:'Inria Sans';-inkscape-font-specification:'Inria Sans Bold';text-align:center;text-anchor:middle;opacity:1;fill:#000000;fill-opacity:1;fill-rule:nonzero;stroke:none;stroke-width:2.6655;stroke-linecap:round;stroke-linejoin:round;stroke-miterlimit:10;stroke-dasharray:none;stroke-dashoffset:0;stroke-opacity:1;paint-order:stroke fill markers;stop-color:#000000"
         d="m 178.64453,5.9375 c -1.93435,-0.057474 -3.74984,1.7603256 -3.38242,3.7285695 0.0274,1.1778605 0.41169,2.6127725 -0.46087,3.5772375 -1.58002,1.21495 -3.66158,1.855526 -4.77691,3.620006 -3.64092,4.781453 -3.0907,12.361748 1.54904,16.301726 2.84195,2.443668 6.71743,2.837176 9.9924,4.434747 1.01281,0.330645 1.72565,1.392812 1.43618,2.454902 -0.32797,1.363526 -1.85343,1.863656 -3.11169,1.771744 -2.89842,0.117677 -5.65138,-0.980246 -8.39448,-1.718931 -0.80939,-0.02168 -1.67558,0.02687 -2.25068,0.683316 -1.00231,0.924181 -1.03497,2.378192 -1.60164,3.546002 -0.6591,1.507757 -0.415,3.512481 1.0419,4.464773 1.74459,1.264111 4.01632,1.272506 5.90625,2.193217 1.09824,0.576799 0.68309,1.970781 0.70956,2.964565 -0.10711,1.486948 0.4755,3.160288 1.95469,3.75547 1.38843,0.610088 2.93201,0.220957 4.3931,0.316072 1.6392,0.02146 3.12735,-1.35488 3.13071,-3.01508 0.20258,-1.330701 -0.37639,-2.757899 0.22033,-4.019742 0.86642,-0.954593 2.283,-1.08907 3.27136,-1.896877 4.18853,-2.842489 5.78206,-8.557022 4.34726,-13.305175 -0.99952,-3.519893 -3.71406,-6.523092 -7.19824,-7.708956 -2.4882,-1.038091 -5.34078,-1.403382 -7.47116,-3.159305 -0.68062,-1.034135 0.0958,-2.694895 1.3929,-2.668432 2.7298,-0.418915 5.31983,0.840537 7.96452,1.244604 1.45209,0.113449 2.82939,-0.930543 3.13129,-2.353021 0.40047,-1.451725 1.38648,-2.867297 1.02887,-4.426276 -0.31942,-1.488588 -1.73853,-2.348303 -3.12935,-2.660319 -1.1516,-0.424818 -2.66388,-0.433066 -3.39604,-1.558431 -0.44282,-1.337036 0.0467,-2.7949799 -0.27757,-4.1644358 -0.2542,-1.6559474 -2.02298,-2.5918167 -3.58962,-2.3941577 -0.80946,0.086597 -1.61884,-0.046715 -2.42969,-0.00781 z" />
      <path
         id="text5634"
         style="font-weight:bold;font-size:49.5606px;font-family:'Inria Sans';-inkscape-font-specification:'Inria Sans Bold';text-align:center;text-anchor:middle;opacity:1;fill:#b2a000;fill-opacity:1;fill-rule:nonzero;stroke:none;stroke-width:2.6655;stroke-linecap:round;stroke-linejoin:round;stroke-miterlimit:10;stroke-dasharray:none;stroke-dashoffset:0;stroke-opacity:1;paint-order:stroke fill markers;stop-color:#000000"
         d="m 178.66602,7.9375 c -0.79002,-0.010496 -1.57932,0.5933431 -1.41982,1.4475758 0.13817,1.7473812 0.39527,3.8036752 -0.93551,5.1890292 -1.42399,1.398399 -3.65304,1.801497 -4.74598,3.578882 -3.07411,4.131345 -2.45923,10.759235 1.78559,13.871484 3.01256,2.138134 6.91894,2.34508 10.02054,4.29591 1.83062,1.185745 2.23654,3.911595 0.9061,5.619556 -0.92379,1.390008 -2.63581,1.912406 -4.23329,1.884914 -3.11718,0.139005 -6.10565,-0.914752 -9.03584,-1.809226 -0.90428,0.284194 -0.77282,1.438289 -1.16601,2.136719 -0.30492,0.909585 -1.02552,2.179709 -0.0907,2.954437 1.07204,0.79945 2.45363,0.958368 3.69549,1.36934 1.56857,0.325476 3.37551,1.111177 3.75262,2.838332 0.40528,1.318866 -0.16048,2.738196 0.26953,4.035156 0.6139,1.00375 1.88955,0.652565 2.8578,0.679559 0.81254,-0.04381 2.03983,0.271765 2.39415,-0.720574 0.31854,-1.552992 -0.34023,-3.192365 0.27968,-4.715285 0.42434,-1.39123 1.82341,-2.037136 3.06357,-2.531994 3.43429,-1.593575 5.27866,-5.537332 5.04748,-9.213038 -0.12092,-3.642659 -2.32686,-7.257281 -5.77224,-8.631728 -2.88703,-1.285029 -6.24195,-1.678548 -8.72005,-3.771237 -1.74436,-1.793143 -0.88251,-5.152372 1.4668,-5.953124 2.93703,-0.874562 5.92942,0.213203 8.77944,0.905629 0.57083,0.218725 1.36898,0.145435 1.55454,-0.548208 0.38597,-1.017608 0.72093,-2.059422 1.10156,-3.076171 0.18205,-0.698654 -0.28166,-1.337431 -0.94917,-1.524136 -1.77903,-0.704942 -4.087,-0.75129 -5.22542,-2.519331 -1.02251,-1.503378 -0.35556,-3.363607 -0.64377,-5.0209866 -0.17302,-0.8466673 -1.15347,-0.8153302 -1.82237,-0.7413935 -0.74033,0.053904 -1.47519,-0.072826 -2.21473,-0.030091 z" />
    </g>
  </g>
</svg>
