<?xml version="1.0" encoding="UTF-8" standalone="no"?>
<!-- Created with Inkscape (http://www.inkscape.org/) -->

<svg
   width="375"
   height="64"
   viewBox="0 0 375 64"
   version="1.1"
   id="SVGRoot"
   xmlns="http://www.w3.org/2000/svg"
   xmlns:svg="http://www.w3.org/2000/svg">
  <defs
     id="defs429" />
  <g
     id="layer9"
     transform="translate(0,-76.610329)">
    <g
       id="g1"
       transform="matrix(0.38487166,0,0,0.39069041,-227.75222,34.353941)">
      <path
         id="rect7"
         style="fill:#ffffff;stroke-width:4;stroke-linecap:round;stroke-linejoin:round;stroke-miterlimit:1.7;paint-order:markers fill stroke"
         d="m 1528.0352,109.56445 c -300.0443,0.007 -600.08864,0.008 -900.13286,0.0176 -13.88625,0.22467 -27.27159,9.0516 -32.80436,21.81417 -2.75966,6.02705 -3.57858,12.7664 -3.27774,19.33974 0.0109,28.39197 -0.0612,56.78514 0.0912,85.1763 0.77181,13.97361 10.27794,27.07193 23.38608,32.02417 5.72985,2.28586 11.98945,2.83242 18.10676,2.57725 298.87499,-0.007 597.75012,-0.008 896.62502,-0.0176 13.9984,-0.22273 27.4727,-9.20459 32.9353,-22.11664 2.6687,-5.98527 3.4373,-12.64445 3.1409,-19.14312 -0.01,-28.35215 0.048,-56.7054 -0.087,-85.05678 -0.7704,-13.90257 -10.1726,-26.95518 -23.1919,-31.95153 -4.6858,-1.86834 -9.7504,-2.75694 -14.7911,-2.66357 z" />
      <path
         id="rect4"
         style="stroke-width:4;stroke-linecap:round;stroke-linejoin:round;stroke-miterlimit:1.7;paint-order:markers fill stroke"
         d="m 628.89108,123.56446 h 900.14372 c 12.7811,0 23.0705,10.28948 23.0705,23.07058 v 86.80795 c 0,12.7811 -10.2894,23.07058 -23.0705,23.07058 H 628.89108 c -12.78111,0 -23.07058,-10.28948 -23.07058,-23.07058 v -86.80795 c 0,-12.7811 10.28947,-23.07058 23.07058,-23.07058 z" />
      <path
         id="text1"
         style="font-size:100px;font-family:'Days One';-inkscape-font-specification:'Days One';text-align:center;white-space:pre;fill:#ffffff;stroke-width:4;stroke-linecap:round;stroke-linejoin:round;stroke-miterlimit:1.7;paint-order:markers fill stroke"
         d="m 1066.4147,113.10851 c -0.5015,0.0143 -1.0144,0.0561 -1.5225,0.12498 -2.2817,0.30952 -5.196,1.28745 -10.4895,2.94951 -33.0573,10.58394 -38.5077,10.01485 -38.0047,13.7227 0.2418,1.78262 2.421,2.86713 5.1305,2.49958 2.6383,-0.35787 5.6315,-1.85436 8.8403,-2.28961 4.5635,-0.61903 10.214,-2.83768 11.9966,-3.07949 0.8557,-0.11607 1.0913,-0.004 1.3246,0.10998 0.9523,0.59698 3.739,8.282 6.8458,23.69104 3.7173,18.30351 5.2498,22.67022 8.7438,22.19628 2.353,-0.31919 2.7127,-1.96544 2.4612,-3.81936 -0.1064,-0.78435 -0.2945,-1.63327 -0.5531,-2.46959 -1.4675,-5.46505 -5.6744,-27.9123 -8.4292,-36.97881 l -1.5935,-4.79419 4.7043,-1.72971 c 2.9791,-1.05765 7.7503,-2.28603 10.2459,-2.62456 0.9983,-0.13542 7.619,-1.10562 7.2163,-4.60923 -0.2454,-1.80936 -3.4069,-2.99935 -6.9168,-2.89952 z m 54.7463,6.63889 c -12.8581,0 -22.6233,2.91172 -29.2965,8.73854 -6.6731,5.82683 -10.0074,15.07259 -10.0074,27.73535 0,12.66276 3.3343,21.92098 10.0074,27.78035 6.6732,5.82682 16.4384,8.74354 29.2965,8.74354 12.8906,0 22.6558,-2.91672 29.2965,-8.74354 6.6732,-5.85937 10.0125,-15.11759 10.0125,-27.78035 0,-12.66276 -3.3393,-21.90852 -10.0125,-27.73535 -6.6407,-5.82682 -16.4059,-8.73854 -29.2965,-8.73854 z m -658.3465,1.06982 c -11.36068,0 -19.36889,1.77594 -24.02384,5.32411 -4.65495,3.51563 -6.98284,8.54451 -6.98284,15.08748 0,3.54818 0.95681,6.64172 2.87738,9.27844 1.95313,2.60417 4.49219,4.65658 7.61719,6.15397 3.125,1.49739 6.54512,2.79758 10.25605,3.90435 3.74349,1.10677 7.50512,2.03584 11.28116,2.78453 3.77604,0.71615 7.2224,1.44593 10.3474,2.19463 6.9987,1.62761 10.49964,3.85685 10.49964,6.68888 0,3.74349 -2.86237,5.61906 -8.59154,5.61906 l -17.09173,-0.34494 c -5.33855,0 -8.77178,-1.59409 -10.30173,-4.7842 -1.52995,-3.1901 -3.75882,-4.7842 -6.68851,-4.7842 h -5.81059 c -1.07422,0 -2.18463,0.42344 -3.32395,1.26979 -1.13933,0.8138 -1.70512,2.17874 -1.70512,4.09931 0,5.14323 2.68252,9.44231 8.05362,12.89284 5.37109,3.41797 11.39292,5.12415 18.06609,5.12415 l 14.79795,0.29495 c 11.32813,0 19.31814,-1.75849 23.97309,-5.27412 4.6875,-3.54818 7.03359,-8.5945 7.03359,-15.13747 0,-4.78515 -1.82474,-8.77288 -5.47057,-11.96299 -3.61328,-3.22265 -8.0266,-5.5341 -13.23493,-6.93384 -5.20833,-1.39974 -10.39861,-2.58783 -15.57439,-3.5644 -5.14323,-1.00911 -9.53835,-2.16234 -13.18418,-3.46442 -3.61329,-1.30209 -5.41983,-2.97838 -5.41983,-5.02916 0,-3.74349 2.86745,-5.61406 8.59662,-5.61406 l 14.69645,0.28995 c 5.33854,0 8.77178,1.61153 10.30173,4.83419 1.52995,3.19011 3.75883,4.7842 6.68852,4.7842 h 5.81058 c 1.04167,0 2.13388,-0.42343 3.27321,-1.26979 1.13932,-0.84635 1.71019,-2.22873 1.71019,-4.1493 0,-5.14323 -2.68761,-9.42488 -8.0587,-12.84285 -5.33854,-3.45052 -11.34216,-5.17414 -18.01534,-5.17414 z m 266.89092,0 c -11.36067,0 -19.36889,1.77594 -24.02384,5.32411 -4.65495,3.51563 -6.98285,8.54451 -6.98285,15.08748 0,3.54818 0.96189,6.64172 2.88246,9.27844 1.95313,2.60417 4.49219,4.65658 7.61719,6.15397 3.125,1.49739 6.54512,2.79758 10.25605,3.90435 3.74349,1.10677 7.50004,2.03584 11.27608,2.78453 3.77604,0.71615 7.22748,1.44593 10.35248,2.19463 6.9987,1.62761 10.49965,3.85685 10.49965,6.68888 0,3.74349 -2.86745,5.61906 -8.59662,5.61906 l -17.08666,-0.34494 c -5.33855,0 -8.77178,-1.59409 -10.30173,-4.7842 -1.52995,-3.1901 -3.7639,-4.7842 -6.69359,-4.7842 h -5.81058 c -1.07422,0 -2.17956,0.42344 -3.31888,1.26979 -1.13932,0.8138 -1.71019,2.17874 -1.71019,4.09931 0,5.14323 2.6876,9.44231 8.05869,12.89284 5.37109,3.41797 11.39292,5.12415 18.06609,5.12415 l 14.79288,0.29495 c 11.32813,0 19.32321,-1.75849 23.97816,-5.27412 4.6875,-3.54818 7.02852,-8.5945 7.02852,-15.13747 0,-4.78515 -1.81967,-8.77288 -5.4655,-11.96299 -3.61328,-3.22265 -8.0266,-5.5341 -13.23493,-6.93384 -5.20833,-1.39974 -10.39861,-2.58783 -15.57439,-3.5644 -5.14323,-1.00911 -9.53835,-2.16234 -13.18418,-3.46442 -3.61329,-1.30209 -5.41983,-2.97838 -5.41983,-5.02916 0,-3.74349 2.86237,-5.61406 8.59154,-5.61406 l 14.69646,0.28995 c 5.33854,0 8.77685,1.61153 10.3068,4.83419 1.52995,3.19011 3.75883,4.7842 6.68852,4.7842 h 5.81058 c 1.04167,0 2.13388,-0.42343 3.27321,-1.26979 1.13932,-0.84635 1.70511,-2.22873 1.70511,-4.1493 0,-5.14323 -2.68253,-9.42488 -8.05362,-12.84285 -5.33854,-3.45052 -11.34723,-5.17414 -18.02041,-5.17414 z m -177.73275,0.39494 c -18.29427,0.0326 -29.10223,6.37905 -32.42254,19.04181 l -12.2555,46.48221 c -0.0977,0.42317 -0.16034,0.91137 -0.19284,1.46476 0,0.55339 0.27379,1.20598 0.82718,1.95467 0.55339,0.71615 1.46576,1.07482 2.73529,1.07482 h 9.61664 c 1.26953,0 2.47389,-0.42344 3.61321,-1.26979 1.13933,-0.87891 1.87185,-1.98481 2.19737,-3.31944 l 3.27321,-12.30794 h 34.71632 v 12.30794 c 0,1.33463 0.42233,2.44053 1.26868,3.31944 0.87891,0.84635 1.98933,1.26979 3.32396,1.26979 h 9.18021 c 1.26953,0 2.35668,-0.42344 3.26814,-1.26979 0.91145,-0.87891 1.37018,-1.95493 1.37018,-3.22446 V 125.7514 c 0,-1.20443 -0.40922,-2.26301 -1.22302,-3.17447 -0.78125,-0.91146 -1.77444,-1.36477 -2.97887,-1.36477 z m 43.11502,0 c -1.33463,0 -2.43997,0.43587 -3.31888,1.31478 -0.87891,0.87891 -1.31943,1.98481 -1.31943,3.31944 v 4.59423 c 0,1.33463 0.44052,2.44054 1.31943,3.31945 0.87891,0.84635 1.98425,1.26978 3.31888,1.26978 h 21.77573 v 51.70634 c 0,1.26953 0.44052,2.34555 1.31943,3.22446 0.91146,0.84635 2.00368,1.26979 3.27321,1.26979 h 9.22588 c 1.26953,0 2.34356,-0.42344 3.22247,-1.26979 0.91146,-0.87891 1.37018,-1.95493 1.37018,-3.22446 v -51.70634 h 21.77572 c 1.33463,0 2.43997,-0.42343 3.31888,-1.26978 0.87891,-0.87891 1.31944,-1.98482 1.31944,-3.31945 v -4.59423 c 0,-1.33463 -0.44053,-2.44053 -1.31944,-3.31944 -0.87891,-0.87891 -1.98425,-1.31478 -3.31888,-1.31478 z m 79.20153,0 c -1.26953,0 -2.36175,0.45331 -3.27321,1.36477 -0.91145,0.91146 -1.36511,1.99992 -1.36511,3.26945 v 60.8898 c 0,1.26953 0.45366,2.34555 1.36511,3.22446 0.91146,0.84635 2.00368,1.26979 3.27321,1.26979 h 9.07871 c 1.26953,0 2.36176,-0.44087 3.27321,-1.31978 0.94401,-0.91145 1.41585,-1.99992 1.41585,-3.26945 v -60.79482 c 0,-1.26953 -0.45364,-2.35799 -1.3651,-3.26945 -0.87891,-0.91146 -1.98933,-1.36477 -3.32396,-1.36477 z m 500.72998,0 c -1.2695,0 -2.3435,0.45331 -3.2224,1.36477 -0.8789,0.91146 -1.3195,1.99992 -1.3195,3.26945 v 60.79482 c 0,1.26953 0.4587,2.358 1.3702,3.26945 0.9115,0.87891 1.9987,1.31978 3.2682,1.31978 h 9.1802 c 1.2695,0 2.3435,-0.44087 3.2224,-1.31978 0.9115,-0.91145 1.3702,-1.99992 1.3702,-3.26945 v -20.99648 h 11.9104 c 4.8503,0 8.9848,2.67012 12.4027,8.00866 l 8.3023,12.98782 c 0.7813,1.26953 1.9048,2.358 3.3696,3.26945 1.4974,0.87891 2.8634,1.31978 4.1004,1.31978 h 11.7176 c 1.6601,0 2.4917,-0.69991 2.4917,-2.09965 0,-0.74869 -0.2606,-1.57812 -0.7815,-2.48958 l -8.8859,-14.11264 c -2.1484,-3.32031 -4.0539,-5.84347 -5.7141,-7.56873 -1.6601,-1.75781 -3.4668,-2.99323 -5.4199,-3.70938 12.2721,-2.40885 18.4112,-8.34936 18.4112,-17.82201 0,-6.80339 -2.3957,-12.20838 -7.1808,-16.21229 -4.7526,-4.00391 -10.8551,-6.00399 -18.3096,-6.00399 z m 71.3357,0 c -1.6927,0 -2.5374,0.77711 -2.5374,2.33961 0,0.71615 0.279,1.48081 0.8323,2.29461 l 26.074,40.38324 v 20.50656 c 0,1.26953 0.4537,2.34555 1.3651,3.22446 0.9115,0.84635 2.0037,1.26979 3.2732,1.26979 h 9.1803 c 1.2695,0 2.3435,-0.42344 3.2224,-1.26979 0.9115,-0.87891 1.3651,-1.95493 1.3651,-3.22446 v -20.50656 l 26.1248,-40.38324 c 0.5209,-0.8138 0.7815,-1.57846 0.7815,-2.29461 0,-1.5625 -0.8315,-2.33961 -2.4917,-2.33961 h -9.3274 c -3.6459,0 -6.4769,1.54177 -8.4951,4.63422 l -15.7723,24.36592 -15.818,-24.36592 c -1.9857,-3.09245 -4.8168,-4.63422 -8.4951,-4.63422 z m -240.5885,3.78436 c -0.1762,-9.7e-4 -0.3621,0.008 -0.5582,0.035 -4.9914,0.67706 -4.4826,4.9684 -2.9079,28.35525 0.6895,10.43592 0.7824,15.93853 0.1624,17.25711 -1.3512,-0.32503 -5.41363,-4.56767 -11.18977,-12.35293 -9.84929,-13.18734 -15.04833,-17.78104 -15.72156,-18.99682 -0.19345,-1.4261 -10.74492,-11.75946 -12.53969,-12.67788 -1.00434,-0.4447 -2.05166,-0.66532 -3.04992,-0.52991 -3.06611,0.41591 -3.52187,2.94451 -3.52187,2.94451 -0.38419,2.52108 2.72579,30.78498 3.97352,39.9833 1.3251,9.76876 2.28946,11.52481 6.28253,10.98316 2.42437,-0.32885 3.22727,-6.17521 2.50185,-11.52307 -0.32886,-2.42436 -1.02458,-3.27384 -1.83706,-9.26345 -0.95755,-7.05917 -1.52301,-16.05605 -1.28391,-19.64671 3.07961,3.43096 10.03427,10.25571 11.21519,13.07281 1.52057,3.71505 1.51128,2.04798 9.2817,12.75787 6.70198,9.25725 12.42655,13.99874 19.84229,12.99282 4.7061,-0.63837 4.6167,-5.05413 3.8872,-18.46191 -1.0367,-18.88497 -0.691,-26.48814 -1.223,-30.4099 -0.2086,-1.53751 -0.6711,-4.50462 -3.3138,-4.51925 z m -79.55676,6.78887 c -0.17237,6.9e-4 -0.32934,0.0156 -0.47195,0.035 -0.85566,0.11607 -1.37658,0.54889 -1.9893,0.84986 -1.5082,1.72953 -6.90758,15.96737 -9.05842,23.66604 -3.54162,12.9705 -4.29548,14.37943 -5.33356,15.82735 -1.69669,2.48127 -2.21798,8.28693 -2.96365,8.67854 -0.99219,0.71552 -1.29006,2.2846 -1.10629,3.63939 0.22246,1.64001 -2.45977,4.32819 -2.12124,6.82386 0.19344,1.4261 2.52438,1.47117 3.30873,1.36477 2.49567,-0.33853 3.45878,-2.8648 3.8974,-4.44925 0.91954,-3.39249 2.92763,-9.47551 6.58195,-16.79719 l 1.64929,-3.34444 5.08489,-1.05482 c 3.1797,-0.64917 7.40428,-1.65457 9.57604,-2.23963 l 3.0144,-0.77487 1.98422,4.44926 c 3.96698,8.90207 3.44562,10.93386 6.73419,12.15796 0.83271,0.25013 1.88978,0.546 2.74544,0.42993 1.71131,-0.23214 1.8364,-0.90405 1.72033,-1.75971 -0.44492,-3.28002 -4.92669,-11.16716 -6.39417,-16.63221 -1.71042,-5.64995 -4.46427,-10.94321 -5.07475,-13.83769 -0.39656,-2.92349 -8.15584,-15.16065 -9.8044,-16.60721 -0.80674,-0.32627 -1.46204,-0.427 -1.97915,-0.42493 z m 194.95136,1.1448 c 7.3568,0 12.6825,1.95277 15.9702,5.85902 3.2877,3.90625 4.9276,9.72968 4.9276,17.47708 0,7.71484 -1.6399,13.52583 -4.9276,17.43208 -3.2877,3.87369 -8.6134,5.81402 -15.9702,5.81402 -7.3242,0 -12.6449,-1.94033 -15.9652,-5.81402 -3.2877,-3.90625 -4.9326,-9.71724 -4.9326,-17.43208 0,-7.7474 1.6449,-13.57083 4.9326,-17.47708 3.3203,-3.90625 8.641,-5.85902 15.9652,-5.85902 z m -570.99494,2.09965 h 13.91495 v 25.48574 H 532.9779 l 4.29831,-15.67238 c 0.8138,-2.99479 2.37787,-5.371 4.68907,-7.12881 2.34375,-1.79037 5.07578,-2.68455 8.20078,-2.68455 z m 638.72244,0 h 20.8014 c 3.3529,0 6.296,0.66504 8.8351,1.99967 2.5716,1.33464 3.8568,3.46924 3.8568,6.39893 0,2.92969 -1.2852,5.0593 -3.8568,6.39393 -2.5391,1.33464 -5.4822,2.00466 -8.8351,2.00466 h -20.8014 z m -343.33684,6.43892 c -0.0637,0.003 -0.12822,0.0112 -0.19284,0.02 -1.5687,0.21279 -1.8413,1.40948 -1.61884,3.04949 0.65772,4.84873 2.13124,13.58082 4.20696,25.13579 4.94569,27.35922 5.06009,28.72389 11.90535,27.79535 9.91137,-1.34445 29.34021,-9.06274 32.07745,-11.90301 0.83024,-0.83879 1.44518,-1.64761 1.31944,-2.57457 -0.26115,-1.92523 -2.654,-2.98298 -4.0801,-2.78953 -0.85565,0.11607 -23.02077,9.07999 -28.00243,9.82835 -0.99827,0.13542 -1.286,0.17385 -1.55795,-0.22496 -2.53211,-3.14213 -7.58623,-39.34873 -10.36262,-45.3624 -0.20375,-0.4648 -1.71988,-3.06723 -3.69442,-2.97451 z m 81.09441,1.8447 c 1.70906,2.96331 5.17246,12.44131 5.4046,14.15263 0.20312,1.4974 -1.2114,1.76257 -6.5109,2.84452 l -4.66876,0.92485 c 0,0 2.32859,-11.20945 5.77506,-17.922 z m -109.60432,0.34494 c -0.58011,0.006 -1.22172,0.0916 -1.57824,0.13997 -4.77742,0.64805 -6.96554,2.18149 -11.74296,2.82953 -1.99653,0.27083 -2.02499,0.0562 -3.37978,0.23996 -2.13914,0.29017 -3.40062,1.69377 -5.85625,5.00416 -1.96257,2.66257 -3.69216,5.43986 -3.44068,7.29378 0.22246,1.64001 1.70176,2.38536 2.62872,2.25962 1.21218,-0.16443 2.39108,-1.12551 2.84186,-1.54974 l 0.65464,-0.52491 0.76121,5.63406 c 0.93821,6.91656 6.34233,32.83694 8.3175,39.90332 0.72407,2.66122 2.03996,3.78784 3.46605,3.59439 0.35653,-0.0484 0.70315,-0.16897 1.04033,-0.35994 2.20797,-1.38875 2.68904,-3.19387 2.06034,-7.82869 -0.29017,-2.13914 -0.81015,-4.90104 -1.51735,-8.50857 l -2.19736,-11.39309 3.42038,-0.46492 c 2.63827,-0.35788 4.57631,-1.0592 5.29295,-1.66473 0.58371,-0.51488 -0.0744,-0.56844 3.22247,-1.95967 3.53982,-1.20633 10.38004,-8.59914 10.98174,-11.65805 0.0423,-0.22358 -0.10899,-0.78525 -0.005,-1.08981 2.40502,-0.47147 2.38079,-8.16465 1.98422,-11.08815 -1.23805,-9.12701 -7.45903,-8.93472 -16.95472,-8.80852 z m -0.29433,7.71871 c 1.09411,-0.0395 2.40093,0.0578 4.49115,0.20996 4.54663,0.32728 6.5639,1.79547 6.81538,3.64939 0.42558,3.13741 -3.92708,6.41405 -3.93293,10.11831 0.0254,0.72272 -1.05204,2.39496 -2.84186,3.65438 -3.57963,2.51884 -9.97779,4.62097 -12.54476,4.96917 -0.35653,0.0484 -0.63912,0.0873 -0.86271,0.045 -0.80617,-1.12513 -2.59758,-8.43746 -3.30366,-13.64271 -0.6964,-5.13395 -0.21635,-5.34384 4.43533,-6.91884 3.95798,-1.33568 5.34387,-1.81589 6.69866,-1.99967 0.3387,-0.0459 0.6807,-0.0718 1.0454,-0.085 z"
         transform="translate(204.21557,29.311549)" />
    </g>
  </g>
</svg>
