<?xml version="1.0" encoding="UTF-8" standalone="no"?>
<!-- Created with Inkscape (http://www.inkscape.org/) -->

<svg
   width="64.0px"
   height="64.0px"
   viewBox="0 0 64.0 64.0"
   version="1.1"
   id="SVGRoot"
   sodipodi:docname="icons.svg"
   inkscape:version="1.4.2 (ebf0e94, 2025-05-08)"
   inkscape:export-batch-path="../../src/main/resources/icons"
   inkscape:export-batch-name="_"
   xmlns:inkscape="http://www.inkscape.org/namespaces/inkscape"
   xmlns:sodipodi="http://sodipodi.sourceforge.net/DTD/sodipodi-0.dtd"
   xmlns="http://www.w3.org/2000/svg"
   xmlns:svg="http://www.w3.org/2000/svg">
  <sodipodi:namedview
     id="namedview434"
     pagecolor="#c3c3c3"
     bordercolor="#737373"
     borderopacity="1"
     inkscape:showpageshadow="0"
     inkscape:pageopacity="0"
     inkscape:pagecheckerboard="0"
     inkscape:deskcolor="#cccccc"
     inkscape:document-units="px"
     showgrid="true"
     inkscape:zoom="2.3201942"
     inkscape:cx="191.57879"
     inkscape:cy="140.07448"
     inkscape:window-width="1920"
     inkscape:window-height="992"
     inkscape:window-x="0"
     inkscape:window-y="0"
     inkscape:window-maximized="1"
     inkscape:current-layer="g1">
    <inkscape:grid
       type="xygrid"
       id="grid557"
       originx="0"
       originy="0"
       spacingy="1"
       spacingx="1"
       units="px" />
    <inkscape:page
       x="74"
       y="0"
       width="64"
       height="64"
       id="page4103"
       inkscape:label="water" />
    <inkscape:page
       x="148"
       y="0"
       width="64"
       height="64"
       id="page4281"
       inkscape:label="money" />
    <inkscape:page
       x="0"
       y="0"
       width="64"
       height="64"
       id="page4101"
       inkscape:label="energy"
       margin="0"
       bleed="0" />
    <inkscape:page
       x="222"
       y="0"
       width="64"
       height="64"
       id="page7386"
       inkscape:label="exit" />
    <inkscape:page
       x="296"
       y="0"
       width="64"
       height="64"
       id="page7901"
       inkscape:label="logo" />
    <inkscape:page
       x="370"
       y="0"
       width="64"
       height="64"
       id="page1"
       margin="0"
       bleed="0"
       inkscape:label="clock" />
    <inkscape:page
       x="444"
       y="0"
       width="64"
       height="64"
       id="page2"
       margin="0"
       bleed="0"
       inkscape:label="cursor" />
    <inkscape:page
       x="0"
       y="76.610329"
       width="375"
       height="64"
       id="page3"
       margin="0"
       bleed="0"
       inkscape:label="large_logo" />
    <inkscape:page
       x="518"
       y="0"
       width="64"
       height="64"
       id="page4"
       margin="0"
       bleed="0"
       inkscape:label="star" />
    <inkscape:page
       x="592"
       y="0"
       width="128"
       height="64"
       id="page5"
       margin="0"
       bleed="0" />
  </sodipodi:namedview>
  <defs
     id="defs429">
    <inkscape:path-effect
       effect="fillet_chamfer"
       id="path-effect6"
       is_visible="true"
       lpeversion="1"
       nodesatellites_param="F,0,0,1,0,6.8383557,0,1 @ F,0,0,1,0,6.8383557,0,1 @ F,0,0,1,0,6.8383557,0,1 @ F,0,0,1,0,6.8383557,0,1 @ F,0,0,1,0,6.8383557,0,1 @ F,0,0,1,0,6.8383557,0,1"
       radius="6"
       unit="px"
       method="auto"
       mode="F"
       chamfer_steps="1"
       flexible="false"
       use_knot_distance="true"
       apply_no_radius="true"
       apply_with_radius="true"
       only_selected="false"
       hide_knots="false" />
    <inkscape:path-effect
       effect="spiro"
       id="path-effect10177"
       is_visible="true"
       lpeversion="1" />
    <inkscape:path-effect
       effect="spiro"
       id="path-effect10169"
       is_visible="true"
       lpeversion="1" />
    <inkscape:path-effect
       effect="spiro"
       id="path-effect10165"
       is_visible="true"
       lpeversion="1" />
    <inkscape:path-effect
       effect="spiro"
       id="path-effect10161"
       is_visible="true"
       lpeversion="1" />
    <inkscape:path-effect
       effect="spiro"
       id="path-effect10147"
       is_visible="true"
       lpeversion="1" />
    <inkscape:path-effect
       effect="spiro"
       id="path-effect10139"
       is_visible="true"
       lpeversion="1" />
    <inkscape:path-effect
       effect="spiro"
       id="path-effect10135"
       is_visible="true"
       lpeversion="1" />
    <inkscape:path-effect
       effect="spiro"
       id="path-effect10131"
       is_visible="true"
       lpeversion="1" />
    <inkscape:path-effect
       effect="powerstroke"
       id="path-effect8562"
       is_visible="true"
       lpeversion="1"
       offset_points="0.30449939,1.3769012 | 1.0135226,1.9072022"
       not_jump="true"
       sort_points="true"
       interpolator_type="CentripetalCatmullRom"
       interpolator_beta="0.75"
       start_linecap_type="round"
       linejoin_type="spiro"
       miter_limit="4"
       scale_width="1"
       end_linecap_type="round"
       message="" />
    <inkscape:path-effect
       effect="simplify"
       id="path-effect8560"
       is_visible="true"
       lpeversion="1"
       steps="1"
       threshold="0.0047745358"
       smooth_angles="0"
       helper_size="0"
       simplify_individual_paths="false"
       simplify_just_coalesce="false"
       step="1" />
    <inkscape:path-effect
       effect="powerstroke"
       id="path-effect8555"
       is_visible="true"
       lpeversion="1"
       offset_points="1.1592518,1.2748389 | 1.2997926,1.0504898 | 3.246731,1.8709865"
       not_jump="true"
       sort_points="true"
       interpolator_type="CentripetalCatmullRom"
       interpolator_beta="0.75"
       start_linecap_type="round"
       linejoin_type="spiro"
       miter_limit="4"
       scale_width="1"
       end_linecap_type="round"
       message="" />
    <inkscape:path-effect
       effect="simplify"
       id="path-effect8553"
       is_visible="true"
       lpeversion="1"
       steps="1"
       threshold="0.0047745358"
       smooth_angles="0"
       helper_size="0"
       simplify_individual_paths="false"
       simplify_just_coalesce="false"
       step="1" />
    <inkscape:path-effect
       effect="powerstroke"
       id="path-effect8548"
       is_visible="true"
       lpeversion="1"
       offset_points="0.57499456,2.6971913"
       not_jump="true"
       sort_points="true"
       interpolator_type="CentripetalCatmullRom"
       interpolator_beta="0.75"
       start_linecap_type="round"
       linejoin_type="spiro"
       miter_limit="4"
       scale_width="1"
       end_linecap_type="round"
       message="" />
    <inkscape:path-effect
       effect="simplify"
       id="path-effect8546"
       is_visible="true"
       lpeversion="1"
       steps="1"
       threshold="0.0047745358"
       smooth_angles="0"
       helper_size="0"
       simplify_individual_paths="false"
       simplify_just_coalesce="false"
       step="1" />
    <inkscape:path-effect
       effect="fillet_chamfer"
       id="path-effect7844"
       is_visible="true"
       lpeversion="1"
       nodesatellites_param="F,0,0,1,0,2,0,1 @ F,0,0,1,0,2,0,1 @ F,0,0,1,0,2,0,1 @ F,0,0,1,0,2,0,1 @ F,0,0,1,0,2,0,1 @ F,0,0,1,0,2,0,1 @ F,0,0,1,0,2,0,1 @ F,0,0,1,0,2,0,1"
       unit="px"
       method="auto"
       mode="F"
       radius="2"
       chamfer_steps="1"
       flexible="false"
       use_knot_distance="true"
       apply_no_radius="true"
       apply_with_radius="true"
       only_selected="false"
       hide_knots="false" />
    <inkscape:path-effect
       effect="fillet_chamfer"
       id="path-effect7776"
       is_visible="true"
       lpeversion="1"
       nodesatellites_param="F,0,0,1,0,2,0,1 @ F,0,0,1,0,2,0,1 @ F,0,0,1,0,2,0,1 @ F,0,0,1,0,2,0,1 @ F,0,0,1,0,2,0,1 @ F,0,0,1,0,2,0,1 @ F,0,0,1,0,2,0,1 @ F,0,0,1,0,2,0,1"
       unit="px"
       method="auto"
       mode="F"
       radius="2"
       chamfer_steps="1"
       flexible="false"
       use_knot_distance="true"
       apply_no_radius="true"
       apply_with_radius="true"
       only_selected="false"
       hide_knots="false" />
    <inkscape:path-effect
       effect="mirror_symmetry"
       start_point="106.01436,1.7868477"
       end_point="106.01436,62.382051"
       center_point="106.01436,32.084449"
       id="path-effect6915"
       is_visible="true"
       lpeversion="1.2"
       lpesatellites=""
       mode="X"
       discard_orig_path="false"
       fuse_paths="true"
       oposite_fuse="true"
       split_items="false"
       split_open="false"
       link_styles="false" />
    <inkscape:path-effect
       effect="fillet_chamfer"
       id="path-effect13"
       is_visible="true"
       lpeversion="1"
       nodesatellites_param="F,0,0,1,0,14,0,1 @ F,0,0,1,0,14,0,1 @ F,0,0,1,0,14,0,1"
       radius="14"
       unit="px"
       method="auto"
       mode="F"
       chamfer_steps="1"
       flexible="false"
       use_knot_distance="true"
       apply_no_radius="true"
       apply_with_radius="true"
       only_selected="false"
       hide_knots="false" />
    <rect
       x="285.34561"
       y="97.327187"
       width="1174.5623"
       height="267.64978"
       id="rect2" />
    <rect
       x="816.46393"
       y="417.61661"
       width="519.28357"
       height="155.22964"
       id="rect3" />
  </defs>
  <g
     inkscape:groupmode="layer"
     id="layer10"
     inkscape:label="page10">
    <rect
       style="fill:#b9b9b9;stroke-width:10;stroke-linecap:round;stroke-linejoin:round;stroke-miterlimit:1.7;fill-opacity:0.64999998"
       id="rect6"
       width="128"
       height="64"
       x="592"
       y="0"
       ry="10" />
    <path
       sodipodi:type="star"
       style="fill:#ffffff;fill-opacity:0.65;stroke-width:10;stroke-linecap:round;stroke-linejoin:round;stroke-miterlimit:1.7"
       id="path6"
       inkscape:flatsided="false"
       sodipodi:sides="3"
       sodipodi:cx="656"
       sodipodi:cy="6.6804752"
       sodipodi:r1="43.811367"
       sodipodi:r2="21.905684"
       sodipodi:arg1="0.53489298"
       sodipodi:arg2="1.5820905"
       inkscape:rounded="0"
       inkscape:randomized="0"
       d="m 686.85402,28.936042 -24.2635,-0.274048 -37.93934,-0.428513 a 3.9481265,3.9481265 60.64711 0 1 -3.35207,-5.960428 L 633.66819,1.3972722 653.00896,-31.244902 a 3.9481265,3.9481265 0.64711025 0 1 6.83792,0.07723 l 11.89441,21.149829 18.59857,33.070686 a 3.9481265,3.9481265 120.64711 0 1 -3.48584,5.883196 z"
       inkscape:transform-center-x="0.21706963"
       inkscape:transform-center-y="-9.4214632"
       transform="matrix(0.87740391,0,0,0.87740391,80.600983,33.86193)"
       inkscape:path-effect="#path-effect6" />
  </g>
  <g
     inkscape:groupmode="layer"
     id="layer9"
     inkscape:label="page9">
    <g
       id="g1"
       transform="matrix(0.38487166,0,0,0.39069041,-227.75222,34.353941)">
      <path
         id="rect7"
         style="fill:#ffffff;stroke-width:4;stroke-linecap:round;stroke-linejoin:round;stroke-miterlimit:1.7;paint-order:markers fill stroke"
         d="m 1528.0352,109.56445 c -300.0443,0.007 -600.08864,0.008 -900.13286,0.0176 -13.88625,0.22467 -27.27159,9.0516 -32.80436,21.81417 -2.75966,6.02705 -3.57858,12.7664 -3.27774,19.33974 0.0109,28.39197 -0.0612,56.78514 0.0912,85.1763 0.77181,13.97361 10.27794,27.07193 23.38608,32.02417 5.72985,2.28586 11.98945,2.83242 18.10676,2.57725 298.87499,-0.007 597.75012,-0.008 896.62502,-0.0176 13.9984,-0.22273 27.4727,-9.20459 32.9353,-22.11664 2.6687,-5.98527 3.4373,-12.64445 3.1409,-19.14312 -0.01,-28.35215 0.048,-56.7054 -0.087,-85.05678 -0.7704,-13.90257 -10.1726,-26.95518 -23.1919,-31.95153 -4.6858,-1.86834 -9.7504,-2.75694 -14.7911,-2.66357 z" />
      <path
         id="rect4"
         style="stroke-width:4;stroke-linecap:round;stroke-linejoin:round;stroke-miterlimit:1.7;paint-order:markers fill stroke"
         d="m 628.89108,123.56446 h 900.14372 c 12.7811,0 23.0705,10.28948 23.0705,23.07058 v 86.80795 c 0,12.7811 -10.2894,23.07058 -23.0705,23.07058 H 628.89108 c -12.78111,0 -23.07058,-10.28948 -23.07058,-23.07058 v -86.80795 c 0,-12.7811 10.28947,-23.07058 23.07058,-23.07058 z" />
      <path
         id="text1"
         style="font-size:100px;font-family:'Days One';-inkscape-font-specification:'Days One';text-align:center;white-space:pre;fill:#ffffff;stroke-width:4;stroke-linecap:round;stroke-linejoin:round;stroke-miterlimit:1.7;paint-order:markers fill stroke"
         d="M 1066.4147 113.10851 C 1065.9132 113.12278 1065.4003 113.16458 1064.8922 113.23349 C 1062.6105 113.54301 1059.6962 114.52094 1054.4027 116.183 C 1021.3454 126.76694 1015.895 126.19785 1016.398 129.9057 C 1016.6398 131.68832 1018.819 132.77283 1021.5285 132.40528 C 1024.1668 132.04741 1027.16 130.55092 1030.3688 130.11567 C 1034.9323 129.49664 1040.5828 127.27799 1042.3654 127.03618 C 1043.2211 126.92011 1043.4567 127.03257 1043.69 127.14616 C 1044.6423 127.74314 1047.429 135.42816 1050.5358 150.8372 C 1054.2531 169.14071 1055.7856 173.50742 1059.2796 173.03348 C 1061.6326 172.71429 1061.9923 171.06804 1061.7408 169.21412 C 1061.6344 168.42977 1061.4463 167.58085 1061.1877 166.74453 C 1059.7202 161.27948 1055.5133 138.83223 1052.7585 129.76572 L 1051.165 124.97153 L 1055.8693 123.24182 C 1058.8484 122.18417 1063.6196 120.95579 1066.1152 120.61726 C 1067.1135 120.48184 1073.7342 119.51164 1073.3315 116.00803 C 1073.0861 114.19867 1069.9246 113.00868 1066.4147 113.10851 z M 1121.161 119.7474 C 1108.3029 119.7474 1098.5377 122.65912 1091.8645 128.48594 C 1085.1914 134.31277 1081.8571 143.55853 1081.8571 156.22129 C 1081.8571 168.88405 1085.1914 178.14227 1091.8645 184.00164 C 1098.5377 189.82846 1108.3029 192.74518 1121.161 192.74518 C 1134.0516 192.74518 1143.8168 189.82846 1150.4575 184.00164 C 1157.1307 178.14227 1160.47 168.88405 1160.47 156.22129 C 1160.47 143.55853 1157.1307 134.31277 1150.4575 128.48594 C 1143.8168 122.65912 1134.0516 119.7474 1121.161 119.7474 z M 462.8145 120.81722 C 451.45382 120.81722 443.44561 122.59316 438.79066 126.14133 C 434.13571 129.65696 431.80782 134.68584 431.80782 141.22881 C 431.80782 144.77699 432.76463 147.87053 434.6852 150.50725 C 436.63833 153.11142 439.17739 155.16383 442.30239 156.66122 C 445.42739 158.15861 448.84751 159.4588 452.55844 160.56557 C 456.30193 161.67234 460.06356 162.60141 463.8396 163.3501 C 467.61564 164.06625 471.062 164.79603 474.187 165.54473 C 481.1857 167.17234 484.68664 169.40158 484.68664 172.23361 C 484.68664 175.9771 481.82427 177.85267 476.0951 177.85267 L 459.00337 177.50773 C 453.66482 177.50773 450.23159 175.91364 448.70164 172.72353 C 447.17169 169.53343 444.94282 167.93933 442.01313 167.93933 L 436.20254 167.93933 C 435.12832 167.93933 434.01791 168.36277 432.87859 169.20912 C 431.73926 170.02292 431.17347 171.38786 431.17347 173.30843 C 431.17347 178.45166 433.85599 182.75074 439.22709 186.20127 C 444.59818 189.61924 450.62001 191.32542 457.29318 191.32542 L 472.09113 191.62037 C 483.41926 191.62037 491.40927 189.86188 496.06422 186.34625 C 500.75172 182.79807 503.09781 177.75175 503.09781 171.20878 C 503.09781 166.42363 501.27307 162.4359 497.62724 159.24579 C 494.01396 156.02314 489.60064 153.71169 484.39231 152.31195 C 479.18398 150.91221 473.9937 149.72412 468.81792 148.74755 C 463.67469 147.73844 459.27957 146.58521 455.63374 145.28313 C 452.02045 143.98104 450.21391 142.30475 450.21391 140.25397 C 450.21391 136.51048 453.08136 134.63991 458.81053 134.63991 L 473.50698 134.92986 C 478.84552 134.92986 482.27876 136.54139 483.80871 139.76405 C 485.33866 142.95416 487.56754 144.54825 490.49723 144.54825 L 496.30781 144.54825 C 497.34948 144.54825 498.44169 144.12482 499.58102 143.27846 C 500.72034 142.43211 501.29121 141.04973 501.29121 139.12916 C 501.29121 133.98593 498.6036 129.70428 493.23251 126.28631 C 487.89397 122.83579 481.89035 121.11217 475.21717 121.11217 L 462.8145 120.81722 z M 729.70542 120.81722 C 718.34475 120.81722 710.33653 122.59316 705.68158 126.14133 C 701.02663 129.65696 698.69873 134.68584 698.69873 141.22881 C 698.69873 144.77699 699.66062 147.87053 701.58119 150.50725 C 703.53432 153.11142 706.07338 155.16383 709.19838 156.66122 C 712.32338 158.15861 715.7435 159.4588 719.45443 160.56557 C 723.19792 161.67234 726.95447 162.60141 730.73051 163.3501 C 734.50655 164.06625 737.95799 164.79603 741.08299 165.54473 C 748.08169 167.17234 751.58264 169.40158 751.58264 172.23361 C 751.58264 175.9771 748.71519 177.85267 742.98602 177.85267 L 725.89936 177.50773 C 720.56081 177.50773 717.12758 175.91364 715.59763 172.72353 C 714.06768 169.53343 711.83373 167.93933 708.90404 167.93933 L 703.09346 167.93933 C 702.01924 167.93933 700.9139 168.36277 699.77458 169.20912 C 698.63526 170.02292 698.06439 171.38786 698.06439 173.30843 C 698.06439 178.45166 700.75199 182.75074 706.12308 186.20127 C 711.49417 189.61924 717.516 191.32542 724.18917 191.32542 L 738.98205 191.62037 C 750.31018 191.62037 758.30526 189.86188 762.96021 186.34625 C 767.64771 182.79807 769.98873 177.75175 769.98873 171.20878 C 769.98873 166.42363 768.16906 162.4359 764.52323 159.24579 C 760.90995 156.02314 756.49663 153.71169 751.2883 152.31195 C 746.07997 150.91221 740.88969 149.72412 735.71391 148.74755 C 730.57068 147.73844 726.17556 146.58521 722.52973 145.28313 C 718.91644 143.98104 717.1099 142.30475 717.1099 140.25397 C 717.1099 136.51048 719.97227 134.63991 725.70144 134.63991 L 740.3979 134.92986 C 745.73644 134.92986 749.17475 136.54139 750.7047 139.76405 C 752.23465 142.95416 754.46353 144.54825 757.39322 144.54825 L 763.2038 144.54825 C 764.24547 144.54825 765.33768 144.12482 766.47701 143.27846 C 767.61633 142.43211 768.18212 141.04973 768.18212 139.12916 C 768.18212 133.98593 765.49959 129.70428 760.1285 126.28631 C 754.78996 122.83579 748.78127 121.11217 742.10809 121.11217 L 729.70542 120.81722 z M 551.97267 121.21216 C 533.6784 121.24471 522.87044 127.59121 519.55013 140.25397 L 507.29463 186.73618 C 507.19692 187.15935 507.13429 187.64755 507.10179 188.20094 C 507.10179 188.75433 507.37558 189.40692 507.92897 190.15561 C 508.48236 190.87176 509.39473 191.23043 510.66426 191.23043 L 520.2809 191.23043 C 521.55043 191.23043 522.75479 190.80699 523.89411 189.96064 C 525.03344 189.08173 525.76596 187.97583 526.09148 186.6412 L 529.36469 174.33326 L 564.08101 174.33326 L 564.08101 186.6412 C 564.08101 187.97583 564.50334 189.08173 565.34969 189.96064 C 566.2286 190.80699 567.33902 191.23043 568.67365 191.23043 L 577.85386 191.23043 C 579.12339 191.23043 580.21054 190.80699 581.122 189.96064 C 582.03345 189.08173 582.49218 188.00571 582.49218 186.73618 L 582.49218 125.7514 C 582.49218 124.54697 582.08296 123.48839 581.26916 122.57693 C 580.48791 121.66547 579.49472 121.21216 578.29029 121.21216 L 551.97267 121.21216 z M 595.08769 121.21216 C 593.75306 121.21216 592.64772 121.64803 591.76881 122.52694 C 590.8899 123.40585 590.44938 124.51175 590.44938 125.84638 L 590.44938 130.44061 C 590.44938 131.77524 590.8899 132.88115 591.76881 133.76006 C 592.64772 134.60641 593.75306 135.02984 595.08769 135.02984 L 616.86342 135.02984 L 616.86342 186.73618 C 616.86342 188.00571 617.30394 189.08173 618.18285 189.96064 C 619.09431 190.80699 620.18653 191.23043 621.45606 191.23043 L 630.68194 191.23043 C 631.95147 191.23043 633.0255 190.80699 633.90441 189.96064 C 634.81587 189.08173 635.27459 188.00571 635.27459 186.73618 L 635.27459 135.02984 L 657.05031 135.02984 C 658.38494 135.02984 659.49028 134.60641 660.36919 133.76006 C 661.2481 132.88115 661.68863 131.77524 661.68863 130.44061 L 661.68863 125.84638 C 661.68863 124.51175 661.2481 123.40585 660.36919 122.52694 C 659.49028 121.64803 658.38494 121.21216 657.05031 121.21216 L 595.08769 121.21216 z M 674.28922 121.21216 C 673.01969 121.21216 671.92747 121.66547 671.01601 122.57693 C 670.10456 123.48839 669.6509 124.57685 669.6509 125.84638 L 669.6509 186.73618 C 669.6509 188.00571 670.10456 189.08173 671.01601 189.96064 C 671.92747 190.80699 673.01969 191.23043 674.28922 191.23043 L 683.36793 191.23043 C 684.63746 191.23043 685.72969 190.78956 686.64114 189.91065 C 687.58515 188.9992 688.05699 187.91073 688.05699 186.6412 L 688.05699 125.84638 C 688.05699 124.57685 687.60335 123.48839 686.69189 122.57693 C 685.81298 121.66547 684.70256 121.21216 683.36793 121.21216 L 674.28922 121.21216 z M 1175.0192 121.21216 C 1173.7497 121.21216 1172.6757 121.66547 1171.7968 122.57693 C 1170.9179 123.48839 1170.4773 124.57685 1170.4773 125.84638 L 1170.4773 186.6412 C 1170.4773 187.91073 1170.936 188.9992 1171.8475 189.91065 C 1172.759 190.78956 1173.8462 191.23043 1175.1157 191.23043 L 1184.2959 191.23043 C 1185.5654 191.23043 1186.6394 190.78956 1187.5183 189.91065 C 1188.4298 188.9992 1188.8885 187.91073 1188.8885 186.6412 L 1188.8885 165.64472 L 1200.7989 165.64472 C 1205.6492 165.64472 1209.7837 168.31484 1213.2016 173.65338 L 1221.5039 186.6412 C 1222.2852 187.91073 1223.4087 188.9992 1224.8735 189.91065 C 1226.3709 190.78956 1227.7369 191.23043 1228.9739 191.23043 L 1240.6915 191.23043 C 1242.3516 191.23043 1243.1832 190.53052 1243.1832 189.13078 C 1243.1832 188.38209 1242.9226 187.55266 1242.4017 186.6412 L 1233.5158 172.52856 C 1231.3674 169.20825 1229.4619 166.68509 1227.8017 164.95983 C 1226.1416 163.20202 1224.3349 161.9666 1222.3818 161.25045 C 1234.6539 158.8416 1240.793 152.90109 1240.793 143.42844 C 1240.793 136.62505 1238.3973 131.22006 1233.6122 127.21615 C 1228.8596 123.21224 1222.7571 121.21216 1215.3026 121.21216 L 1175.0192 121.21216 z M 1246.3549 121.21216 C 1244.6622 121.21216 1243.8175 121.98927 1243.8175 123.55177 C 1243.8175 124.26792 1244.0965 125.03258 1244.6498 125.84638 L 1270.7238 166.22962 L 1270.7238 186.73618 C 1270.7238 188.00571 1271.1775 189.08173 1272.0889 189.96064 C 1273.0004 190.80699 1274.0926 191.23043 1275.3621 191.23043 L 1284.5424 191.23043 C 1285.8119 191.23043 1286.8859 190.80699 1287.7648 189.96064 C 1288.6763 189.08173 1289.1299 188.00571 1289.1299 186.73618 L 1289.1299 166.22962 L 1315.2547 125.84638 C 1315.7756 125.03258 1316.0362 124.26792 1316.0362 123.55177 C 1316.0362 121.98927 1315.2047 121.21216 1313.5445 121.21216 L 1304.2171 121.21216 C 1300.5712 121.21216 1297.7402 122.75393 1295.722 125.84638 L 1279.9497 150.2123 L 1264.1317 125.84638 C 1262.146 122.75393 1259.3149 121.21216 1255.6366 121.21216 L 1246.3549 121.21216 z M 1005.7664 124.99652 C 1005.5902 124.99555 1005.4043 125.00492 1005.2082 125.03152 C 1000.2168 125.70858 1000.7256 129.99992 1002.3003 153.38677 C 1002.9898 163.82269 1003.0827 169.3253 1002.4627 170.64388 C 1001.1115 170.31885 997.04907 166.07621 991.27293 158.29095 C 981.42364 145.10361 976.2246 140.50991 975.55137 139.29413 C 975.35792 137.86803 964.80645 127.53467 963.01168 126.61625 C 962.00734 126.17155 960.96002 125.95093 959.96176 126.08634 C 956.89565 126.50225 956.43989 129.03085 956.43989 129.03085 C 956.0557 131.55193 959.16568 159.81583 960.41341 169.01415 C 961.73851 178.78291 962.70287 180.53896 966.69594 179.99731 C 969.12031 179.66846 969.92321 173.8221 969.19779 168.47424 C 968.86893 166.04988 968.17321 165.2004 967.36073 159.21079 C 966.40318 152.15162 965.83772 143.15474 966.07682 139.56408 C 969.15643 142.99504 976.11109 149.81979 977.29201 152.63689 C 978.81258 156.35194 978.80329 154.68487 986.57371 165.39476 C 993.27569 174.65201 999.00026 179.3935 1006.416 178.38758 C 1011.1221 177.74921 1011.0327 173.33345 1010.3032 159.92567 C 1009.2665 141.0407 1009.6122 133.43753 1009.0802 129.51577 C 1008.8716 127.97826 1008.4091 125.01115 1005.7664 124.99652 z M 926.20964 131.78539 C 926.03727 131.78608 925.8803 131.80104 925.73769 131.82038 C 924.88203 131.93645 924.36111 132.36927 923.74839 132.67024 C 922.24019 134.39977 916.84081 148.63761 914.68997 156.33628 C 911.14835 169.30678 910.39449 170.71571 909.35641 172.16363 C 907.65972 174.6449 907.13843 180.45056 906.39276 180.84217 C 905.40057 181.55769 905.1027 183.12677 905.28647 184.48156 C 905.50893 186.12157 902.8267 188.80975 903.16523 191.30542 C 903.35867 192.73152 905.68961 192.77659 906.47396 192.67019 C 908.96963 192.33166 909.93274 189.80539 910.37136 188.22094 C 911.2909 184.82845 913.29899 178.74543 916.95331 171.42375 L 918.6026 168.07931 L 923.68749 167.02449 C 926.86719 166.37532 931.09177 165.36992 933.26353 164.78486 L 936.27793 164.00999 L 938.26215 168.45925 C 942.22913 177.36132 941.70777 179.39311 944.99634 180.61721 C 945.82905 180.86734 946.88612 181.16321 947.74178 181.04714 C 949.45309 180.815 949.57818 180.14309 949.46211 179.28743 C 949.01719 176.00741 944.53542 168.12027 943.06794 162.65522 C 941.35752 157.00527 938.60367 151.71201 937.99319 148.81753 C 937.59663 145.89404 929.83735 133.65688 928.18879 132.21032 C 927.38205 131.88405 926.72675 131.78332 926.20964 131.78539 z M 1121.161 132.93019 C 1128.5178 132.93019 1133.8435 134.88296 1137.1312 138.78921 C 1140.4189 142.69546 1142.0588 148.51889 1142.0588 156.26629 C 1142.0588 163.98113 1140.4189 169.79212 1137.1312 173.69837 C 1133.8435 177.57206 1128.5178 179.51239 1121.161 179.51239 C 1113.8368 179.51239 1108.5161 177.57206 1105.1958 173.69837 C 1101.9081 169.79212 1100.2632 163.98113 1100.2632 156.26629 C 1100.2632 148.51889 1101.9081 142.69546 1105.1958 138.78921 C 1108.5161 134.88296 1113.8368 132.93019 1121.161 132.93019 z M 550.16606 135.02984 L 564.08101 135.02984 L 564.08101 160.51558 L 532.9779 160.51558 L 537.27621 144.8432 C 538.09001 141.84841 539.65408 139.4722 541.96528 137.71439 C 544.30903 135.92402 547.04106 135.02984 550.16606 135.02984 z M 1188.8885 135.02984 L 1209.6899 135.02984 C 1213.0428 135.02984 1215.9859 135.69488 1218.525 137.02951 C 1221.0966 138.36415 1222.3818 140.49875 1222.3818 143.42844 C 1222.3818 146.35813 1221.0966 148.48774 1218.525 149.82237 C 1215.9859 151.15701 1213.0428 151.82703 1209.6899 151.82703 L 1188.8885 151.82703 L 1188.8885 135.02984 z M 845.55166 141.46876 C 845.48797 141.47176 845.42344 141.48 845.35882 141.48876 C 843.79012 141.70155 843.51752 142.89824 843.73998 144.53825 C 844.3977 149.38698 845.87122 158.11907 847.94694 169.67404 C 852.89263 197.03326 853.00703 198.39793 859.85229 197.46939 C 869.76366 196.12494 889.1925 188.40665 891.92974 185.56638 C 892.75998 184.72759 893.37492 183.91877 893.24918 182.99181 C 892.98803 181.06658 890.59518 180.00883 889.16908 180.20228 C 888.31343 180.31835 866.14831 189.28227 861.16665 190.03063 C 860.16838 190.16605 859.88065 190.20448 859.6087 189.80567 C 857.07659 186.66354 852.02247 150.45694 849.24608 144.44327 C 849.04233 143.97847 847.5262 141.37604 845.55166 141.46876 z M 926.64607 143.31346 C 928.35513 146.27677 931.81853 155.75477 932.05067 157.46609 C 932.25379 158.96349 930.83927 159.22866 925.53977 160.31061 L 920.87101 161.23546 C 920.87101 161.23546 923.1996 150.02601 926.64607 143.31346 z M 817.04175 143.6584 C 816.46164 143.66447 815.82003 143.75001 815.46351 143.79837 C 810.68609 144.44642 808.49797 145.97986 803.72055 146.6279 C 801.72402 146.89873 801.69556 146.68409 800.34077 146.86786 C 798.20163 147.15803 796.94015 148.56163 794.48452 151.87202 C 792.52195 154.53459 790.79236 157.31188 791.04384 159.1658 C 791.2663 160.80581 792.7456 161.55116 793.67256 161.42542 C 794.88474 161.26099 796.06364 160.29991 796.51442 159.87568 L 797.16906 159.35077 L 797.93027 164.98483 C 798.86848 171.90139 804.2726 197.82177 806.24777 204.88815 C 806.97184 207.54937 808.28773 208.67599 809.71382 208.48254 C 810.07035 208.43418 810.41697 208.31357 810.75415 208.1226 C 812.96212 206.73385 813.44319 204.92873 812.81449 200.29391 C 812.52432 198.15477 812.00434 195.39287 811.29714 191.78534 L 809.09978 180.39225 L 812.52016 179.92733 C 815.15843 179.56945 817.09647 178.86813 817.81311 178.2626 C 818.39682 177.74772 817.73869 177.69416 821.03558 176.30293 C 824.5754 175.0966 831.41562 167.70379 832.01732 164.64488 C 832.05961 164.4213 831.90833 163.85963 832.01225 163.55507 C 834.41727 163.0836 834.39304 155.39042 833.99647 152.46692 C 832.75842 143.33991 826.53744 143.5322 817.04175 143.6584 z M 816.74742 151.37711 C 817.84153 151.33762 819.14835 151.4349 821.23857 151.58707 C 825.7852 151.91435 827.80247 153.38254 828.05395 155.23646 C 828.47953 158.37387 824.12687 161.65051 824.12102 165.35477 C 824.14644 166.07749 823.06898 167.74973 821.27916 169.00915 C 817.69953 171.52799 811.30137 173.63012 808.7344 173.97832 C 808.37787 174.02668 808.09528 174.0656 807.87169 174.02331 C 807.06552 172.89818 805.27411 165.58585 804.56803 160.3806 C 803.87163 155.24665 804.35168 155.03676 809.00336 153.46176 C 812.96134 152.12608 814.34723 151.64587 815.70202 151.46209 C 816.04072 151.41615 816.38272 151.39027 816.74742 151.37711 z "
         transform="translate(204.21557,29.311549)" />
    </g>
  </g>
  <g
     inkscape:groupmode="layer"
     id="layer8"
     inkscape:label="page8">
    <path
       sodipodi:type="star"
       style="fill:#ffffff;stroke-width:10;stroke-linecap:round;stroke-linejoin:round;stroke-miterlimit:1.7;fill-opacity:1"
       id="path4"
       inkscape:flatsided="false"
       sodipodi:sides="5"
       sodipodi:cx="550"
       sodipodi:cy="32"
       sodipodi:r1="31.277401"
       sodipodi:r2="15.638701"
       sodipodi:arg1="-1.5707963"
       sodipodi:arg2="-0.9424778"
       inkscape:rounded="0"
       inkscape:randomized="0"
       d="m 550,0.72259903 9.1922,18.62542597 20.55438,2.986727 -14.87329,14.497872 3.5111,20.471325 L 550,47.638701 531.6156,57.303948 535.12671,36.832625 520.25342,22.334751 540.8078,19.348025 Z"
       inkscape:transform-center-y="-2.986726" />
  </g>
  <g
     inkscape:groupmode="layer"
     id="layer7"
     inkscape:label="page7">
    <path
       sodipodi:type="star"
       style="fill:none;stroke:#ffffff;stroke-width:7.40031;stroke-linecap:round;stroke-linejoin:round;stroke-miterlimit:1.7;stroke-dasharray:none;stroke-opacity:1;paint-order:markers fill stroke"
       id="path11"
       inkscape:flatsided="true"
       sodipodi:sides="3"
       sodipodi:cx="596.12903"
       sodipodi:cy="478.89401"
       sodipodi:r1="49.968338"
       sodipodi:r2="24.984169"
       sodipodi:arg1="0"
       sodipodi:arg2="1.0471976"
       inkscape:rounded="0"
       inkscape:randomized="0"
       d="m 633.97301,485.89401 -50.7038,29.27385 a 8.0829038,8.0829038 30 0 1 -12.12435,-7 v -58.5477 a 8.0829038,8.0829038 150 0 1 12.12435,-7 l 50.7038,29.27385 a 8.0829038,8.0829038 90 0 1 0,14 z"
       inkscape:transform-center-x="-9.5264575"
       inkscape:path-effect="#path-effect13"
       transform="matrix(0.76259938,0,0,0.76259938,14.992015,-333.20428)"
       inkscape:transform-center-y="-4.2390549e-06" />
  </g>
  <g
     inkscape:groupmode="layer"
     id="layer6"
     inkscape:label="page6">
    <path
       id="path2"
       style="fill:none;stroke:#000000;stroke-width:6.42519921;stroke-linecap:round;stroke-linejoin:round;stroke-miterlimit:1.7;paint-order:markers fill stroke;stroke-dasharray:none"
       d="m 399.65039,6.6816406 c -3.06298,0.3202977 -6.06637,1.1481136 -8.83858,2.494417 -3.44887,1.7110804 -6.51253,4.1878134 -8.87732,7.2292084 -2.81661,3.635284 -4.64059,8.039389 -5.16428,12.612307 -0.49223,4.017974 0.0336,8.142478 1.44195,11.934543 1.61044,4.22922 4.33607,8.040407 7.88549,10.857716 3.14491,2.548913 6.92339,4.296355 10.88842,5.102586 4.50739,0.904053 9.2617,0.570581 13.58677,-0.997485 3.8174,-1.351374 7.27806,-3.659236 10.0449,-6.612748 3.09268,-3.349731 5.29337,-7.528115 6.22608,-11.996204 0.86506,-3.954377 0.72215,-8.110768 -0.32989,-12.016355 -1.2189,-4.399454 -3.61656,-8.475397 -6.9289,-11.62452 -3.06392,-2.960821 -6.90117,-5.1063735 -11.01349,-6.2116521 -2.90538,-0.7851704 -5.9249,-1.0074075 -8.92115,-0.7718133 z" />
    <path
       style="fill:none;stroke:#000000;stroke-width:6.80315;stroke-linecap:round;stroke-linejoin:round;stroke-miterlimit:1.7;stroke-dasharray:none;paint-order:markers fill stroke"
       d="m 402.46638,18.323458 v 14.115198 l 12.76953,10.361905"
       id="path3"
       sodipodi:nodetypes="ccc" />
  </g>
  <g
     inkscape:groupmode="layer"
     id="layer4"
     inkscape:label="page5">
    <g
       id="g10298"
       transform="matrix(0.70537641,0,0,0.70537641,97.631001,13.377935)">
      <path
         style="opacity:1;fill:none;fill-opacity:1;fill-rule:nonzero;stroke:#000000;stroke-width:5;stroke-linecap:round;stroke-linejoin:round;stroke-miterlimit:1.7;stroke-dasharray:none;stroke-dashoffset:0;stroke-opacity:1;paint-order:stroke fill markers;stop-color:#000000"
         d="m 328.06629,63.832608 c -5,-15 -5,-40 0,-50"
         id="path10173" />
      <path
         id="path10209"
         style="opacity:1;fill:#08f9ff;fill-opacity:1;fill-rule:nonzero;stroke:#000000;stroke-width:5;stroke-linecap:round;stroke-linejoin:round;stroke-miterlimit:1.7;stroke-dasharray:none;stroke-dashoffset:0;stroke-opacity:1;paint-order:markers fill stroke;stop-color:#000000"
         d="m 318.06629,-6.1673916 c -1.67614,3.2159852 -1.99614,7.11209482 -0.86721,10.5584716 1.12894,3.4463769 3.69208,6.398049 6.94613,7.999043 2.22595,1.095171 4.74275,1.566972 7.22025,1.439485 2.47751,-0.127488 4.91318,-0.846231 7.10563,-2.007026 4.9202,-2.6050101 8.53161,-6.6084617 9.5952,-12.9899736 1,-6 -7.34244,-6.2668527 -14,-3 -1.26518,-2.2546086 -9,-13.0000004 -16,-2 z m 16,2 c -2.59379,1.4288794 -4.451,2.4009124 -6,3"
         sodipodi:nodetypes="cssssscccc" />
      <g
         id="g10151"
         transform="rotate(-15.780133,306.9402,64.280514)"
         style="fill:#0b7904;fill-opacity:1">
        <path
           id="path10145"
           style="opacity:1;fill:#0b7904;fill-opacity:1;fill-rule:nonzero;stroke:#000000;stroke-width:5;stroke-linecap:round;stroke-linejoin:round;stroke-miterlimit:1.7;stroke-dasharray:none;stroke-dashoffset:0;stroke-opacity:1;paint-order:stroke fill markers;stop-color:#000000"
           inkscape:path-effect="#path-effect10147"
           inkscape:original-d="m 323.06629,63.832608 c 6.00078,-2.636634 2.42754,-15.70096 -2.46722,-18.797678 -2.14878,-1.35945 -4.99089,-1.266985 -7.53278,-1.202322 m 0,0 c -6.92835,3.135599 -4.39785,16.659009 2.4252,19.458211 7.2347,2.968082 3.38091,-3.107189 7.5748,0.541789"
           d="m 323.06629,63.832608 c 2.69308,-2.521111 4.07332,-6.374748 3.59325,-10.032371 -0.48007,-3.657622 -2.80802,-7.024554 -6.06047,-8.765307 -2.28383,-1.222332 -4.98192,-1.652981 -7.53278,-1.202322 m 0,0 c -1.55541,1.204789 -2.79022,2.819665 -3.54527,4.636453 -0.75504,1.816789 -1.02853,3.831188 -0.78519,5.78352 0.24333,1.952332 1.0029,3.837975 2.18079,5.413849 1.17789,1.575874 2.77132,2.838248 4.57487,3.624389 2.36574,1.031193 5.08638,1.225787 7.5748,0.541789" />
      </g>
      <g
         id="g10157"
         transform="matrix(-0.74899257,-0.5923914,-0.59805855,0.80366704,605.81282,174.97615)"
         style="fill:#0b7904;fill-opacity:1">
        <path
           id="path10155"
           style="opacity:1;fill:#0b7904;fill-opacity:1;fill-rule:nonzero;stroke:#000000;stroke-width:5;stroke-linecap:round;stroke-linejoin:round;stroke-miterlimit:1.7;stroke-dasharray:none;stroke-dashoffset:0;stroke-opacity:1;paint-order:stroke fill markers;stop-color:#000000"
           inkscape:path-effect="#path-effect10165"
           inkscape:original-d="m 323.06629,63.832608 c 6.00078,-2.636634 2.42754,-15.70096 -2.46722,-18.797678 -2.14878,-1.35945 -4.99089,-1.266985 -7.53278,-1.202322 m 0,0 c -6.92835,3.135599 -4.39785,16.659009 2.4252,19.458211 7.2347,2.968082 3.38091,-3.107189 7.5748,0.541789"
           d="m 323.06629,63.832608 c 2.69308,-2.521111 4.07332,-6.374748 3.59325,-10.032371 -0.48007,-3.657622 -2.80802,-7.024554 -6.06047,-8.765307 -2.28383,-1.222332 -4.98192,-1.652981 -7.53278,-1.202322 m 0,0 c -1.55541,1.204789 -2.79022,2.819665 -3.54527,4.636453 -0.75504,1.816789 -1.02853,3.831188 -0.78519,5.78352 0.24333,1.952332 1.0029,3.837975 2.18079,5.413849 1.17789,1.575874 2.77132,2.838248 4.57487,3.624389 2.36574,1.031193 5.08638,1.225787 7.5748,0.541789" />
      </g>
    </g>
  </g>
  <g
     inkscape:groupmode="layer"
     id="layer5"
     inkscape:label="page4">
    <rect
       style="opacity:1;fill:#ffffff;fill-opacity:1;fill-rule:nonzero;stroke:none;stroke-width:5.37827;stroke-linecap:round;stroke-linejoin:round;stroke-miterlimit:10;stroke-dasharray:none;stroke-dashoffset:0;stroke-opacity:1;paint-order:stroke fill markers;stop-color:#000000"
       id="rect7778"
       width="24"
       height="6"
       x="253.06628"
       y="28.832609" />
    <g
       id="g7869">
      <path
         id="path7832"
         style="fill:none;fill-opacity:1;fill-rule:nonzero;stroke:#ffffff;stroke-width:5.37827;stroke-linecap:round;stroke-linejoin:round;stroke-miterlimit:10;stroke-dasharray:none;stroke-dashoffset:0;stroke-opacity:1;paint-order:stroke fill markers;stop-color:#000000"
         d="m 229.75391,2.5253906 c -2.09749,0.1276953 -3.78856,2.0908125 -3.6875,4.1746094 0.0108,16.999562 -0.0216,34.000876 0.0162,50.999343 0.0724,2.102913 1.99094,3.857746 4.08381,3.800657 12.03289,-0.01079 24.06754,0.02159 36.09934,-0.0162 2.10291,-0.07243 3.85775,-1.990934 3.80066,-4.083803 0.15805,-1.549276 -0.33173,-3.249749 -1.67726,-4.153187 -1.50936,-1.131355 -3.48094,-0.640448 -5.22274,-0.746813 -9.35892,-0.01433 -18.72252,0.02866 -28.07852,-0.02148 -0.0501,-10.873449 -0.007,-21.754491 -0.0215,-32.63086 0.0143,-2.774809 -0.0286,-5.554282 0.0215,-8.326172 10.35578,-0.05554 20.72003,0.0036 31.07819,-0.02958 C 268.26892,11.462026 270.07338,9.59742 270.06641,7.5 270.20784,5.9961966 269.83394,4.3331351 268.5684,3.382843 267.14886,2.1536453 265.17884,2.5690356 263.46641,2.5 c -11.19957,0.010793 -22.40088,-0.021589 -33.59935,0.016197 l -0.0997,0.0081 z" />
      <path
         id="path7834"
         style="fill:none;fill-opacity:1;fill-rule:nonzero;stroke:#ffffff;stroke-width:5.37827;stroke-linecap:round;stroke-linejoin:round;stroke-miterlimit:10;stroke-dasharray:none;stroke-dashoffset:0;stroke-opacity:1;paint-order:stroke fill markers;stop-color:#000000"
         d="m 245.22807,33.832319 c 11.33333,0.05599 22.66667,0.111979 34,0.167969 0.007,-1.333333 0.013,-2.666667 0.0195,-4 -11.33333,-0.05599 -22.66666,-0.111979 -34,-0.167969 -0.007,1.333334 -0.013,2.666667 -0.0195,4 z" />
    </g>
    <g
       id="g7816">
      <g
         id="g7786"
         transform="translate(7.999996,3.167392)">
        <path
           id="path1"
           style="opacity:1;fill:#ffffff;fill-opacity:1;fill-rule:nonzero;stroke:none;stroke-width:5.37827;stroke-linecap:round;stroke-linejoin:round;stroke-miterlimit:10;stroke-dasharray:none;stroke-dashoffset:0;stroke-opacity:1;paint-order:stroke fill markers;stop-color:#000000"
           d="m 262.70898,14.916016 c -0.84951,0.127543 -1.64293,0.602257 -2.3191,1.096139 -0.63959,0.566437 -1.05418,1.298388 -1.18285,2.146048 -0.3161,1.689788 -0.0603,3.421042 -0.14062,5.129297 0.0169,5.212663 -0.0338,10.434047 0.0253,15.641266 0.33378,1.398567 0.9407,3.102007 2.52934,3.448187 1.13696,0.525989 2.52464,0.529758 3.54738,-0.251449 1.44368,-0.89418 2.43877,-2.317994 3.69608,-3.435368 2.35361,-2.377201 4.76033,-4.713218 7.08085,-7.116072 0.77256,-1.232155 1.47843,-2.837001 0.71069,-4.247224 -0.71086,-1.702855 -2.32393,-2.734978 -3.51254,-4.073919 -2.45029,-2.426484 -4.85908,-4.906631 -7.33524,-7.299666 -0.93418,-0.547748 -1.97715,-1.120334 -3.09933,-1.037239 z" />
        <path
           style="opacity:1;fill:none;fill-opacity:1;fill-rule:nonzero;stroke:#000000;stroke-width:5.37827;stroke-linecap:round;stroke-linejoin:round;stroke-miterlimit:10;stroke-dasharray:none;stroke-dashoffset:0;stroke-opacity:1;paint-order:stroke fill markers;stop-color:#000000"
           d="m 239.06629,28.665216 34,0.167392"
           id="path7780"
           sodipodi:nodetypes="cc" />
        <path
           style="opacity:1;fill:none;fill-opacity:1;fill-rule:nonzero;stroke:#000000;stroke-width:5.37827;stroke-linecap:round;stroke-linejoin:round;stroke-miterlimit:10;stroke-dasharray:none;stroke-dashoffset:0;stroke-opacity:1;paint-order:stroke fill markers;stop-color:#000000"
           d="m 263.06629,18.832608 10,10 -10,10"
           id="path7782" />
      </g>
      <path
         id="rect7440"
         style="opacity:1;fill:#000000;fill-opacity:1;fill-rule:nonzero;stroke:none;stroke-width:5.37827;stroke-linecap:round;stroke-linejoin:round;stroke-miterlimit:10;stroke-dasharray:none;stroke-dashoffset:0;stroke-opacity:1;paint-order:stroke fill markers;stop-color:#000000"
         d="m 228.06641,6.5000001 0,50.9999999 a 2,2 45 0 0 2,2 h 35.99988 a 2,2 135 0 0 2,-2 v -1 a 2,2 45 0 0 -2,-2 h -30.99988 a 2,2 45 0 1 -2,-2 v -41 a 2,2 135 0 1 2,-1.9999999 l 30.99988,0 a 2,2 135 0 0 2,-2 v -1 a 2,2 45 0 0 -2,-2 l -35.99988,0 a 2,2 135 0 0 -2,2 z"
         inkscape:path-effect="#path-effect7776"
         inkscape:original-d="M 228.06641,4.5000001 V 59.5 h 39.99988 v -5 H 233.06641 V 9.5000001 h 34.99988 v -5 z"
         sodipodi:nodetypes="ccccccccc" />
    </g>
  </g>
  <g
     inkscape:groupmode="layer"
     id="layer3"
     inkscape:label="page3">
    <path
       style="opacity:1;fill:#00751f;fill-opacity:1;fill-rule:nonzero;stroke:#005014;stroke-width:4.52875;stroke-linecap:round;stroke-linejoin:round;stroke-miterlimit:10;stroke-dasharray:none;stroke-dashoffset:0;stroke-opacity:1;paint-order:stroke fill markers;stop-color:#000000"
       d="m 157.78779,23.846711 c 0,0 15.88104,-5.775498 26.29309,-3.761594 10.41206,2.013909 23.27036,-5.838858 23.27036,-5.838858 l -5.71161,27.886198 c 0,0 -10.93384,1.951844 -21.5829,0.268894 -10.64907,-1.68295 -27.40798,7.352395 -27.40798,7.352395 z"
       id="path4337"
       sodipodi:nodetypes="czcczcc" />
    <g
       id="g6913">
      <path
         id="path6907"
         style="font-weight:bold;font-size:49.5606px;font-family:'Inria Sans';-inkscape-font-specification:'Inria Sans Bold';text-align:center;text-anchor:middle;opacity:1;fill:#000000;fill-opacity:1;fill-rule:nonzero;stroke:none;stroke-width:2.6655;stroke-linecap:round;stroke-linejoin:round;stroke-miterlimit:10;stroke-dasharray:none;stroke-dashoffset:0;stroke-opacity:1;paint-order:stroke fill markers;stop-color:#000000"
         d="m 178.64453,5.9375 c -1.93435,-0.057474 -3.74984,1.7603256 -3.38242,3.7285695 0.0274,1.1778605 0.41169,2.6127725 -0.46087,3.5772375 -1.58002,1.21495 -3.66158,1.855526 -4.77691,3.620006 -3.64092,4.781453 -3.0907,12.361748 1.54904,16.301726 2.84195,2.443668 6.71743,2.837176 9.9924,4.434747 1.01281,0.330645 1.72565,1.392812 1.43618,2.454902 -0.32797,1.363526 -1.85343,1.863656 -3.11169,1.771744 -2.89842,0.117677 -5.65138,-0.980246 -8.39448,-1.718931 -0.80939,-0.02168 -1.67558,0.02687 -2.25068,0.683316 -1.00231,0.924181 -1.03497,2.378192 -1.60164,3.546002 -0.6591,1.507757 -0.415,3.512481 1.0419,4.464773 1.74459,1.264111 4.01632,1.272506 5.90625,2.193217 1.09824,0.576799 0.68309,1.970781 0.70956,2.964565 -0.10711,1.486948 0.4755,3.160288 1.95469,3.75547 1.38843,0.610088 2.93201,0.220957 4.3931,0.316072 1.6392,0.02146 3.12735,-1.35488 3.13071,-3.01508 0.20258,-1.330701 -0.37639,-2.757899 0.22033,-4.019742 0.86642,-0.954593 2.283,-1.08907 3.27136,-1.896877 4.18853,-2.842489 5.78206,-8.557022 4.34726,-13.305175 -0.99952,-3.519893 -3.71406,-6.523092 -7.19824,-7.708956 -2.4882,-1.038091 -5.34078,-1.403382 -7.47116,-3.159305 -0.68062,-1.034135 0.0958,-2.694895 1.3929,-2.668432 2.7298,-0.418915 5.31983,0.840537 7.96452,1.244604 1.45209,0.113449 2.82939,-0.930543 3.13129,-2.353021 0.40047,-1.451725 1.38648,-2.867297 1.02887,-4.426276 -0.31942,-1.488588 -1.73853,-2.348303 -3.12935,-2.660319 -1.1516,-0.424818 -2.66388,-0.433066 -3.39604,-1.558431 -0.44282,-1.337036 0.0467,-2.7949799 -0.27757,-4.1644358 -0.2542,-1.6559474 -2.02298,-2.5918167 -3.58962,-2.3941577 -0.80946,0.086597 -1.61884,-0.046715 -2.42969,-0.00781 z" />
      <path
         id="text5634"
         style="font-weight:bold;font-size:49.5606px;font-family:'Inria Sans';-inkscape-font-specification:'Inria Sans Bold';text-align:center;text-anchor:middle;opacity:1;fill:#b2a000;fill-opacity:1;fill-rule:nonzero;stroke:none;stroke-width:2.6655;stroke-linecap:round;stroke-linejoin:round;stroke-miterlimit:10;stroke-dasharray:none;stroke-dashoffset:0;stroke-opacity:1;paint-order:stroke fill markers;stop-color:#000000"
         d="m 178.66602,7.9375 c -0.79002,-0.010496 -1.57932,0.5933431 -1.41982,1.4475758 0.13817,1.7473812 0.39527,3.8036752 -0.93551,5.1890292 -1.42399,1.398399 -3.65304,1.801497 -4.74598,3.578882 -3.07411,4.131345 -2.45923,10.759235 1.78559,13.871484 3.01256,2.138134 6.91894,2.34508 10.02054,4.29591 1.83062,1.185745 2.23654,3.911595 0.9061,5.619556 -0.92379,1.390008 -2.63581,1.912406 -4.23329,1.884914 -3.11718,0.139005 -6.10565,-0.914752 -9.03584,-1.809226 -0.90428,0.284194 -0.77282,1.438289 -1.16601,2.136719 -0.30492,0.909585 -1.02552,2.179709 -0.0907,2.954437 1.07204,0.79945 2.45363,0.958368 3.69549,1.36934 1.56857,0.325476 3.37551,1.111177 3.75262,2.838332 0.40528,1.318866 -0.16048,2.738196 0.26953,4.035156 0.6139,1.00375 1.88955,0.652565 2.8578,0.679559 0.81254,-0.04381 2.03983,0.271765 2.39415,-0.720574 0.31854,-1.552992 -0.34023,-3.192365 0.27968,-4.715285 0.42434,-1.39123 1.82341,-2.037136 3.06357,-2.531994 3.43429,-1.593575 5.27866,-5.537332 5.04748,-9.213038 -0.12092,-3.642659 -2.32686,-7.257281 -5.77224,-8.631728 -2.88703,-1.285029 -6.24195,-1.678548 -8.72005,-3.771237 -1.74436,-1.793143 -0.88251,-5.152372 1.4668,-5.953124 2.93703,-0.874562 5.92942,0.213203 8.77944,0.905629 0.57083,0.218725 1.36898,0.145435 1.55454,-0.548208 0.38597,-1.017608 0.72093,-2.059422 1.10156,-3.076171 0.18205,-0.698654 -0.28166,-1.337431 -0.94917,-1.524136 -1.77903,-0.704942 -4.087,-0.75129 -5.22542,-2.519331 -1.02251,-1.503378 -0.35556,-3.363607 -0.64377,-5.0209866 -0.17302,-0.8466673 -1.15347,-0.8153302 -1.82237,-0.7413935 -0.74033,0.053904 -1.47519,-0.072826 -2.21473,-0.030091 z" />
    </g>
  </g>
  <g
     inkscape:groupmode="layer"
     id="layer2"
     inkscape:label="page2">
    <path
       style="opacity:1;fill:#007bff;fill-opacity:1;fill-rule:nonzero;stroke:#0058ff;stroke-width:4.37184;stroke-linecap:round;stroke-linejoin:round;stroke-miterlimit:10;stroke-dasharray:none;stroke-dashoffset:0;stroke-opacity:1;paint-order:stroke fill markers;stop-color:#000000"
       d="m 106.01367,2.46875 c -3.4669,4.297269 -21.971531,27.826565 -21.064451,39.357422 0.694872,8.833266 7.454134,19.69638 21.064451,20.511719 13.61032,-0.815339 20.37154,-11.678453 21.06641,-20.511719 C 127.98716,30.295315 109.48057,6.766019 106.01367,2.46875 Z"
       id="path4279"
       sodipodi:nodetypes="cszsc"
       inkscape:path-effect="#path-effect6915"
       inkscape:original-d="m 105.45939,1.7868477 c 0,0 -20.498038,20.9923663 -20.511792,40.2910553 -0.0059,8.22475 6.622835,20.861289 20.567312,20.285117 13.94448,-0.576172 20.86212,-11.595779 21.56544,-20.536438 C 128.08094,29.107023 105.45939,1.7868477 105.45939,1.7868477 Z"
       class="UnoptimicedTransforms"
       transform="matrix(0.94527167,0,0,0.94527167,5.7873557,1.498969)" />
  </g>
  <g
     inkscape:label="page1"
     inkscape:groupmode="layer"
     id="layer1">
    <path
       style="opacity:1;fill:#ffa500;fill-opacity:1;fill-rule:evenodd;stroke:#ff9400;stroke-width:3.65423;stroke-linecap:round;stroke-linejoin:round;stroke-miterlimit:10;stroke-dasharray:none;stroke-dashoffset:0;stroke-opacity:1;paint-order:stroke fill markers;stop-color:#000000"
       d="M 27.797289,4.2250994 C 21.123165,12.372293 18.54004,14.763123 13.668283,26.7599 c 4.963302,1.512998 10.352618,5.714205 17.507599,6.470323 -5.570793,9.732442 -5.265959,10.309023 -16.270566,26.937115 13.239063,-9.693312 22.576022,-18.11823 33.769643,-29.281573 L 31.058441,24.552624 C 33.363087,21.616109 47.317329,7.3482039 50.331702,3.8326084 39.968974,4.0386471 33.519027,4.2528455 27.797289,4.2250994 Z"
       id="path824"
       sodipodi:nodetypes="cccccccc" />
  </g>
</svg>
